<?xml version="1.0" encoding="utf-8" standalone="no"?>
<!DOCTYPE svg PUBLIC "-//W3C//DTD SVG 1.1//EN"
  "http://www.w3.org/Graphics/SVG/1.1/DTD/svg11.dtd">
<!-- Created with matplotlib (https://matplotlib.org/) -->
<svg height="788.300312pt" version="1.1" viewBox="0 0 910.967344 788.300312" width="910.967344pt" xmlns="http://www.w3.org/2000/svg" xmlns:xlink="http://www.w3.org/1999/xlink">
 <defs>
  <style type="text/css">
*{stroke-linecap:butt;stroke-linejoin:round;}
  </style>
 </defs>
 <g id="figure_1">
  <g id="patch_1">
   <path d="M 0 788.300312 
L 910.967344 788.300312 
L 910.967344 0 
L 0 0 
z
" style="fill:#ffffff;"/>
  </g>
  <g id="axes_1">
   <g id="patch_2">
    <path d="M 66.767344 727.92 
L 903.767344 727.92 
L 903.767344 7.2 
L 66.767344 7.2 
z
" style="fill:#eaeaf2;"/>
   </g>
   <g id="matplotlib.axis_1">
    <g id="xtick_1">
     <g id="line2d_1">
      <path clip-path="url(#pacc38b069b)" d="M 104.812798 727.92 
L 104.812798 7.2 
" style="fill:none;stroke:#ffffff;stroke-linecap:round;"/>
     </g>
     <g id="text_1">
      <!-- 0 -->
      <defs>
       <path d="M 31.78125 66.40625 
Q 24.171875 66.40625 20.328125 58.90625 
Q 16.5 51.421875 16.5 36.375 
Q 16.5 21.390625 20.328125 13.890625 
Q 24.171875 6.390625 31.78125 6.390625 
Q 39.453125 6.390625 43.28125 13.890625 
Q 47.125 21.390625 47.125 36.375 
Q 47.125 51.421875 43.28125 58.90625 
Q 39.453125 66.40625 31.78125 66.40625 
z
M 31.78125 74.21875 
Q 44.046875 74.21875 50.515625 64.515625 
Q 56.984375 54.828125 56.984375 36.375 
Q 56.984375 17.96875 50.515625 8.265625 
Q 44.046875 -1.421875 31.78125 -1.421875 
Q 19.53125 -1.421875 13.0625 8.265625 
Q 6.59375 17.96875 6.59375 36.375 
Q 6.59375 54.828125 13.0625 64.515625 
Q 19.53125 74.21875 31.78125 74.21875 
z
" id="DejaVuSans-48"/>
      </defs>
      <g style="fill:#262626;" transform="translate(101.313423 745.778281)scale(0.11 -0.11)">
       <use xlink:href="#DejaVuSans-48"/>
      </g>
     </g>
    </g>
    <g id="xtick_2">
     <g id="line2d_2">
      <path clip-path="url(#pacc38b069b)" d="M 265.004186 727.92 
L 265.004186 7.2 
" style="fill:none;stroke:#ffffff;stroke-linecap:round;"/>
     </g>
     <g id="text_2">
      <!-- 20 -->
      <defs>
       <path d="M 19.1875 8.296875 
L 53.609375 8.296875 
L 53.609375 0 
L 7.328125 0 
L 7.328125 8.296875 
Q 12.9375 14.109375 22.625 23.890625 
Q 32.328125 33.6875 34.8125 36.53125 
Q 39.546875 41.84375 41.421875 45.53125 
Q 43.3125 49.21875 43.3125 52.78125 
Q 43.3125 58.59375 39.234375 62.25 
Q 35.15625 65.921875 28.609375 65.921875 
Q 23.96875 65.921875 18.8125 64.3125 
Q 13.671875 62.703125 7.8125 59.421875 
L 7.8125 69.390625 
Q 13.765625 71.78125 18.9375 73 
Q 24.125 74.21875 28.421875 74.21875 
Q 39.75 74.21875 46.484375 68.546875 
Q 53.21875 62.890625 53.21875 53.421875 
Q 53.21875 48.921875 51.53125 44.890625 
Q 49.859375 40.875 45.40625 35.40625 
Q 44.1875 33.984375 37.640625 27.21875 
Q 31.109375 20.453125 19.1875 8.296875 
z
" id="DejaVuSans-50"/>
      </defs>
      <g style="fill:#262626;" transform="translate(258.005436 745.778281)scale(0.11 -0.11)">
       <use xlink:href="#DejaVuSans-50"/>
       <use x="63.623047" xlink:href="#DejaVuSans-48"/>
      </g>
     </g>
    </g>
    <g id="xtick_3">
     <g id="line2d_3">
      <path clip-path="url(#pacc38b069b)" d="M 425.195573 727.92 
L 425.195573 7.2 
" style="fill:none;stroke:#ffffff;stroke-linecap:round;"/>
     </g>
     <g id="text_3">
      <!-- 40 -->
      <defs>
       <path d="M 37.796875 64.3125 
L 12.890625 25.390625 
L 37.796875 25.390625 
z
M 35.203125 72.90625 
L 47.609375 72.90625 
L 47.609375 25.390625 
L 58.015625 25.390625 
L 58.015625 17.1875 
L 47.609375 17.1875 
L 47.609375 0 
L 37.796875 0 
L 37.796875 17.1875 
L 4.890625 17.1875 
L 4.890625 26.703125 
z
" id="DejaVuSans-52"/>
      </defs>
      <g style="fill:#262626;" transform="translate(418.196823 745.778281)scale(0.11 -0.11)">
       <use xlink:href="#DejaVuSans-52"/>
       <use x="63.623047" xlink:href="#DejaVuSans-48"/>
      </g>
     </g>
    </g>
    <g id="xtick_4">
     <g id="line2d_4">
      <path clip-path="url(#pacc38b069b)" d="M 585.386961 727.92 
L 585.386961 7.2 
" style="fill:none;stroke:#ffffff;stroke-linecap:round;"/>
     </g>
     <g id="text_4">
      <!-- 60 -->
      <defs>
       <path d="M 33.015625 40.375 
Q 26.375 40.375 22.484375 35.828125 
Q 18.609375 31.296875 18.609375 23.390625 
Q 18.609375 15.53125 22.484375 10.953125 
Q 26.375 6.390625 33.015625 6.390625 
Q 39.65625 6.390625 43.53125 10.953125 
Q 47.40625 15.53125 47.40625 23.390625 
Q 47.40625 31.296875 43.53125 35.828125 
Q 39.65625 40.375 33.015625 40.375 
z
M 52.59375 71.296875 
L 52.59375 62.3125 
Q 48.875 64.0625 45.09375 64.984375 
Q 41.3125 65.921875 37.59375 65.921875 
Q 27.828125 65.921875 22.671875 59.328125 
Q 17.53125 52.734375 16.796875 39.40625 
Q 19.671875 43.65625 24.015625 45.921875 
Q 28.375 48.1875 33.59375 48.1875 
Q 44.578125 48.1875 50.953125 41.515625 
Q 57.328125 34.859375 57.328125 23.390625 
Q 57.328125 12.15625 50.6875 5.359375 
Q 44.046875 -1.421875 33.015625 -1.421875 
Q 20.359375 -1.421875 13.671875 8.265625 
Q 6.984375 17.96875 6.984375 36.375 
Q 6.984375 53.65625 15.1875 63.9375 
Q 23.390625 74.21875 37.203125 74.21875 
Q 40.921875 74.21875 44.703125 73.484375 
Q 48.484375 72.75 52.59375 71.296875 
z
" id="DejaVuSans-54"/>
      </defs>
      <g style="fill:#262626;" transform="translate(578.388211 745.778281)scale(0.11 -0.11)">
       <use xlink:href="#DejaVuSans-54"/>
       <use x="63.623047" xlink:href="#DejaVuSans-48"/>
      </g>
     </g>
    </g>
    <g id="xtick_5">
     <g id="line2d_5">
      <path clip-path="url(#pacc38b069b)" d="M 745.578349 727.92 
L 745.578349 7.2 
" style="fill:none;stroke:#ffffff;stroke-linecap:round;"/>
     </g>
     <g id="text_5">
      <!-- 80 -->
      <defs>
       <path d="M 31.78125 34.625 
Q 24.75 34.625 20.71875 30.859375 
Q 16.703125 27.09375 16.703125 20.515625 
Q 16.703125 13.921875 20.71875 10.15625 
Q 24.75 6.390625 31.78125 6.390625 
Q 38.8125 6.390625 42.859375 10.171875 
Q 46.921875 13.96875 46.921875 20.515625 
Q 46.921875 27.09375 42.890625 30.859375 
Q 38.875 34.625 31.78125 34.625 
z
M 21.921875 38.8125 
Q 15.578125 40.375 12.03125 44.71875 
Q 8.5 49.078125 8.5 55.328125 
Q 8.5 64.0625 14.71875 69.140625 
Q 20.953125 74.21875 31.78125 74.21875 
Q 42.671875 74.21875 48.875 69.140625 
Q 55.078125 64.0625 55.078125 55.328125 
Q 55.078125 49.078125 51.53125 44.71875 
Q 48 40.375 41.703125 38.8125 
Q 48.828125 37.15625 52.796875 32.3125 
Q 56.78125 27.484375 56.78125 20.515625 
Q 56.78125 9.90625 50.3125 4.234375 
Q 43.84375 -1.421875 31.78125 -1.421875 
Q 19.734375 -1.421875 13.25 4.234375 
Q 6.78125 9.90625 6.78125 20.515625 
Q 6.78125 27.484375 10.78125 32.3125 
Q 14.796875 37.15625 21.921875 38.8125 
z
M 18.3125 54.390625 
Q 18.3125 48.734375 21.84375 45.5625 
Q 25.390625 42.390625 31.78125 42.390625 
Q 38.140625 42.390625 41.71875 45.5625 
Q 45.3125 48.734375 45.3125 54.390625 
Q 45.3125 60.0625 41.71875 63.234375 
Q 38.140625 66.40625 31.78125 66.40625 
Q 25.390625 66.40625 21.84375 63.234375 
Q 18.3125 60.0625 18.3125 54.390625 
z
" id="DejaVuSans-56"/>
      </defs>
      <g style="fill:#262626;" transform="translate(738.579599 745.778281)scale(0.11 -0.11)">
       <use xlink:href="#DejaVuSans-56"/>
       <use x="63.623047" xlink:href="#DejaVuSans-48"/>
      </g>
     </g>
    </g>
    <g id="text_6">
     <!-- Sample Index -->
     <defs>
      <path d="M 53.515625 70.515625 
L 53.515625 60.890625 
Q 47.90625 63.578125 42.921875 64.890625 
Q 37.9375 66.21875 33.296875 66.21875 
Q 25.25 66.21875 20.875 63.09375 
Q 16.5 59.96875 16.5 54.203125 
Q 16.5 49.359375 19.40625 46.890625 
Q 22.3125 44.4375 30.421875 42.921875 
L 36.375 41.703125 
Q 47.40625 39.59375 52.65625 34.296875 
Q 57.90625 29 57.90625 20.125 
Q 57.90625 9.515625 50.796875 4.046875 
Q 43.703125 -1.421875 29.984375 -1.421875 
Q 24.8125 -1.421875 18.96875 -0.25 
Q 13.140625 0.921875 6.890625 3.21875 
L 6.890625 13.375 
Q 12.890625 10.015625 18.65625 8.296875 
Q 24.421875 6.59375 29.984375 6.59375 
Q 38.421875 6.59375 43.015625 9.90625 
Q 47.609375 13.234375 47.609375 19.390625 
Q 47.609375 24.75 44.3125 27.78125 
Q 41.015625 30.8125 33.5 32.328125 
L 27.484375 33.5 
Q 16.453125 35.6875 11.515625 40.375 
Q 6.59375 45.0625 6.59375 53.421875 
Q 6.59375 63.09375 13.40625 68.65625 
Q 20.21875 74.21875 32.171875 74.21875 
Q 37.3125 74.21875 42.625 73.28125 
Q 47.953125 72.359375 53.515625 70.515625 
z
" id="DejaVuSans-83"/>
      <path d="M 34.28125 27.484375 
Q 23.390625 27.484375 19.1875 25 
Q 14.984375 22.515625 14.984375 16.5 
Q 14.984375 11.71875 18.140625 8.90625 
Q 21.296875 6.109375 26.703125 6.109375 
Q 34.1875 6.109375 38.703125 11.40625 
Q 43.21875 16.703125 43.21875 25.484375 
L 43.21875 27.484375 
z
M 52.203125 31.203125 
L 52.203125 0 
L 43.21875 0 
L 43.21875 8.296875 
Q 40.140625 3.328125 35.546875 0.953125 
Q 30.953125 -1.421875 24.3125 -1.421875 
Q 15.921875 -1.421875 10.953125 3.296875 
Q 6 8.015625 6 15.921875 
Q 6 25.140625 12.171875 29.828125 
Q 18.359375 34.515625 30.609375 34.515625 
L 43.21875 34.515625 
L 43.21875 35.40625 
Q 43.21875 41.609375 39.140625 45 
Q 35.0625 48.390625 27.6875 48.390625 
Q 23 48.390625 18.546875 47.265625 
Q 14.109375 46.140625 10.015625 43.890625 
L 10.015625 52.203125 
Q 14.9375 54.109375 19.578125 55.046875 
Q 24.21875 56 28.609375 56 
Q 40.484375 56 46.34375 49.84375 
Q 52.203125 43.703125 52.203125 31.203125 
z
" id="DejaVuSans-97"/>
      <path d="M 52 44.1875 
Q 55.375 50.25 60.0625 53.125 
Q 64.75 56 71.09375 56 
Q 79.640625 56 84.28125 50.015625 
Q 88.921875 44.046875 88.921875 33.015625 
L 88.921875 0 
L 79.890625 0 
L 79.890625 32.71875 
Q 79.890625 40.578125 77.09375 44.375 
Q 74.3125 48.1875 68.609375 48.1875 
Q 61.625 48.1875 57.5625 43.546875 
Q 53.515625 38.921875 53.515625 30.90625 
L 53.515625 0 
L 44.484375 0 
L 44.484375 32.71875 
Q 44.484375 40.625 41.703125 44.40625 
Q 38.921875 48.1875 33.109375 48.1875 
Q 26.21875 48.1875 22.15625 43.53125 
Q 18.109375 38.875 18.109375 30.90625 
L 18.109375 0 
L 9.078125 0 
L 9.078125 54.6875 
L 18.109375 54.6875 
L 18.109375 46.1875 
Q 21.1875 51.21875 25.484375 53.609375 
Q 29.78125 56 35.6875 56 
Q 41.65625 56 45.828125 52.96875 
Q 50 49.953125 52 44.1875 
z
" id="DejaVuSans-109"/>
      <path d="M 18.109375 8.203125 
L 18.109375 -20.796875 
L 9.078125 -20.796875 
L 9.078125 54.6875 
L 18.109375 54.6875 
L 18.109375 46.390625 
Q 20.953125 51.265625 25.265625 53.625 
Q 29.59375 56 35.59375 56 
Q 45.5625 56 51.78125 48.09375 
Q 58.015625 40.1875 58.015625 27.296875 
Q 58.015625 14.40625 51.78125 6.484375 
Q 45.5625 -1.421875 35.59375 -1.421875 
Q 29.59375 -1.421875 25.265625 0.953125 
Q 20.953125 3.328125 18.109375 8.203125 
z
M 48.6875 27.296875 
Q 48.6875 37.203125 44.609375 42.84375 
Q 40.53125 48.484375 33.40625 48.484375 
Q 26.265625 48.484375 22.1875 42.84375 
Q 18.109375 37.203125 18.109375 27.296875 
Q 18.109375 17.390625 22.1875 11.75 
Q 26.265625 6.109375 33.40625 6.109375 
Q 40.53125 6.109375 44.609375 11.75 
Q 48.6875 17.390625 48.6875 27.296875 
z
" id="DejaVuSans-112"/>
      <path d="M 9.421875 75.984375 
L 18.40625 75.984375 
L 18.40625 0 
L 9.421875 0 
z
" id="DejaVuSans-108"/>
      <path d="M 56.203125 29.59375 
L 56.203125 25.203125 
L 14.890625 25.203125 
Q 15.484375 15.921875 20.484375 11.0625 
Q 25.484375 6.203125 34.421875 6.203125 
Q 39.59375 6.203125 44.453125 7.46875 
Q 49.3125 8.734375 54.109375 11.28125 
L 54.109375 2.78125 
Q 49.265625 0.734375 44.1875 -0.34375 
Q 39.109375 -1.421875 33.890625 -1.421875 
Q 20.796875 -1.421875 13.15625 6.1875 
Q 5.515625 13.8125 5.515625 26.8125 
Q 5.515625 40.234375 12.765625 48.109375 
Q 20.015625 56 32.328125 56 
Q 43.359375 56 49.78125 48.890625 
Q 56.203125 41.796875 56.203125 29.59375 
z
M 47.21875 32.234375 
Q 47.125 39.59375 43.09375 43.984375 
Q 39.0625 48.390625 32.421875 48.390625 
Q 24.90625 48.390625 20.390625 44.140625 
Q 15.875 39.890625 15.1875 32.171875 
z
" id="DejaVuSans-101"/>
      <path id="DejaVuSans-32"/>
      <path d="M 9.8125 72.90625 
L 19.671875 72.90625 
L 19.671875 0 
L 9.8125 0 
z
" id="DejaVuSans-73"/>
      <path d="M 54.890625 33.015625 
L 54.890625 0 
L 45.90625 0 
L 45.90625 32.71875 
Q 45.90625 40.484375 42.875 44.328125 
Q 39.84375 48.1875 33.796875 48.1875 
Q 26.515625 48.1875 22.3125 43.546875 
Q 18.109375 38.921875 18.109375 30.90625 
L 18.109375 0 
L 9.078125 0 
L 9.078125 54.6875 
L 18.109375 54.6875 
L 18.109375 46.1875 
Q 21.34375 51.125 25.703125 53.5625 
Q 30.078125 56 35.796875 56 
Q 45.21875 56 50.046875 50.171875 
Q 54.890625 44.34375 54.890625 33.015625 
z
" id="DejaVuSans-110"/>
      <path d="M 45.40625 46.390625 
L 45.40625 75.984375 
L 54.390625 75.984375 
L 54.390625 0 
L 45.40625 0 
L 45.40625 8.203125 
Q 42.578125 3.328125 38.25 0.953125 
Q 33.9375 -1.421875 27.875 -1.421875 
Q 17.96875 -1.421875 11.734375 6.484375 
Q 5.515625 14.40625 5.515625 27.296875 
Q 5.515625 40.1875 11.734375 48.09375 
Q 17.96875 56 27.875 56 
Q 33.9375 56 38.25 53.625 
Q 42.578125 51.265625 45.40625 46.390625 
z
M 14.796875 27.296875 
Q 14.796875 17.390625 18.875 11.75 
Q 22.953125 6.109375 30.078125 6.109375 
Q 37.203125 6.109375 41.296875 11.75 
Q 45.40625 17.390625 45.40625 27.296875 
Q 45.40625 37.203125 41.296875 42.84375 
Q 37.203125 48.484375 30.078125 48.484375 
Q 22.953125 48.484375 18.875 42.84375 
Q 14.796875 37.203125 14.796875 27.296875 
z
" id="DejaVuSans-100"/>
      <path d="M 54.890625 54.6875 
L 35.109375 28.078125 
L 55.90625 0 
L 45.3125 0 
L 29.390625 21.484375 
L 13.484375 0 
L 2.875 0 
L 24.125 28.609375 
L 4.6875 54.6875 
L 15.28125 54.6875 
L 29.78125 35.203125 
L 44.28125 54.6875 
z
" id="DejaVuSans-120"/>
     </defs>
     <g style="fill:#262626;" transform="translate(382.955625 774.86125)scale(0.3 -0.3)">
      <use xlink:href="#DejaVuSans-83"/>
      <use x="63.476562" xlink:href="#DejaVuSans-97"/>
      <use x="124.755859" xlink:href="#DejaVuSans-109"/>
      <use x="222.167969" xlink:href="#DejaVuSans-112"/>
      <use x="285.644531" xlink:href="#DejaVuSans-108"/>
      <use x="313.427734" xlink:href="#DejaVuSans-101"/>
      <use x="374.951172" xlink:href="#DejaVuSans-32"/>
      <use x="406.738281" xlink:href="#DejaVuSans-73"/>
      <use x="436.230469" xlink:href="#DejaVuSans-110"/>
      <use x="499.609375" xlink:href="#DejaVuSans-100"/>
      <use x="563.085938" xlink:href="#DejaVuSans-101"/>
      <use x="622.859375" xlink:href="#DejaVuSans-120"/>
     </g>
    </g>
   </g>
   <g id="matplotlib.axis_2">
    <g id="ytick_1">
     <g id="line2d_6">
      <path clip-path="url(#pacc38b069b)" d="M 66.767344 690.641731 
L 903.767344 690.641731 
" style="fill:none;stroke:#ffffff;stroke-linecap:round;"/>
     </g>
     <g id="text_7">
      <!-- −1.0 -->
      <defs>
       <path d="M 10.59375 35.5 
L 73.1875 35.5 
L 73.1875 27.203125 
L 10.59375 27.203125 
z
" id="DejaVuSans-8722"/>
       <path d="M 12.40625 8.296875 
L 28.515625 8.296875 
L 28.515625 63.921875 
L 10.984375 60.40625 
L 10.984375 69.390625 
L 28.421875 72.90625 
L 38.28125 72.90625 
L 38.28125 8.296875 
L 54.390625 8.296875 
L 54.390625 0 
L 12.40625 0 
z
" id="DejaVuSans-49"/>
       <path d="M 10.6875 12.40625 
L 21 12.40625 
L 21 0 
L 10.6875 0 
z
" id="DejaVuSans-46"/>
      </defs>
      <g style="fill:#262626;" transform="translate(30.55625 694.820872)scale(0.11 -0.11)">
       <use xlink:href="#DejaVuSans-8722"/>
       <use x="83.789062" xlink:href="#DejaVuSans-49"/>
       <use x="147.412109" xlink:href="#DejaVuSans-46"/>
       <use x="179.199219" xlink:href="#DejaVuSans-48"/>
      </g>
     </g>
    </g>
    <g id="ytick_2">
     <g id="line2d_7">
      <path clip-path="url(#pacc38b069b)" d="M 66.767344 544.668367 
L 903.767344 544.668367 
" style="fill:none;stroke:#ffffff;stroke-linecap:round;"/>
     </g>
     <g id="text_8">
      <!-- −0.5 -->
      <defs>
       <path d="M 10.796875 72.90625 
L 49.515625 72.90625 
L 49.515625 64.59375 
L 19.828125 64.59375 
L 19.828125 46.734375 
Q 21.96875 47.46875 24.109375 47.828125 
Q 26.265625 48.1875 28.421875 48.1875 
Q 40.625 48.1875 47.75 41.5 
Q 54.890625 34.8125 54.890625 23.390625 
Q 54.890625 11.625 47.5625 5.09375 
Q 40.234375 -1.421875 26.90625 -1.421875 
Q 22.3125 -1.421875 17.546875 -0.640625 
Q 12.796875 0.140625 7.71875 1.703125 
L 7.71875 11.625 
Q 12.109375 9.234375 16.796875 8.0625 
Q 21.484375 6.890625 26.703125 6.890625 
Q 35.15625 6.890625 40.078125 11.328125 
Q 45.015625 15.765625 45.015625 23.390625 
Q 45.015625 31 40.078125 35.4375 
Q 35.15625 39.890625 26.703125 39.890625 
Q 22.75 39.890625 18.8125 39.015625 
Q 14.890625 38.140625 10.796875 36.28125 
z
" id="DejaVuSans-53"/>
      </defs>
      <g style="fill:#262626;" transform="translate(30.55625 548.847508)scale(0.11 -0.11)">
       <use xlink:href="#DejaVuSans-8722"/>
       <use x="83.789062" xlink:href="#DejaVuSans-48"/>
       <use x="147.412109" xlink:href="#DejaVuSans-46"/>
       <use x="179.199219" xlink:href="#DejaVuSans-53"/>
      </g>
     </g>
    </g>
    <g id="ytick_3">
     <g id="line2d_8">
      <path clip-path="url(#pacc38b069b)" d="M 66.767344 398.695003 
L 903.767344 398.695003 
" style="fill:none;stroke:#ffffff;stroke-linecap:round;"/>
     </g>
     <g id="text_9">
      <!-- 0.0 -->
      <g style="fill:#262626;" transform="translate(39.773906 402.874144)scale(0.11 -0.11)">
       <use xlink:href="#DejaVuSans-48"/>
       <use x="63.623047" xlink:href="#DejaVuSans-46"/>
       <use x="95.410156" xlink:href="#DejaVuSans-48"/>
      </g>
     </g>
    </g>
    <g id="ytick_4">
     <g id="line2d_9">
      <path clip-path="url(#pacc38b069b)" d="M 66.767344 252.721639 
L 903.767344 252.721639 
" style="fill:none;stroke:#ffffff;stroke-linecap:round;"/>
     </g>
     <g id="text_10">
      <!-- 0.5 -->
      <g style="fill:#262626;" transform="translate(39.773906 256.90078)scale(0.11 -0.11)">
       <use xlink:href="#DejaVuSans-48"/>
       <use x="63.623047" xlink:href="#DejaVuSans-46"/>
       <use x="95.410156" xlink:href="#DejaVuSans-53"/>
      </g>
     </g>
    </g>
    <g id="ytick_5">
     <g id="line2d_10">
      <path clip-path="url(#pacc38b069b)" d="M 66.767344 106.748275 
L 903.767344 106.748275 
" style="fill:none;stroke:#ffffff;stroke-linecap:round;"/>
     </g>
     <g id="text_11">
      <!-- 1.0 -->
      <g style="fill:#262626;" transform="translate(39.773906 110.927416)scale(0.11 -0.11)">
       <use xlink:href="#DejaVuSans-49"/>
       <use x="63.623047" xlink:href="#DejaVuSans-46"/>
       <use x="95.410156" xlink:href="#DejaVuSans-48"/>
      </g>
     </g>
    </g>
    <g id="text_12">
     <!-- Sensor Reading -->
     <defs>
      <path d="M 44.28125 53.078125 
L 44.28125 44.578125 
Q 40.484375 46.53125 36.375 47.5 
Q 32.28125 48.484375 27.875 48.484375 
Q 21.1875 48.484375 17.84375 46.4375 
Q 14.5 44.390625 14.5 40.28125 
Q 14.5 37.15625 16.890625 35.375 
Q 19.28125 33.59375 26.515625 31.984375 
L 29.59375 31.296875 
Q 39.15625 29.25 43.1875 25.515625 
Q 47.21875 21.78125 47.21875 15.09375 
Q 47.21875 7.46875 41.1875 3.015625 
Q 35.15625 -1.421875 24.609375 -1.421875 
Q 20.21875 -1.421875 15.453125 -0.5625 
Q 10.6875 0.296875 5.421875 2 
L 5.421875 11.28125 
Q 10.40625 8.6875 15.234375 7.390625 
Q 20.0625 6.109375 24.8125 6.109375 
Q 31.15625 6.109375 34.5625 8.28125 
Q 37.984375 10.453125 37.984375 14.40625 
Q 37.984375 18.0625 35.515625 20.015625 
Q 33.0625 21.96875 24.703125 23.78125 
L 21.578125 24.515625 
Q 13.234375 26.265625 9.515625 29.90625 
Q 5.8125 33.546875 5.8125 39.890625 
Q 5.8125 47.609375 11.28125 51.796875 
Q 16.75 56 26.8125 56 
Q 31.78125 56 36.171875 55.265625 
Q 40.578125 54.546875 44.28125 53.078125 
z
" id="DejaVuSans-115"/>
      <path d="M 30.609375 48.390625 
Q 23.390625 48.390625 19.1875 42.75 
Q 14.984375 37.109375 14.984375 27.296875 
Q 14.984375 17.484375 19.15625 11.84375 
Q 23.34375 6.203125 30.609375 6.203125 
Q 37.796875 6.203125 41.984375 11.859375 
Q 46.1875 17.53125 46.1875 27.296875 
Q 46.1875 37.015625 41.984375 42.703125 
Q 37.796875 48.390625 30.609375 48.390625 
z
M 30.609375 56 
Q 42.328125 56 49.015625 48.375 
Q 55.71875 40.765625 55.71875 27.296875 
Q 55.71875 13.875 49.015625 6.21875 
Q 42.328125 -1.421875 30.609375 -1.421875 
Q 18.84375 -1.421875 12.171875 6.21875 
Q 5.515625 13.875 5.515625 27.296875 
Q 5.515625 40.765625 12.171875 48.375 
Q 18.84375 56 30.609375 56 
z
" id="DejaVuSans-111"/>
      <path d="M 41.109375 46.296875 
Q 39.59375 47.171875 37.8125 47.578125 
Q 36.03125 48 33.890625 48 
Q 26.265625 48 22.1875 43.046875 
Q 18.109375 38.09375 18.109375 28.8125 
L 18.109375 0 
L 9.078125 0 
L 9.078125 54.6875 
L 18.109375 54.6875 
L 18.109375 46.1875 
Q 20.953125 51.171875 25.484375 53.578125 
Q 30.03125 56 36.53125 56 
Q 37.453125 56 38.578125 55.875 
Q 39.703125 55.765625 41.0625 55.515625 
z
" id="DejaVuSans-114"/>
      <path d="M 44.390625 34.1875 
Q 47.5625 33.109375 50.5625 29.59375 
Q 53.5625 26.078125 56.59375 19.921875 
L 66.609375 0 
L 56 0 
L 46.6875 18.703125 
Q 43.0625 26.03125 39.671875 28.421875 
Q 36.28125 30.8125 30.421875 30.8125 
L 19.671875 30.8125 
L 19.671875 0 
L 9.8125 0 
L 9.8125 72.90625 
L 32.078125 72.90625 
Q 44.578125 72.90625 50.734375 67.671875 
Q 56.890625 62.453125 56.890625 51.90625 
Q 56.890625 45.015625 53.6875 40.46875 
Q 50.484375 35.9375 44.390625 34.1875 
z
M 19.671875 64.796875 
L 19.671875 38.921875 
L 32.078125 38.921875 
Q 39.203125 38.921875 42.84375 42.21875 
Q 46.484375 45.515625 46.484375 51.90625 
Q 46.484375 58.296875 42.84375 61.546875 
Q 39.203125 64.796875 32.078125 64.796875 
z
" id="DejaVuSans-82"/>
      <path d="M 9.421875 54.6875 
L 18.40625 54.6875 
L 18.40625 0 
L 9.421875 0 
z
M 9.421875 75.984375 
L 18.40625 75.984375 
L 18.40625 64.59375 
L 9.421875 64.59375 
z
" id="DejaVuSans-105"/>
      <path d="M 45.40625 27.984375 
Q 45.40625 37.75 41.375 43.109375 
Q 37.359375 48.484375 30.078125 48.484375 
Q 22.859375 48.484375 18.828125 43.109375 
Q 14.796875 37.75 14.796875 27.984375 
Q 14.796875 18.265625 18.828125 12.890625 
Q 22.859375 7.515625 30.078125 7.515625 
Q 37.359375 7.515625 41.375 12.890625 
Q 45.40625 18.265625 45.40625 27.984375 
z
M 54.390625 6.78125 
Q 54.390625 -7.171875 48.1875 -13.984375 
Q 42 -20.796875 29.203125 -20.796875 
Q 24.46875 -20.796875 20.265625 -20.09375 
Q 16.0625 -19.390625 12.109375 -17.921875 
L 12.109375 -9.1875 
Q 16.0625 -11.328125 19.921875 -12.34375 
Q 23.78125 -13.375 27.78125 -13.375 
Q 36.625 -13.375 41.015625 -8.765625 
Q 45.40625 -4.15625 45.40625 5.171875 
L 45.40625 9.625 
Q 42.625 4.78125 38.28125 2.390625 
Q 33.9375 0 27.875 0 
Q 17.828125 0 11.671875 7.65625 
Q 5.515625 15.328125 5.515625 27.984375 
Q 5.515625 40.671875 11.671875 48.328125 
Q 17.828125 56 27.875 56 
Q 33.9375 56 38.28125 53.609375 
Q 42.625 51.21875 45.40625 46.390625 
L 45.40625 54.6875 
L 54.390625 54.6875 
z
" id="DejaVuSans-103"/>
     </defs>
     <g style="fill:#262626;" transform="translate(22.396875 445.608437)rotate(-90)scale(0.2 -0.2)">
      <use xlink:href="#DejaVuSans-83"/>
      <use x="63.476562" xlink:href="#DejaVuSans-101"/>
      <use x="125" xlink:href="#DejaVuSans-110"/>
      <use x="188.378906" xlink:href="#DejaVuSans-115"/>
      <use x="240.478516" xlink:href="#DejaVuSans-111"/>
      <use x="301.660156" xlink:href="#DejaVuSans-114"/>
      <use x="342.773438" xlink:href="#DejaVuSans-32"/>
      <use x="374.560547" xlink:href="#DejaVuSans-82"/>
      <use x="439.542969" xlink:href="#DejaVuSans-101"/>
      <use x="501.066406" xlink:href="#DejaVuSans-97"/>
      <use x="562.345703" xlink:href="#DejaVuSans-100"/>
      <use x="625.822266" xlink:href="#DejaVuSans-105"/>
      <use x="653.605469" xlink:href="#DejaVuSans-110"/>
      <use x="716.984375" xlink:href="#DejaVuSans-103"/>
     </g>
    </g>
   </g>
   <g id="line2d_11">
    <path clip-path="url(#pacc38b069b)" d="M 104.812798 396.251768 
L 112.822368 420.252245 
L 120.831937 414.145939 
L 128.841506 407.327845 
L 136.851076 414.861414 
L 144.860645 414.315071 
L 152.870215 398.88358 
L 160.879784 399.192305 
L 168.889353 393.484641 
L 176.898923 388.095986 
L 184.908492 392.255062 
L 192.918061 397.908692 
L 200.927631 411.213509 
L 208.9372 423.379948 
L 216.94677 428.023319 
L 224.956339 425.984449 
L 232.965908 430.182213 
L 240.975478 444.460392 
L 248.985047 429.749939 
L 256.994616 424.104767 
L 265.004186 432.043906 
L 273.013755 447.631385 
L 281.023325 436.478674 
L 289.032894 428.939408 
L 297.042463 413.650748 
L 305.052033 418.40054 
L 313.061602 424.038614 
L 321.071172 434.537457 
L 329.080741 437.538592 
L 337.09031 408.26856 
L 345.09988 393.086781 
L 353.109449 401.358485 
L 361.119018 379.577344 
L 369.128588 351.909864 
L 377.138157 343.734577 
L 385.147727 348.716149 
L 393.157296 351.380009 
L 401.166865 352.08316 
L 409.176435 360.679281 
L 417.186004 358.454806 
L 425.195573 362.247102 
L 433.205143 372.230333 
L 441.214712 378.034015 
L 449.224282 369.887189 
L 457.233851 365.835412 
L 465.24342 376.921632 
L 473.25299 372.807667 
L 481.262559 361.67276 
L 489.272128 353.906015 
L 497.281698 361.021753 
L 505.291267 352.468931 
L 513.300837 347.175261 
L 521.310406 347.68031 
L 529.319975 337.222719 
L 537.329545 341.911243 
L 545.339114 358.705368 
L 553.348683 358.196913 
L 561.358253 373.299158 
L 569.367822 395.324404 
L 577.377392 424.556631 
L 585.386961 433.581866 
L 593.39653 439.164734 
L 601.4061 454.476522 
L 609.415669 460.492858 
L 617.425238 460.490074 
L 625.434808 445.598625 
L 633.444377 456.809391 
L 641.453947 448.483552 
L 649.463516 442.488685 
L 657.473085 432.579281 
L 665.482655 431.305722 
L 673.492224 444.3917 
L 681.501794 444.655044 
L 689.511363 441.692058 
L 697.520932 427.182756 
L 705.530502 427.709605 
L 713.540071 417.15744 
L 721.54964 399.002022 
L 729.55921 390.511777 
L 737.568779 401.586077 
L 745.578349 397.719006 
L 753.587918 390.604029 
L 761.597487 392.450224 
L 769.607057 404.109751 
L 777.616626 408.25594 
L 785.626195 406.109294 
L 793.635765 391.389137 
L 801.645334 403.113617 
L 809.654904 404.652503 
L 817.664473 373.611704 
L 825.674042 378.969215 
L 833.683612 391.685031 
L 841.693181 397.790201 
L 849.70275 397.868734 
L 857.71232 392.493978 
L 865.721889 391.14303 
" style="fill:none;stroke:#fb694a;stroke-linecap:round;stroke-width:1.5;"/>
   </g>
   <g id="line2d_12"/>
   <g id="line2d_13"/>
   <g id="line2d_14">
    <path clip-path="url(#pacc38b069b)" d="M 104.812798 393.460233 
L 112.822368 391.145066 
L 120.831937 392.953896 
L 128.841506 388.326356 
L 136.851076 386.167262 
L 144.860645 388.057156 
L 152.870215 392.564149 
L 160.879784 399.407077 
L 168.889353 408.630174 
L 176.898923 413.768462 
L 184.908492 413.959329 
L 192.918061 418.149243 
L 200.927631 416.895926 
L 208.9372 419.94892 
L 216.94677 422.463454 
L 224.956339 423.895414 
L 232.965908 426.670886 
L 240.975478 436.183373 
L 248.985047 443.002482 
L 256.994616 444.902261 
L 265.004186 452.843851 
L 273.013755 459.623794 
L 281.023325 467.07306 
L 289.032894 463.733831 
L 297.042463 464.001525 
L 305.052033 463.646123 
L 313.061602 458.158624 
L 321.071172 449.944372 
L 329.080741 435.696861 
L 337.09031 415.991911 
L 345.09988 382.722258 
L 353.109449 348.039588 
L 361.119018 340.510689 
L 369.128588 343.059134 
L 377.138157 348.635363 
L 385.147727 360.188766 
L 393.157296 370.395581 
L 401.166865 368.299289 
L 409.176435 361.683414 
L 417.186004 361.562318 
L 425.195573 372.077973 
L 433.205143 375.829067 
L 441.214712 376.80384 
L 449.224282 377.529564 
L 457.233851 379.803629 
L 465.24342 383.681857 
L 473.25299 383.997788 
L 481.262559 386.351168 
L 489.272128 394.54373 
L 497.281698 416.095619 
L 505.291267 430.343191 
L 513.300837 434.306294 
L 521.310406 433.954178 
L 529.319975 436.372613 
L 537.329545 432.952676 
L 545.339114 432.799866 
L 553.348683 421.041448 
L 561.358253 397.373899 
L 569.367822 378.247998 
L 577.377392 374.77108 
L 585.386961 374.622394 
L 593.39653 374.119259 
L 601.4061 365.073169 
L 609.415669 359.155116 
L 617.425238 357.480459 
L 625.434808 367.824118 
L 633.444377 384.233551 
L 641.453947 392.306608 
L 649.463516 389.778849 
L 657.473085 378.318386 
L 665.482655 363.188425 
L 673.492224 342.566744 
L 681.501794 332.110481 
L 689.511363 332.065951 
L 697.520932 334.006379 
L 705.530502 340.561131 
L 713.540071 347.748267 
L 721.54964 353.643837 
L 729.55921 365.603841 
L 737.568779 365.814746 
L 745.578349 364.946835 
L 753.587918 378.482499 
L 761.597487 396.034854 
L 769.607057 398.309754 
L 777.616626 396.802673 
L 785.626195 397.781727 
L 793.635765 401.570094 
L 801.645334 405.452029 
L 809.654904 407.60632 
L 817.664473 405.297714 
L 825.674042 404.679878 
L 833.683612 406.460283 
L 841.693181 414.296612 
L 849.70275 420.354102 
L 857.71232 421.777587 
L 865.721889 430.395621 
" style="fill:none;stroke:#6aaed6;stroke-linecap:round;stroke-width:1.5;"/>
   </g>
   <g id="line2d_15"/>
   <g id="line2d_16"/>
   <g id="line2d_17">
    <path clip-path="url(#pacc38b069b)" d="M 104.812798 395.708996 
L 112.822368 390.162149 
L 120.831937 379.579151 
L 128.841506 366.837547 
L 136.851076 360.160637 
L 144.860645 364.471098 
L 152.870215 358.879565 
L 160.879784 353.614725 
L 168.889353 358.321816 
L 176.898923 363.332839 
L 184.908492 365.875442 
L 192.918061 374.929206 
L 200.927631 392.312942 
L 208.9372 407.579783 
L 216.94677 408.54415 
L 224.956339 405.993943 
L 232.965908 408.588559 
L 240.975478 409.066331 
L 248.985047 413.984709 
L 256.994616 428.522954 
L 265.004186 452.939511 
L 273.013755 473.107276 
L 281.023325 483.433082 
L 289.032894 483.078963 
L 297.042463 473.354097 
L 305.052033 466.894148 
L 313.061602 465.150025 
L 321.071172 442.55555 
L 329.080741 400.271099 
L 337.09031 366.736532 
L 345.09988 371.832718 
L 353.109449 385.895191 
L 361.119018 391.696864 
L 369.128588 362.606679 
L 377.138157 339.376288 
L 385.147727 336.106412 
L 393.157296 349.941241 
L 401.166865 365.751561 
L 409.176435 366.69898 
L 417.186004 375.580766 
L 425.195573 382.113088 
L 433.205143 380.311123 
L 441.214712 384.313649 
L 449.224282 383.339276 
L 457.233851 371.843193 
L 465.24342 365.287014 
L 473.25299 377.314153 
L 481.262559 390.752648 
L 489.272128 391.789996 
L 497.281698 395.120446 
L 505.291267 411.071022 
L 513.300837 424.367557 
L 521.310406 433.956483 
L 529.319975 452.368415 
L 537.329545 462.422324 
L 545.339114 452.69697 
L 553.348683 448.315807 
L 561.358253 458.764849 
L 569.367822 480.732579 
L 577.377392 466.844449 
L 585.386961 451.193874 
L 593.39653 437.872246 
L 601.4061 444.467283 
L 609.415669 457.45898 
L 617.425238 451.969645 
L 625.434808 429.460976 
L 633.444377 409.754642 
L 641.453947 390.374898 
L 649.463516 365.548348 
L 657.473085 349.661827 
L 665.482655 345.962293 
L 673.492224 354.565797 
L 681.501794 353.214232 
L 689.511363 343.239151 
L 697.520932 331.758103 
L 705.530502 340.192152 
L 713.540071 352.636593 
L 721.54964 354.895414 
L 729.55921 370.242458 
L 737.568779 401.418615 
L 745.578349 420.097414 
L 753.587918 414.915701 
L 761.597487 400.919596 
L 769.607057 398.392306 
L 777.616626 403.902802 
L 785.626195 411.358197 
L 793.635765 401.839224 
L 801.645334 383.204764 
L 809.654904 388.537226 
L 817.664473 407.601082 
L 825.674042 423.04399 
L 833.683612 427.65861 
L 841.693181 434.369 
L 849.70275 445.512845 
L 857.71232 456.258389 
L 865.721889 456.772739 
" style="fill:none;stroke:#959595;stroke-linecap:round;stroke-width:1.5;"/>
   </g>
   <g id="line2d_18"/>
   <g id="line2d_19"/>
   <g id="line2d_20">
    <path clip-path="url(#pacc38b069b)" d="M 104.812798 463.719201 
L 112.822368 441.322897 
L 120.831937 411.579747 
L 128.841506 433.163019 
L 136.851076 485.28103 
L 144.860645 523.004831 
L 152.870215 527.461473 
L 160.879784 553.271314 
L 168.889353 572.380972 
L 176.898923 567.406369 
L 184.908492 573.944625 
L 192.918061 608.674736 
L 200.927631 620.242322 
L 208.9372 542.41943 
L 216.94677 475.696915 
L 224.956339 471.303884 
L 232.965908 458.392307 
L 240.975478 439.08501 
L 248.985047 451.656885 
L 256.994616 501.173772 
L 265.004186 544.158855 
L 273.013755 525.482962 
L 281.023325 487.084118 
L 289.032894 430.497974 
L 297.042463 422.973784 
L 305.052033 496.704602 
L 313.061602 481.889797 
L 321.071172 310.719633 
L 329.080741 148.350505 
L 337.09031 148.290627 
L 345.09988 227.102282 
L 353.109449 298.761839 
L 361.119018 242.04537 
L 369.128588 127.214127 
L 377.138157 120.514108 
L 385.147727 195.97859 
L 393.157296 310.614537 
L 401.166865 389.552814 
L 409.176435 441.09928 
L 417.186004 492.459683 
L 425.195573 443.940817 
L 433.205143 392.536712 
L 441.214712 349.162799 
L 449.224282 307.497602 
L 457.233851 305.371206 
L 465.24342 372.463039 
L 473.25299 430.956387 
L 481.262559 423.255861 
L 489.272128 399.199424 
L 497.281698 409.836042 
L 505.291267 416.234249 
L 513.300837 400.857296 
L 521.310406 391.034973 
L 529.319975 368.400506 
L 537.329545 256.575236 
L 545.339114 157.365778 
L 553.348683 142.087731 
L 561.358253 207.966018 
L 569.367822 176.061039 
L 577.377392 78.333317 
L 585.386961 39.96 
L 593.39653 110.468308 
L 601.4061 224.821622 
L 609.415669 248.559664 
L 617.425238 187.748659 
L 625.434808 127.087879 
L 633.444377 100.611469 
L 641.453947 48.090656 
L 649.463516 41.06718 
L 657.473085 99.302642 
L 665.482655 206.233293 
L 673.492224 235.229562 
L 681.501794 148.21768 
L 689.511363 68.154274 
L 697.520932 97.049094 
L 705.530502 151.919302 
L 713.540071 136.367497 
L 721.54964 187.689407 
L 729.55921 318.07611 
L 737.568779 412.533654 
L 745.578349 385.4997 
L 753.587918 280.178226 
L 761.597487 265.647968 
L 769.607057 400.12092 
L 777.616626 484.614775 
L 785.626195 429.824336 
L 793.635765 337.45401 
L 801.645334 427.823127 
L 809.654904 608.133814 
L 817.664473 638.950546 
L 825.674042 613.887563 
L 833.683612 637.923604 
L 841.693181 675.908887 
L 849.70275 695.16 
L 857.71232 670.483363 
L 865.721889 657.090424 
" style="fill:none;stroke:#fd8c3b;stroke-linecap:round;stroke-width:1.5;"/>
   </g>
   <g id="line2d_21"/>
   <g id="line2d_22"/>
   <g id="line2d_23">
    <path clip-path="url(#pacc38b069b)" d="M 104.812798 418.486194 
L 112.822368 387.956973 
L 120.831937 378.883388 
L 128.841506 371.687527 
L 136.851076 364.7137 
L 144.860645 392.039354 
L 152.870215 400.21473 
L 160.879784 346.25307 
L 168.889353 367.638343 
L 176.898923 392.321841 
L 184.908492 376.799209 
L 192.918061 336.107609 
L 200.927631 324.783647 
L 208.9372 346.344715 
L 216.94677 377.104653 
L 224.956339 366.909421 
L 232.965908 371.896235 
L 240.975478 362.904976 
L 248.985047 371.167219 
L 256.994616 342.061252 
L 265.004186 328.664016 
L 273.013755 362.285533 
L 281.023325 405.259252 
L 289.032894 459.274653 
L 297.042463 480.420015 
L 305.052033 442.889334 
L 313.061602 420.609139 
L 321.071172 450.997416 
L 329.080741 471.165865 
L 337.09031 481.111146 
L 345.09988 455.876637 
L 353.109449 371.746183 
L 361.119018 341.520904 
L 369.128588 388.25003 
L 377.138157 386.478788 
L 385.147727 389.026023 
L 393.157296 335.902216 
L 401.166865 277.253088 
L 409.176435 227.893627 
L 417.186004 197.87367 
L 425.195573 240.296027 
L 433.205143 283.052873 
L 441.214712 328.819754 
L 449.224282 355.642438 
L 457.233851 345.704448 
L 465.24342 338.809203 
L 473.25299 323.34169 
L 481.262559 330.808466 
L 489.272128 352.367033 
L 497.281698 356.559404 
L 505.291267 352.248199 
L 513.300837 330.666967 
L 521.310406 308.581726 
L 529.319975 302.210923 
L 537.329545 306.308618 
L 545.339114 318.06265 
L 553.348683 343.134234 
L 561.358253 286.676093 
L 569.367822 234.691581 
L 577.377392 283.014485 
L 585.386961 355.295333 
L 593.39653 378.457208 
L 601.4061 372.364373 
L 609.415669 416.066745 
L 617.425238 495.603564 
L 625.434808 557.876625 
L 633.444377 617.238634 
L 641.453947 650.758915 
L 649.463516 663.986835 
L 657.473085 637.05122 
L 665.482655 546.887531 
L 673.492224 516.659487 
L 681.501794 568.458004 
L 689.511363 633.585526 
L 697.520932 606.214529 
L 705.530502 557.73355 
L 713.540071 582.281348 
L 721.54964 624.168456 
L 729.55921 574.11575 
L 737.568779 469.834851 
L 745.578349 431.854971 
L 753.587918 502.465529 
L 761.597487 562.888518 
L 769.607057 481.97381 
L 777.616626 317.172213 
L 785.626195 274.129436 
L 793.635765 321.576216 
L 801.645334 358.954565 
L 809.654904 210.384584 
L 817.664473 207.156924 
L 825.674042 273.513036 
L 833.683612 227.784503 
L 841.693181 238.631254 
L 849.70275 225.979719 
L 857.71232 147.805059 
L 865.721889 85.951398 
" style="fill:none;stroke:#9e9ac8;stroke-linecap:round;stroke-width:1.5;"/>
   </g>
   <g id="line2d_24"/>
   <g id="line2d_25"/>
   <g id="line2d_26">
    <path clip-path="url(#pacc38b069b)" d="M 104.812798 399.902457 
L 112.822368 421.616363 
L 120.831937 491.908537 
L 128.841506 467.280015 
L 136.851076 449.950158 
L 144.860645 476.882758 
L 152.870215 452.453081 
L 160.879784 388.63903 
L 168.889353 382.842679 
L 176.898923 370.554367 
L 184.908492 357.591706 
L 192.918061 343.441869 
L 200.927631 336.774495 
L 208.9372 344.703843 
L 216.94677 380.958327 
L 224.956339 387.880508 
L 232.965908 364.512479 
L 240.975478 383.801348 
L 248.985047 417.997294 
L 256.994616 408.584656 
L 265.004186 411.011251 
L 273.013755 448.249577 
L 281.023325 462.031084 
L 289.032894 435.737245 
L 297.042463 375.674421 
L 305.052033 279.262034 
L 313.061602 226.457665 
L 321.071172 199.704817 
L 329.080741 256.271556 
L 337.09031 321.14199 
L 345.09988 316.078893 
L 353.109449 319.582487 
L 361.119018 360.163195 
L 369.128588 346.272138 
L 377.138157 320.17081 
L 385.147727 329.035474 
L 393.157296 368.322239 
L 401.166865 375.653648 
L 409.176435 384.590268 
L 417.186004 384.326827 
L 425.195573 356.912713 
L 433.205143 345.599901 
L 441.214712 391.607835 
L 449.224282 412.826396 
L 457.233851 391.110761 
L 465.24342 414.713083 
L 473.25299 440.331262 
L 481.262559 452.094234 
L 489.272128 451.498263 
L 497.281698 480.582979 
L 505.291267 525.441129 
L 513.300837 532.236873 
L 521.310406 551.62544 
L 529.319975 559.081183 
L 537.329545 520.536785 
L 545.339114 527.267543 
L 553.348683 564.270223 
L 561.358253 551.956623 
L 569.367822 503.398434 
L 577.377392 491.706516 
L 585.386961 498.052234 
L 593.39653 488.804731 
L 601.4061 446.689278 
L 609.415669 421.377094 
L 617.425238 400.247418 
L 625.434808 340.425557 
L 633.444377 293.619592 
L 641.453947 296.007227 
L 649.463516 315.954856 
L 657.473085 320.192405 
L 665.482655 293.79143 
L 673.492224 277.092169 
L 681.501794 274.011072 
L 689.511363 277.029046 
L 697.520932 263.289655 
L 705.530502 265.557316 
L 713.540071 313.565429 
L 721.54964 354.529415 
L 729.55921 380.99538 
L 737.568779 425.503775 
L 745.578349 477.946992 
L 753.587918 473.041247 
L 761.597487 509.264335 
L 769.607057 531.081108 
L 777.616626 569.786217 
L 785.626195 644.63335 
L 793.635765 642.443351 
L 801.645334 594.428626 
L 809.654904 562.320642 
L 817.664473 509.359129 
L 825.674042 402.212402 
L 833.683612 353.254359 
L 841.693181 363.473999 
L 849.70275 383.427967 
L 857.71232 318.034765 
L 865.721889 244.361685 
" style="fill:none;stroke:#73c476;stroke-linecap:round;stroke-width:1.5;"/>
   </g>
   <g id="line2d_27"/>
   <g id="line2d_28"/>
   <g id="patch_3">
    <path d="M 66.767344 727.92 
L 66.767344 7.2 
" style="fill:none;stroke:#ffffff;stroke-linecap:square;stroke-linejoin:miter;stroke-width:1.25;"/>
   </g>
   <g id="patch_4">
    <path d="M 903.767344 727.92 
L 903.767344 7.2 
" style="fill:none;stroke:#ffffff;stroke-linecap:square;stroke-linejoin:miter;stroke-width:1.25;"/>
   </g>
   <g id="patch_5">
    <path d="M 66.767344 727.92 
L 903.767344 727.92 
" style="fill:none;stroke:#ffffff;stroke-linecap:square;stroke-linejoin:miter;stroke-width:1.25;"/>
   </g>
   <g id="patch_6">
    <path d="M 66.767344 7.2 
L 903.767344 7.2 
" style="fill:none;stroke:#ffffff;stroke-linecap:square;stroke-linejoin:miter;stroke-width:1.25;"/>
   </g>
   <g id="legend_1">
    <g id="patch_7">
     <path d="M 74.467344 211.586875 
L 147.373281 211.586875 
Q 149.573281 211.586875 149.573281 209.386875 
L 149.573281 14.9 
Q 149.573281 12.7 147.373281 12.7 
L 74.467344 12.7 
Q 72.267344 12.7 72.267344 14.9 
L 72.267344 209.386875 
Q 72.267344 211.586875 74.467344 211.586875 
z
" style="fill:#eaeaf2;opacity:0.8;stroke:#cccccc;stroke-linejoin:miter;"/>
    </g>
    <g id="line2d_29">
     <path d="M 76.667344 21.608281 
L 98.667344 21.608281 
" style="fill:none;"/>
    </g>
    <g id="line2d_30"/>
    <g id="text_13">
     <!-- Sensor -->
     <g style="fill:#262626;" transform="translate(107.467344 25.458281)scale(0.11 -0.11)">
      <use xlink:href="#DejaVuSans-83"/>
      <use x="63.476562" xlink:href="#DejaVuSans-101"/>
      <use x="125" xlink:href="#DejaVuSans-110"/>
      <use x="188.378906" xlink:href="#DejaVuSans-115"/>
      <use x="240.478516" xlink:href="#DejaVuSans-111"/>
      <use x="301.660156" xlink:href="#DejaVuSans-114"/>
     </g>
    </g>
    <g id="line2d_31">
     <path d="M 76.667344 37.754219 
L 98.667344 37.754219 
" style="fill:none;stroke:#fb694a;stroke-linecap:round;stroke-width:1.5;"/>
    </g>
    <g id="line2d_32"/>
    <g id="text_14">
     <!-- acc_x -->
     <defs>
      <path d="M 48.78125 52.59375 
L 48.78125 44.1875 
Q 44.96875 46.296875 41.140625 47.34375 
Q 37.3125 48.390625 33.40625 48.390625 
Q 24.65625 48.390625 19.8125 42.84375 
Q 14.984375 37.3125 14.984375 27.296875 
Q 14.984375 17.28125 19.8125 11.734375 
Q 24.65625 6.203125 33.40625 6.203125 
Q 37.3125 6.203125 41.140625 7.25 
Q 44.96875 8.296875 48.78125 10.40625 
L 48.78125 2.09375 
Q 45.015625 0.34375 40.984375 -0.53125 
Q 36.96875 -1.421875 32.421875 -1.421875 
Q 20.0625 -1.421875 12.78125 6.34375 
Q 5.515625 14.109375 5.515625 27.296875 
Q 5.515625 40.671875 12.859375 48.328125 
Q 20.21875 56 33.015625 56 
Q 37.15625 56 41.109375 55.140625 
Q 45.0625 54.296875 48.78125 52.59375 
z
" id="DejaVuSans-99"/>
      <path d="M 50.984375 -16.609375 
L 50.984375 -23.578125 
L -0.984375 -23.578125 
L -0.984375 -16.609375 
z
" id="DejaVuSans-95"/>
     </defs>
     <g style="fill:#262626;" transform="translate(107.467344 41.604219)scale(0.11 -0.11)">
      <use xlink:href="#DejaVuSans-97"/>
      <use x="61.279297" xlink:href="#DejaVuSans-99"/>
      <use x="116.259766" xlink:href="#DejaVuSans-99"/>
      <use x="171.240234" xlink:href="#DejaVuSans-95"/>
      <use x="221.240234" xlink:href="#DejaVuSans-120"/>
     </g>
    </g>
    <g id="line2d_33">
     <path d="M 76.667344 54.206094 
L 98.667344 54.206094 
" style="fill:none;"/>
    </g>
    <g id="line2d_34"/>
    <g id="text_15">
     <!-- Sensor -->
     <g style="fill:#262626;" transform="translate(107.467344 58.056094)scale(0.11 -0.11)">
      <use xlink:href="#DejaVuSans-83"/>
      <use x="63.476562" xlink:href="#DejaVuSans-101"/>
      <use x="125" xlink:href="#DejaVuSans-110"/>
      <use x="188.378906" xlink:href="#DejaVuSans-115"/>
      <use x="240.478516" xlink:href="#DejaVuSans-111"/>
      <use x="301.660156" xlink:href="#DejaVuSans-114"/>
     </g>
    </g>
    <g id="line2d_35">
     <path d="M 76.667344 70.352031 
L 98.667344 70.352031 
" style="fill:none;stroke:#6aaed6;stroke-linecap:round;stroke-width:1.5;"/>
    </g>
    <g id="line2d_36"/>
    <g id="text_16">
     <!-- acc_y -->
     <defs>
      <path d="M 32.171875 -5.078125 
Q 28.375 -14.84375 24.75 -17.8125 
Q 21.140625 -20.796875 15.09375 -20.796875 
L 7.90625 -20.796875 
L 7.90625 -13.28125 
L 13.1875 -13.28125 
Q 16.890625 -13.28125 18.9375 -11.515625 
Q 21 -9.765625 23.484375 -3.21875 
L 25.09375 0.875 
L 2.984375 54.6875 
L 12.5 54.6875 
L 29.59375 11.921875 
L 46.6875 54.6875 
L 56.203125 54.6875 
z
" id="DejaVuSans-121"/>
     </defs>
     <g style="fill:#262626;" transform="translate(107.467344 74.202031)scale(0.11 -0.11)">
      <use xlink:href="#DejaVuSans-97"/>
      <use x="61.279297" xlink:href="#DejaVuSans-99"/>
      <use x="116.259766" xlink:href="#DejaVuSans-99"/>
      <use x="171.240234" xlink:href="#DejaVuSans-95"/>
      <use x="221.240234" xlink:href="#DejaVuSans-121"/>
     </g>
    </g>
    <g id="line2d_37">
     <path d="M 76.667344 86.803906 
L 98.667344 86.803906 
" style="fill:none;"/>
    </g>
    <g id="line2d_38"/>
    <g id="text_17">
     <!-- Sensor -->
     <g style="fill:#262626;" transform="translate(107.467344 90.653906)scale(0.11 -0.11)">
      <use xlink:href="#DejaVuSans-83"/>
      <use x="63.476562" xlink:href="#DejaVuSans-101"/>
      <use x="125" xlink:href="#DejaVuSans-110"/>
      <use x="188.378906" xlink:href="#DejaVuSans-115"/>
      <use x="240.478516" xlink:href="#DejaVuSans-111"/>
      <use x="301.660156" xlink:href="#DejaVuSans-114"/>
     </g>
    </g>
    <g id="line2d_39">
     <path d="M 76.667344 102.949844 
L 98.667344 102.949844 
" style="fill:none;stroke:#959595;stroke-linecap:round;stroke-width:1.5;"/>
    </g>
    <g id="line2d_40"/>
    <g id="text_18">
     <!-- acc_z -->
     <defs>
      <path d="M 5.515625 54.6875 
L 48.1875 54.6875 
L 48.1875 46.484375 
L 14.40625 7.171875 
L 48.1875 7.171875 
L 48.1875 0 
L 4.296875 0 
L 4.296875 8.203125 
L 38.09375 47.515625 
L 5.515625 47.515625 
z
" id="DejaVuSans-122"/>
     </defs>
     <g style="fill:#262626;" transform="translate(107.467344 106.799844)scale(0.11 -0.11)">
      <use xlink:href="#DejaVuSans-97"/>
      <use x="61.279297" xlink:href="#DejaVuSans-99"/>
      <use x="116.259766" xlink:href="#DejaVuSans-99"/>
      <use x="171.240234" xlink:href="#DejaVuSans-95"/>
      <use x="221.240234" xlink:href="#DejaVuSans-122"/>
     </g>
    </g>
    <g id="line2d_41">
     <path d="M 76.667344 119.401719 
L 98.667344 119.401719 
" style="fill:none;"/>
    </g>
    <g id="line2d_42"/>
    <g id="text_19">
     <!-- Sensor -->
     <g style="fill:#262626;" transform="translate(107.467344 123.251719)scale(0.11 -0.11)">
      <use xlink:href="#DejaVuSans-83"/>
      <use x="63.476562" xlink:href="#DejaVuSans-101"/>
      <use x="125" xlink:href="#DejaVuSans-110"/>
      <use x="188.378906" xlink:href="#DejaVuSans-115"/>
      <use x="240.478516" xlink:href="#DejaVuSans-111"/>
      <use x="301.660156" xlink:href="#DejaVuSans-114"/>
     </g>
    </g>
    <g id="line2d_43">
     <path d="M 76.667344 135.547656 
L 98.667344 135.547656 
" style="fill:none;stroke:#fd8c3b;stroke-linecap:round;stroke-width:1.5;"/>
    </g>
    <g id="line2d_44"/>
    <g id="text_20">
     <!-- gy_x -->
     <g style="fill:#262626;" transform="translate(107.467344 139.397656)scale(0.11 -0.11)">
      <use xlink:href="#DejaVuSans-103"/>
      <use x="63.476562" xlink:href="#DejaVuSans-121"/>
      <use x="122.65625" xlink:href="#DejaVuSans-95"/>
      <use x="172.65625" xlink:href="#DejaVuSans-120"/>
     </g>
    </g>
    <g id="line2d_45">
     <path d="M 76.667344 151.999531 
L 98.667344 151.999531 
" style="fill:none;"/>
    </g>
    <g id="line2d_46"/>
    <g id="text_21">
     <!-- Sensor -->
     <g style="fill:#262626;" transform="translate(107.467344 155.849531)scale(0.11 -0.11)">
      <use xlink:href="#DejaVuSans-83"/>
      <use x="63.476562" xlink:href="#DejaVuSans-101"/>
      <use x="125" xlink:href="#DejaVuSans-110"/>
      <use x="188.378906" xlink:href="#DejaVuSans-115"/>
      <use x="240.478516" xlink:href="#DejaVuSans-111"/>
      <use x="301.660156" xlink:href="#DejaVuSans-114"/>
     </g>
    </g>
    <g id="line2d_47">
     <path d="M 76.667344 168.145469 
L 98.667344 168.145469 
" style="fill:none;stroke:#9e9ac8;stroke-linecap:round;stroke-width:1.5;"/>
    </g>
    <g id="line2d_48"/>
    <g id="text_22">
     <!-- gy_y -->
     <g style="fill:#262626;" transform="translate(107.467344 171.995469)scale(0.11 -0.11)">
      <use xlink:href="#DejaVuSans-103"/>
      <use x="63.476562" xlink:href="#DejaVuSans-121"/>
      <use x="122.65625" xlink:href="#DejaVuSans-95"/>
      <use x="172.65625" xlink:href="#DejaVuSans-121"/>
     </g>
    </g>
    <g id="line2d_49">
     <path d="M 76.667344 184.597344 
L 98.667344 184.597344 
" style="fill:none;"/>
    </g>
    <g id="line2d_50"/>
    <g id="text_23">
     <!-- Sensor -->
     <g style="fill:#262626;" transform="translate(107.467344 188.447344)scale(0.11 -0.11)">
      <use xlink:href="#DejaVuSans-83"/>
      <use x="63.476562" xlink:href="#DejaVuSans-101"/>
      <use x="125" xlink:href="#DejaVuSans-110"/>
      <use x="188.378906" xlink:href="#DejaVuSans-115"/>
      <use x="240.478516" xlink:href="#DejaVuSans-111"/>
      <use x="301.660156" xlink:href="#DejaVuSans-114"/>
     </g>
    </g>
    <g id="line2d_51">
     <path d="M 76.667344 200.743281 
L 98.667344 200.743281 
" style="fill:none;stroke:#73c476;stroke-linecap:round;stroke-width:1.5;"/>
    </g>
    <g id="line2d_52"/>
    <g id="text_24">
     <!-- gy_z -->
     <g style="fill:#262626;" transform="translate(107.467344 204.593281)scale(0.11 -0.11)">
      <use xlink:href="#DejaVuSans-103"/>
      <use x="63.476562" xlink:href="#DejaVuSans-121"/>
      <use x="122.65625" xlink:href="#DejaVuSans-95"/>
      <use x="172.65625" xlink:href="#DejaVuSans-122"/>
     </g>
    </g>
   </g>
  </g>
 </g>
 <defs>
  <clipPath id="pacc38b069b">
   <rect height="720.72" width="837" x="66.767344" y="7.2"/>
  </clipPath>
 </defs>
</svg>
