<?xml version="1.0" encoding="utf-8" standalone="no"?>
<!DOCTYPE svg PUBLIC "-//W3C//DTD SVG 1.1//EN"
  "http://www.w3.org/Graphics/SVG/1.1/DTD/svg11.dtd">
<!-- Created with matplotlib (https://matplotlib.org/) -->
<svg height="788.300312pt" version="1.1" viewBox="0 0 910.967344 788.300312" width="910.967344pt" xmlns="http://www.w3.org/2000/svg" xmlns:xlink="http://www.w3.org/1999/xlink">
 <defs>
  <style type="text/css">
*{stroke-linecap:butt;stroke-linejoin:round;}
  </style>
 </defs>
 <g id="figure_1">
  <g id="patch_1">
   <path d="M 0 788.300312 
L 910.967344 788.300312 
L 910.967344 0 
L 0 0 
z
" style="fill:#ffffff;"/>
  </g>
  <g id="axes_1">
   <g id="patch_2">
    <path d="M 66.767344 727.92 
L 903.767344 727.92 
L 903.767344 7.2 
L 66.767344 7.2 
z
" style="fill:#eaeaf2;"/>
   </g>
   <g id="matplotlib.axis_1">
    <g id="xtick_1">
     <g id="line2d_1">
      <path clip-path="url(#p74f2b10143)" d="M 104.812798 727.92 
L 104.812798 7.2 
" style="fill:none;stroke:#ffffff;stroke-linecap:round;"/>
     </g>
     <g id="text_1">
      <!-- 0 -->
      <defs>
       <path d="M 31.78125 66.40625 
Q 24.171875 66.40625 20.328125 58.90625 
Q 16.5 51.421875 16.5 36.375 
Q 16.5 21.390625 20.328125 13.890625 
Q 24.171875 6.390625 31.78125 6.390625 
Q 39.453125 6.390625 43.28125 13.890625 
Q 47.125 21.390625 47.125 36.375 
Q 47.125 51.421875 43.28125 58.90625 
Q 39.453125 66.40625 31.78125 66.40625 
z
M 31.78125 74.21875 
Q 44.046875 74.21875 50.515625 64.515625 
Q 56.984375 54.828125 56.984375 36.375 
Q 56.984375 17.96875 50.515625 8.265625 
Q 44.046875 -1.421875 31.78125 -1.421875 
Q 19.53125 -1.421875 13.0625 8.265625 
Q 6.59375 17.96875 6.59375 36.375 
Q 6.59375 54.828125 13.0625 64.515625 
Q 19.53125 74.21875 31.78125 74.21875 
z
" id="DejaVuSans-48"/>
      </defs>
      <g style="fill:#262626;" transform="translate(101.313423 745.778281)scale(0.11 -0.11)">
       <use xlink:href="#DejaVuSans-48"/>
      </g>
     </g>
    </g>
    <g id="xtick_2">
     <g id="line2d_2">
      <path clip-path="url(#p74f2b10143)" d="M 261.701271 727.92 
L 261.701271 7.2 
" style="fill:none;stroke:#ffffff;stroke-linecap:round;"/>
     </g>
     <g id="text_2">
      <!-- 20 -->
      <defs>
       <path d="M 19.1875 8.296875 
L 53.609375 8.296875 
L 53.609375 0 
L 7.328125 0 
L 7.328125 8.296875 
Q 12.9375 14.109375 22.625 23.890625 
Q 32.328125 33.6875 34.8125 36.53125 
Q 39.546875 41.84375 41.421875 45.53125 
Q 43.3125 49.21875 43.3125 52.78125 
Q 43.3125 58.59375 39.234375 62.25 
Q 35.15625 65.921875 28.609375 65.921875 
Q 23.96875 65.921875 18.8125 64.3125 
Q 13.671875 62.703125 7.8125 59.421875 
L 7.8125 69.390625 
Q 13.765625 71.78125 18.9375 73 
Q 24.125 74.21875 28.421875 74.21875 
Q 39.75 74.21875 46.484375 68.546875 
Q 53.21875 62.890625 53.21875 53.421875 
Q 53.21875 48.921875 51.53125 44.890625 
Q 49.859375 40.875 45.40625 35.40625 
Q 44.1875 33.984375 37.640625 27.21875 
Q 31.109375 20.453125 19.1875 8.296875 
z
" id="DejaVuSans-50"/>
      </defs>
      <g style="fill:#262626;" transform="translate(254.702521 745.778281)scale(0.11 -0.11)">
       <use xlink:href="#DejaVuSans-50"/>
       <use x="63.623047" xlink:href="#DejaVuSans-48"/>
      </g>
     </g>
    </g>
    <g id="xtick_3">
     <g id="line2d_3">
      <path clip-path="url(#p74f2b10143)" d="M 418.589743 727.92 
L 418.589743 7.2 
" style="fill:none;stroke:#ffffff;stroke-linecap:round;"/>
     </g>
     <g id="text_3">
      <!-- 40 -->
      <defs>
       <path d="M 37.796875 64.3125 
L 12.890625 25.390625 
L 37.796875 25.390625 
z
M 35.203125 72.90625 
L 47.609375 72.90625 
L 47.609375 25.390625 
L 58.015625 25.390625 
L 58.015625 17.1875 
L 47.609375 17.1875 
L 47.609375 0 
L 37.796875 0 
L 37.796875 17.1875 
L 4.890625 17.1875 
L 4.890625 26.703125 
z
" id="DejaVuSans-52"/>
      </defs>
      <g style="fill:#262626;" transform="translate(411.590993 745.778281)scale(0.11 -0.11)">
       <use xlink:href="#DejaVuSans-52"/>
       <use x="63.623047" xlink:href="#DejaVuSans-48"/>
      </g>
     </g>
    </g>
    <g id="xtick_4">
     <g id="line2d_4">
      <path clip-path="url(#p74f2b10143)" d="M 575.478215 727.92 
L 575.478215 7.2 
" style="fill:none;stroke:#ffffff;stroke-linecap:round;"/>
     </g>
     <g id="text_4">
      <!-- 60 -->
      <defs>
       <path d="M 33.015625 40.375 
Q 26.375 40.375 22.484375 35.828125 
Q 18.609375 31.296875 18.609375 23.390625 
Q 18.609375 15.53125 22.484375 10.953125 
Q 26.375 6.390625 33.015625 6.390625 
Q 39.65625 6.390625 43.53125 10.953125 
Q 47.40625 15.53125 47.40625 23.390625 
Q 47.40625 31.296875 43.53125 35.828125 
Q 39.65625 40.375 33.015625 40.375 
z
M 52.59375 71.296875 
L 52.59375 62.3125 
Q 48.875 64.0625 45.09375 64.984375 
Q 41.3125 65.921875 37.59375 65.921875 
Q 27.828125 65.921875 22.671875 59.328125 
Q 17.53125 52.734375 16.796875 39.40625 
Q 19.671875 43.65625 24.015625 45.921875 
Q 28.375 48.1875 33.59375 48.1875 
Q 44.578125 48.1875 50.953125 41.515625 
Q 57.328125 34.859375 57.328125 23.390625 
Q 57.328125 12.15625 50.6875 5.359375 
Q 44.046875 -1.421875 33.015625 -1.421875 
Q 20.359375 -1.421875 13.671875 8.265625 
Q 6.984375 17.96875 6.984375 36.375 
Q 6.984375 53.65625 15.1875 63.9375 
Q 23.390625 74.21875 37.203125 74.21875 
Q 40.921875 74.21875 44.703125 73.484375 
Q 48.484375 72.75 52.59375 71.296875 
z
" id="DejaVuSans-54"/>
      </defs>
      <g style="fill:#262626;" transform="translate(568.479465 745.778281)scale(0.11 -0.11)">
       <use xlink:href="#DejaVuSans-54"/>
       <use x="63.623047" xlink:href="#DejaVuSans-48"/>
      </g>
     </g>
    </g>
    <g id="xtick_5">
     <g id="line2d_5">
      <path clip-path="url(#p74f2b10143)" d="M 732.366688 727.92 
L 732.366688 7.2 
" style="fill:none;stroke:#ffffff;stroke-linecap:round;"/>
     </g>
     <g id="text_5">
      <!-- 80 -->
      <defs>
       <path d="M 31.78125 34.625 
Q 24.75 34.625 20.71875 30.859375 
Q 16.703125 27.09375 16.703125 20.515625 
Q 16.703125 13.921875 20.71875 10.15625 
Q 24.75 6.390625 31.78125 6.390625 
Q 38.8125 6.390625 42.859375 10.171875 
Q 46.921875 13.96875 46.921875 20.515625 
Q 46.921875 27.09375 42.890625 30.859375 
Q 38.875 34.625 31.78125 34.625 
z
M 21.921875 38.8125 
Q 15.578125 40.375 12.03125 44.71875 
Q 8.5 49.078125 8.5 55.328125 
Q 8.5 64.0625 14.71875 69.140625 
Q 20.953125 74.21875 31.78125 74.21875 
Q 42.671875 74.21875 48.875 69.140625 
Q 55.078125 64.0625 55.078125 55.328125 
Q 55.078125 49.078125 51.53125 44.71875 
Q 48 40.375 41.703125 38.8125 
Q 48.828125 37.15625 52.796875 32.3125 
Q 56.78125 27.484375 56.78125 20.515625 
Q 56.78125 9.90625 50.3125 4.234375 
Q 43.84375 -1.421875 31.78125 -1.421875 
Q 19.734375 -1.421875 13.25 4.234375 
Q 6.78125 9.90625 6.78125 20.515625 
Q 6.78125 27.484375 10.78125 32.3125 
Q 14.796875 37.15625 21.921875 38.8125 
z
M 18.3125 54.390625 
Q 18.3125 48.734375 21.84375 45.5625 
Q 25.390625 42.390625 31.78125 42.390625 
Q 38.140625 42.390625 41.71875 45.5625 
Q 45.3125 48.734375 45.3125 54.390625 
Q 45.3125 60.0625 41.71875 63.234375 
Q 38.140625 66.40625 31.78125 66.40625 
Q 25.390625 66.40625 21.84375 63.234375 
Q 18.3125 60.0625 18.3125 54.390625 
z
" id="DejaVuSans-56"/>
      </defs>
      <g style="fill:#262626;" transform="translate(725.367938 745.778281)scale(0.11 -0.11)">
       <use xlink:href="#DejaVuSans-56"/>
       <use x="63.623047" xlink:href="#DejaVuSans-48"/>
      </g>
     </g>
    </g>
    <g id="xtick_6">
     <g id="line2d_6">
      <path clip-path="url(#p74f2b10143)" d="M 889.25516 727.92 
L 889.25516 7.2 
" style="fill:none;stroke:#ffffff;stroke-linecap:round;"/>
     </g>
     <g id="text_6">
      <!-- 100 -->
      <defs>
       <path d="M 12.40625 8.296875 
L 28.515625 8.296875 
L 28.515625 63.921875 
L 10.984375 60.40625 
L 10.984375 69.390625 
L 28.421875 72.90625 
L 38.28125 72.90625 
L 38.28125 8.296875 
L 54.390625 8.296875 
L 54.390625 0 
L 12.40625 0 
z
" id="DejaVuSans-49"/>
      </defs>
      <g style="fill:#262626;" transform="translate(878.757035 745.778281)scale(0.11 -0.11)">
       <use xlink:href="#DejaVuSans-49"/>
       <use x="63.623047" xlink:href="#DejaVuSans-48"/>
       <use x="127.246094" xlink:href="#DejaVuSans-48"/>
      </g>
     </g>
    </g>
    <g id="text_7">
     <!-- Sample Index -->
     <defs>
      <path d="M 53.515625 70.515625 
L 53.515625 60.890625 
Q 47.90625 63.578125 42.921875 64.890625 
Q 37.9375 66.21875 33.296875 66.21875 
Q 25.25 66.21875 20.875 63.09375 
Q 16.5 59.96875 16.5 54.203125 
Q 16.5 49.359375 19.40625 46.890625 
Q 22.3125 44.4375 30.421875 42.921875 
L 36.375 41.703125 
Q 47.40625 39.59375 52.65625 34.296875 
Q 57.90625 29 57.90625 20.125 
Q 57.90625 9.515625 50.796875 4.046875 
Q 43.703125 -1.421875 29.984375 -1.421875 
Q 24.8125 -1.421875 18.96875 -0.25 
Q 13.140625 0.921875 6.890625 3.21875 
L 6.890625 13.375 
Q 12.890625 10.015625 18.65625 8.296875 
Q 24.421875 6.59375 29.984375 6.59375 
Q 38.421875 6.59375 43.015625 9.90625 
Q 47.609375 13.234375 47.609375 19.390625 
Q 47.609375 24.75 44.3125 27.78125 
Q 41.015625 30.8125 33.5 32.328125 
L 27.484375 33.5 
Q 16.453125 35.6875 11.515625 40.375 
Q 6.59375 45.0625 6.59375 53.421875 
Q 6.59375 63.09375 13.40625 68.65625 
Q 20.21875 74.21875 32.171875 74.21875 
Q 37.3125 74.21875 42.625 73.28125 
Q 47.953125 72.359375 53.515625 70.515625 
z
" id="DejaVuSans-83"/>
      <path d="M 34.28125 27.484375 
Q 23.390625 27.484375 19.1875 25 
Q 14.984375 22.515625 14.984375 16.5 
Q 14.984375 11.71875 18.140625 8.90625 
Q 21.296875 6.109375 26.703125 6.109375 
Q 34.1875 6.109375 38.703125 11.40625 
Q 43.21875 16.703125 43.21875 25.484375 
L 43.21875 27.484375 
z
M 52.203125 31.203125 
L 52.203125 0 
L 43.21875 0 
L 43.21875 8.296875 
Q 40.140625 3.328125 35.546875 0.953125 
Q 30.953125 -1.421875 24.3125 -1.421875 
Q 15.921875 -1.421875 10.953125 3.296875 
Q 6 8.015625 6 15.921875 
Q 6 25.140625 12.171875 29.828125 
Q 18.359375 34.515625 30.609375 34.515625 
L 43.21875 34.515625 
L 43.21875 35.40625 
Q 43.21875 41.609375 39.140625 45 
Q 35.0625 48.390625 27.6875 48.390625 
Q 23 48.390625 18.546875 47.265625 
Q 14.109375 46.140625 10.015625 43.890625 
L 10.015625 52.203125 
Q 14.9375 54.109375 19.578125 55.046875 
Q 24.21875 56 28.609375 56 
Q 40.484375 56 46.34375 49.84375 
Q 52.203125 43.703125 52.203125 31.203125 
z
" id="DejaVuSans-97"/>
      <path d="M 52 44.1875 
Q 55.375 50.25 60.0625 53.125 
Q 64.75 56 71.09375 56 
Q 79.640625 56 84.28125 50.015625 
Q 88.921875 44.046875 88.921875 33.015625 
L 88.921875 0 
L 79.890625 0 
L 79.890625 32.71875 
Q 79.890625 40.578125 77.09375 44.375 
Q 74.3125 48.1875 68.609375 48.1875 
Q 61.625 48.1875 57.5625 43.546875 
Q 53.515625 38.921875 53.515625 30.90625 
L 53.515625 0 
L 44.484375 0 
L 44.484375 32.71875 
Q 44.484375 40.625 41.703125 44.40625 
Q 38.921875 48.1875 33.109375 48.1875 
Q 26.21875 48.1875 22.15625 43.53125 
Q 18.109375 38.875 18.109375 30.90625 
L 18.109375 0 
L 9.078125 0 
L 9.078125 54.6875 
L 18.109375 54.6875 
L 18.109375 46.1875 
Q 21.1875 51.21875 25.484375 53.609375 
Q 29.78125 56 35.6875 56 
Q 41.65625 56 45.828125 52.96875 
Q 50 49.953125 52 44.1875 
z
" id="DejaVuSans-109"/>
      <path d="M 18.109375 8.203125 
L 18.109375 -20.796875 
L 9.078125 -20.796875 
L 9.078125 54.6875 
L 18.109375 54.6875 
L 18.109375 46.390625 
Q 20.953125 51.265625 25.265625 53.625 
Q 29.59375 56 35.59375 56 
Q 45.5625 56 51.78125 48.09375 
Q 58.015625 40.1875 58.015625 27.296875 
Q 58.015625 14.40625 51.78125 6.484375 
Q 45.5625 -1.421875 35.59375 -1.421875 
Q 29.59375 -1.421875 25.265625 0.953125 
Q 20.953125 3.328125 18.109375 8.203125 
z
M 48.6875 27.296875 
Q 48.6875 37.203125 44.609375 42.84375 
Q 40.53125 48.484375 33.40625 48.484375 
Q 26.265625 48.484375 22.1875 42.84375 
Q 18.109375 37.203125 18.109375 27.296875 
Q 18.109375 17.390625 22.1875 11.75 
Q 26.265625 6.109375 33.40625 6.109375 
Q 40.53125 6.109375 44.609375 11.75 
Q 48.6875 17.390625 48.6875 27.296875 
z
" id="DejaVuSans-112"/>
      <path d="M 9.421875 75.984375 
L 18.40625 75.984375 
L 18.40625 0 
L 9.421875 0 
z
" id="DejaVuSans-108"/>
      <path d="M 56.203125 29.59375 
L 56.203125 25.203125 
L 14.890625 25.203125 
Q 15.484375 15.921875 20.484375 11.0625 
Q 25.484375 6.203125 34.421875 6.203125 
Q 39.59375 6.203125 44.453125 7.46875 
Q 49.3125 8.734375 54.109375 11.28125 
L 54.109375 2.78125 
Q 49.265625 0.734375 44.1875 -0.34375 
Q 39.109375 -1.421875 33.890625 -1.421875 
Q 20.796875 -1.421875 13.15625 6.1875 
Q 5.515625 13.8125 5.515625 26.8125 
Q 5.515625 40.234375 12.765625 48.109375 
Q 20.015625 56 32.328125 56 
Q 43.359375 56 49.78125 48.890625 
Q 56.203125 41.796875 56.203125 29.59375 
z
M 47.21875 32.234375 
Q 47.125 39.59375 43.09375 43.984375 
Q 39.0625 48.390625 32.421875 48.390625 
Q 24.90625 48.390625 20.390625 44.140625 
Q 15.875 39.890625 15.1875 32.171875 
z
" id="DejaVuSans-101"/>
      <path id="DejaVuSans-32"/>
      <path d="M 9.8125 72.90625 
L 19.671875 72.90625 
L 19.671875 0 
L 9.8125 0 
z
" id="DejaVuSans-73"/>
      <path d="M 54.890625 33.015625 
L 54.890625 0 
L 45.90625 0 
L 45.90625 32.71875 
Q 45.90625 40.484375 42.875 44.328125 
Q 39.84375 48.1875 33.796875 48.1875 
Q 26.515625 48.1875 22.3125 43.546875 
Q 18.109375 38.921875 18.109375 30.90625 
L 18.109375 0 
L 9.078125 0 
L 9.078125 54.6875 
L 18.109375 54.6875 
L 18.109375 46.1875 
Q 21.34375 51.125 25.703125 53.5625 
Q 30.078125 56 35.796875 56 
Q 45.21875 56 50.046875 50.171875 
Q 54.890625 44.34375 54.890625 33.015625 
z
" id="DejaVuSans-110"/>
      <path d="M 45.40625 46.390625 
L 45.40625 75.984375 
L 54.390625 75.984375 
L 54.390625 0 
L 45.40625 0 
L 45.40625 8.203125 
Q 42.578125 3.328125 38.25 0.953125 
Q 33.9375 -1.421875 27.875 -1.421875 
Q 17.96875 -1.421875 11.734375 6.484375 
Q 5.515625 14.40625 5.515625 27.296875 
Q 5.515625 40.1875 11.734375 48.09375 
Q 17.96875 56 27.875 56 
Q 33.9375 56 38.25 53.625 
Q 42.578125 51.265625 45.40625 46.390625 
z
M 14.796875 27.296875 
Q 14.796875 17.390625 18.875 11.75 
Q 22.953125 6.109375 30.078125 6.109375 
Q 37.203125 6.109375 41.296875 11.75 
Q 45.40625 17.390625 45.40625 27.296875 
Q 45.40625 37.203125 41.296875 42.84375 
Q 37.203125 48.484375 30.078125 48.484375 
Q 22.953125 48.484375 18.875 42.84375 
Q 14.796875 37.203125 14.796875 27.296875 
z
" id="DejaVuSans-100"/>
      <path d="M 54.890625 54.6875 
L 35.109375 28.078125 
L 55.90625 0 
L 45.3125 0 
L 29.390625 21.484375 
L 13.484375 0 
L 2.875 0 
L 24.125 28.609375 
L 4.6875 54.6875 
L 15.28125 54.6875 
L 29.78125 35.203125 
L 44.28125 54.6875 
z
" id="DejaVuSans-120"/>
     </defs>
     <g style="fill:#262626;" transform="translate(382.955625 774.86125)scale(0.3 -0.3)">
      <use xlink:href="#DejaVuSans-83"/>
      <use x="63.476562" xlink:href="#DejaVuSans-97"/>
      <use x="124.755859" xlink:href="#DejaVuSans-109"/>
      <use x="222.167969" xlink:href="#DejaVuSans-112"/>
      <use x="285.644531" xlink:href="#DejaVuSans-108"/>
      <use x="313.427734" xlink:href="#DejaVuSans-101"/>
      <use x="374.951172" xlink:href="#DejaVuSans-32"/>
      <use x="406.738281" xlink:href="#DejaVuSans-73"/>
      <use x="436.230469" xlink:href="#DejaVuSans-110"/>
      <use x="499.609375" xlink:href="#DejaVuSans-100"/>
      <use x="563.085938" xlink:href="#DejaVuSans-101"/>
      <use x="622.859375" xlink:href="#DejaVuSans-120"/>
     </g>
    </g>
   </g>
   <g id="matplotlib.axis_2">
    <g id="ytick_1">
     <g id="line2d_7">
      <path clip-path="url(#p74f2b10143)" d="M 66.767344 665.373429 
L 903.767344 665.373429 
" style="fill:none;stroke:#ffffff;stroke-linecap:round;"/>
     </g>
     <g id="text_8">
      <!-- −1.0 -->
      <defs>
       <path d="M 10.59375 35.5 
L 73.1875 35.5 
L 73.1875 27.203125 
L 10.59375 27.203125 
z
" id="DejaVuSans-8722"/>
       <path d="M 10.6875 12.40625 
L 21 12.40625 
L 21 0 
L 10.6875 0 
z
" id="DejaVuSans-46"/>
      </defs>
      <g style="fill:#262626;" transform="translate(30.55625 669.55257)scale(0.11 -0.11)">
       <use xlink:href="#DejaVuSans-8722"/>
       <use x="83.789062" xlink:href="#DejaVuSans-49"/>
       <use x="147.412109" xlink:href="#DejaVuSans-46"/>
       <use x="179.199219" xlink:href="#DejaVuSans-48"/>
      </g>
     </g>
    </g>
    <g id="ytick_2">
     <g id="line2d_8">
      <path clip-path="url(#p74f2b10143)" d="M 66.767344 523.954905 
L 903.767344 523.954905 
" style="fill:none;stroke:#ffffff;stroke-linecap:round;"/>
     </g>
     <g id="text_9">
      <!-- −0.5 -->
      <defs>
       <path d="M 10.796875 72.90625 
L 49.515625 72.90625 
L 49.515625 64.59375 
L 19.828125 64.59375 
L 19.828125 46.734375 
Q 21.96875 47.46875 24.109375 47.828125 
Q 26.265625 48.1875 28.421875 48.1875 
Q 40.625 48.1875 47.75 41.5 
Q 54.890625 34.8125 54.890625 23.390625 
Q 54.890625 11.625 47.5625 5.09375 
Q 40.234375 -1.421875 26.90625 -1.421875 
Q 22.3125 -1.421875 17.546875 -0.640625 
Q 12.796875 0.140625 7.71875 1.703125 
L 7.71875 11.625 
Q 12.109375 9.234375 16.796875 8.0625 
Q 21.484375 6.890625 26.703125 6.890625 
Q 35.15625 6.890625 40.078125 11.328125 
Q 45.015625 15.765625 45.015625 23.390625 
Q 45.015625 31 40.078125 35.4375 
Q 35.15625 39.890625 26.703125 39.890625 
Q 22.75 39.890625 18.8125 39.015625 
Q 14.890625 38.140625 10.796875 36.28125 
z
" id="DejaVuSans-53"/>
      </defs>
      <g style="fill:#262626;" transform="translate(30.55625 528.134045)scale(0.11 -0.11)">
       <use xlink:href="#DejaVuSans-8722"/>
       <use x="83.789062" xlink:href="#DejaVuSans-48"/>
       <use x="147.412109" xlink:href="#DejaVuSans-46"/>
       <use x="179.199219" xlink:href="#DejaVuSans-53"/>
      </g>
     </g>
    </g>
    <g id="ytick_3">
     <g id="line2d_9">
      <path clip-path="url(#p74f2b10143)" d="M 66.767344 382.53638 
L 903.767344 382.53638 
" style="fill:none;stroke:#ffffff;stroke-linecap:round;"/>
     </g>
     <g id="text_10">
      <!-- 0.0 -->
      <g style="fill:#262626;" transform="translate(39.773906 386.715521)scale(0.11 -0.11)">
       <use xlink:href="#DejaVuSans-48"/>
       <use x="63.623047" xlink:href="#DejaVuSans-46"/>
       <use x="95.410156" xlink:href="#DejaVuSans-48"/>
      </g>
     </g>
    </g>
    <g id="ytick_4">
     <g id="line2d_10">
      <path clip-path="url(#p74f2b10143)" d="M 66.767344 241.117856 
L 903.767344 241.117856 
" style="fill:none;stroke:#ffffff;stroke-linecap:round;"/>
     </g>
     <g id="text_11">
      <!-- 0.5 -->
      <g style="fill:#262626;" transform="translate(39.773906 245.296997)scale(0.11 -0.11)">
       <use xlink:href="#DejaVuSans-48"/>
       <use x="63.623047" xlink:href="#DejaVuSans-46"/>
       <use x="95.410156" xlink:href="#DejaVuSans-53"/>
      </g>
     </g>
    </g>
    <g id="ytick_5">
     <g id="line2d_11">
      <path clip-path="url(#p74f2b10143)" d="M 66.767344 99.699332 
L 903.767344 99.699332 
" style="fill:none;stroke:#ffffff;stroke-linecap:round;"/>
     </g>
     <g id="text_12">
      <!-- 1.0 -->
      <g style="fill:#262626;" transform="translate(39.773906 103.878472)scale(0.11 -0.11)">
       <use xlink:href="#DejaVuSans-49"/>
       <use x="63.623047" xlink:href="#DejaVuSans-46"/>
       <use x="95.410156" xlink:href="#DejaVuSans-48"/>
      </g>
     </g>
    </g>
    <g id="text_13">
     <!-- Sensor Reading -->
     <defs>
      <path d="M 44.28125 53.078125 
L 44.28125 44.578125 
Q 40.484375 46.53125 36.375 47.5 
Q 32.28125 48.484375 27.875 48.484375 
Q 21.1875 48.484375 17.84375 46.4375 
Q 14.5 44.390625 14.5 40.28125 
Q 14.5 37.15625 16.890625 35.375 
Q 19.28125 33.59375 26.515625 31.984375 
L 29.59375 31.296875 
Q 39.15625 29.25 43.1875 25.515625 
Q 47.21875 21.78125 47.21875 15.09375 
Q 47.21875 7.46875 41.1875 3.015625 
Q 35.15625 -1.421875 24.609375 -1.421875 
Q 20.21875 -1.421875 15.453125 -0.5625 
Q 10.6875 0.296875 5.421875 2 
L 5.421875 11.28125 
Q 10.40625 8.6875 15.234375 7.390625 
Q 20.0625 6.109375 24.8125 6.109375 
Q 31.15625 6.109375 34.5625 8.28125 
Q 37.984375 10.453125 37.984375 14.40625 
Q 37.984375 18.0625 35.515625 20.015625 
Q 33.0625 21.96875 24.703125 23.78125 
L 21.578125 24.515625 
Q 13.234375 26.265625 9.515625 29.90625 
Q 5.8125 33.546875 5.8125 39.890625 
Q 5.8125 47.609375 11.28125 51.796875 
Q 16.75 56 26.8125 56 
Q 31.78125 56 36.171875 55.265625 
Q 40.578125 54.546875 44.28125 53.078125 
z
" id="DejaVuSans-115"/>
      <path d="M 30.609375 48.390625 
Q 23.390625 48.390625 19.1875 42.75 
Q 14.984375 37.109375 14.984375 27.296875 
Q 14.984375 17.484375 19.15625 11.84375 
Q 23.34375 6.203125 30.609375 6.203125 
Q 37.796875 6.203125 41.984375 11.859375 
Q 46.1875 17.53125 46.1875 27.296875 
Q 46.1875 37.015625 41.984375 42.703125 
Q 37.796875 48.390625 30.609375 48.390625 
z
M 30.609375 56 
Q 42.328125 56 49.015625 48.375 
Q 55.71875 40.765625 55.71875 27.296875 
Q 55.71875 13.875 49.015625 6.21875 
Q 42.328125 -1.421875 30.609375 -1.421875 
Q 18.84375 -1.421875 12.171875 6.21875 
Q 5.515625 13.875 5.515625 27.296875 
Q 5.515625 40.765625 12.171875 48.375 
Q 18.84375 56 30.609375 56 
z
" id="DejaVuSans-111"/>
      <path d="M 41.109375 46.296875 
Q 39.59375 47.171875 37.8125 47.578125 
Q 36.03125 48 33.890625 48 
Q 26.265625 48 22.1875 43.046875 
Q 18.109375 38.09375 18.109375 28.8125 
L 18.109375 0 
L 9.078125 0 
L 9.078125 54.6875 
L 18.109375 54.6875 
L 18.109375 46.1875 
Q 20.953125 51.171875 25.484375 53.578125 
Q 30.03125 56 36.53125 56 
Q 37.453125 56 38.578125 55.875 
Q 39.703125 55.765625 41.0625 55.515625 
z
" id="DejaVuSans-114"/>
      <path d="M 44.390625 34.1875 
Q 47.5625 33.109375 50.5625 29.59375 
Q 53.5625 26.078125 56.59375 19.921875 
L 66.609375 0 
L 56 0 
L 46.6875 18.703125 
Q 43.0625 26.03125 39.671875 28.421875 
Q 36.28125 30.8125 30.421875 30.8125 
L 19.671875 30.8125 
L 19.671875 0 
L 9.8125 0 
L 9.8125 72.90625 
L 32.078125 72.90625 
Q 44.578125 72.90625 50.734375 67.671875 
Q 56.890625 62.453125 56.890625 51.90625 
Q 56.890625 45.015625 53.6875 40.46875 
Q 50.484375 35.9375 44.390625 34.1875 
z
M 19.671875 64.796875 
L 19.671875 38.921875 
L 32.078125 38.921875 
Q 39.203125 38.921875 42.84375 42.21875 
Q 46.484375 45.515625 46.484375 51.90625 
Q 46.484375 58.296875 42.84375 61.546875 
Q 39.203125 64.796875 32.078125 64.796875 
z
" id="DejaVuSans-82"/>
      <path d="M 9.421875 54.6875 
L 18.40625 54.6875 
L 18.40625 0 
L 9.421875 0 
z
M 9.421875 75.984375 
L 18.40625 75.984375 
L 18.40625 64.59375 
L 9.421875 64.59375 
z
" id="DejaVuSans-105"/>
      <path d="M 45.40625 27.984375 
Q 45.40625 37.75 41.375 43.109375 
Q 37.359375 48.484375 30.078125 48.484375 
Q 22.859375 48.484375 18.828125 43.109375 
Q 14.796875 37.75 14.796875 27.984375 
Q 14.796875 18.265625 18.828125 12.890625 
Q 22.859375 7.515625 30.078125 7.515625 
Q 37.359375 7.515625 41.375 12.890625 
Q 45.40625 18.265625 45.40625 27.984375 
z
M 54.390625 6.78125 
Q 54.390625 -7.171875 48.1875 -13.984375 
Q 42 -20.796875 29.203125 -20.796875 
Q 24.46875 -20.796875 20.265625 -20.09375 
Q 16.0625 -19.390625 12.109375 -17.921875 
L 12.109375 -9.1875 
Q 16.0625 -11.328125 19.921875 -12.34375 
Q 23.78125 -13.375 27.78125 -13.375 
Q 36.625 -13.375 41.015625 -8.765625 
Q 45.40625 -4.15625 45.40625 5.171875 
L 45.40625 9.625 
Q 42.625 4.78125 38.28125 2.390625 
Q 33.9375 0 27.875 0 
Q 17.828125 0 11.671875 7.65625 
Q 5.515625 15.328125 5.515625 27.984375 
Q 5.515625 40.671875 11.671875 48.328125 
Q 17.828125 56 27.875 56 
Q 33.9375 56 38.28125 53.609375 
Q 42.625 51.21875 45.40625 46.390625 
L 45.40625 54.6875 
L 54.390625 54.6875 
z
" id="DejaVuSans-103"/>
     </defs>
     <g style="fill:#262626;" transform="translate(22.396875 445.608437)rotate(-90)scale(0.2 -0.2)">
      <use xlink:href="#DejaVuSans-83"/>
      <use x="63.476562" xlink:href="#DejaVuSans-101"/>
      <use x="125" xlink:href="#DejaVuSans-110"/>
      <use x="188.378906" xlink:href="#DejaVuSans-115"/>
      <use x="240.478516" xlink:href="#DejaVuSans-111"/>
      <use x="301.660156" xlink:href="#DejaVuSans-114"/>
      <use x="342.773438" xlink:href="#DejaVuSans-32"/>
      <use x="374.560547" xlink:href="#DejaVuSans-82"/>
      <use x="439.542969" xlink:href="#DejaVuSans-101"/>
      <use x="501.066406" xlink:href="#DejaVuSans-97"/>
      <use x="562.345703" xlink:href="#DejaVuSans-100"/>
      <use x="625.822266" xlink:href="#DejaVuSans-105"/>
      <use x="653.605469" xlink:href="#DejaVuSans-110"/>
      <use x="716.984375" xlink:href="#DejaVuSans-103"/>
     </g>
    </g>
   </g>
   <g id="line2d_12">
    <path clip-path="url(#p74f2b10143)" d="M 104.812798 356.278537 
L 112.657222 364.292496 
L 120.501646 375.500066 
L 128.346069 393.528996 
L 136.190493 389.805934 
L 144.034916 393.287841 
L 151.87934 397.941573 
L 159.723764 389.277841 
L 167.568187 384.712214 
L 175.412611 380.203806 
L 183.257034 384.134243 
L 191.101458 389.716278 
L 198.945882 389.390102 
L 206.790305 390.583726 
L 214.634729 399.033623 
L 222.479153 403.536976 
L 230.323576 406.99384 
L 238.168 416.750102 
L 246.012423 426.373118 
L 253.856847 430.143622 
L 261.701271 430.340891 
L 269.545694 436.112533 
L 277.390118 444.162749 
L 285.234542 443.098048 
L 293.078965 431.18309 
L 300.923389 418.32807 
L 308.767812 402.912981 
L 316.612236 396.616638 
L 324.45666 390.769374 
L 332.301083 392.953467 
L 340.145507 399.261245 
L 347.98993 391.666682 
L 355.834354 376.005111 
L 363.678778 334.381367 
L 371.523201 320.615656 
L 379.367625 317.811236 
L 387.212049 332.010258 
L 395.056472 349.544005 
L 402.900896 358.569926 
L 410.745319 366.750822 
L 418.589743 374.155938 
L 426.434167 384.994599 
L 434.27859 384.423611 
L 442.123014 372.999633 
L 449.967437 356.701373 
L 457.811861 348.138586 
L 465.656285 340.485959 
L 473.500708 335.15038 
L 481.345132 336.011832 
L 489.189556 332.318581 
L 497.033979 321.487079 
L 504.878403 311.923759 
L 512.722826 307.592583 
L 520.56725 305.095036 
L 528.411674 303.367319 
L 536.256097 286.593336 
L 544.100521 305.029861 
L 551.944944 302.193604 
L 559.789368 292.834316 
L 567.633792 321.266466 
L 575.478215 361.590819 
L 583.322639 389.07052 
L 591.167063 415.081862 
L 599.011486 440.584098 
L 606.85591 442.779702 
L 614.700333 440.517634 
L 622.544757 432.491323 
L 630.389181 432.704793 
L 638.233604 443.225556 
L 646.078028 442.570237 
L 653.922452 434.479586 
L 661.766875 430.756627 
L 669.611299 431.14582 
L 677.455722 423.942293 
L 685.300146 416.028327 
L 693.14457 407.483667 
L 700.988993 396.06784 
L 708.833417 391.736234 
L 716.67784 395.695912 
L 724.522264 392.594857 
L 732.366688 394.275316 
L 740.211111 393.140446 
L 748.055535 405.427416 
L 755.899959 410.779607 
L 763.744382 405.610585 
L 771.588806 407.503029 
L 779.433229 394.720622 
L 787.277653 394.850575 
L 795.122077 389.882159 
L 802.9665 384.414878 
L 810.810924 377.817781 
L 818.655347 377.367645 
L 826.499771 371.413603 
L 834.344195 372.872099 
L 842.188618 386.466087 
L 850.033042 388.403968 
L 857.877466 392.570017 
L 865.721889 371.224296 
" style="fill:none;stroke:#fb694a;stroke-linecap:round;stroke-width:1.5;"/>
   </g>
   <g id="line2d_13"/>
   <g id="line2d_14"/>
   <g id="line2d_15">
    <path clip-path="url(#p74f2b10143)" d="M 104.812798 374.590544 
L 112.657222 379.654841 
L 120.501646 385.799847 
L 128.346069 386.314197 
L 136.190493 386.099859 
L 144.034916 383.004353 
L 151.87934 383.031326 
L 159.723764 386.457173 
L 167.568187 382.026818 
L 175.412611 383.471457 
L 183.257034 388.076877 
L 191.101458 395.341053 
L 198.945882 404.727815 
L 206.790305 414.09318 
L 214.634729 413.466457 
L 222.479153 414.83039 
L 230.323576 414.421405 
L 238.168 413.472728 
L 246.012423 416.403717 
L 253.856847 421.56267 
L 261.701271 423.216893 
L 269.545694 427.066155 
L 277.390118 427.335518 
L 285.234542 420.186376 
L 293.078965 413.176808 
L 300.923389 408.028122 
L 308.767812 404.330412 
L 316.612236 391.622094 
L 324.45666 381.627219 
L 332.301083 376.314206 
L 340.145507 367.53628 
L 347.98993 361.418143 
L 355.834354 351.119282 
L 363.678778 346.469465 
L 371.523201 339.607223 
L 379.367625 340.514875 
L 387.212049 343.498256 
L 395.056472 345.540761 
L 402.900896 352.293891 
L 410.745319 360.940098 
L 418.589743 373.428136 
L 426.434167 384.236424 
L 434.27859 390.462708 
L 442.123014 394.717714 
L 449.967437 389.852556 
L 457.811861 376.955272 
L 465.656285 371.884062 
L 473.500708 379.03366 
L 481.345132 383.068735 
L 489.189556 394.088229 
L 497.033979 401.700961 
L 504.878403 402.497133 
L 512.722826 405.552642 
L 520.56725 415.202922 
L 528.411674 416.654903 
L 536.256097 418.5883 
L 544.100521 414.963575 
L 551.944944 409.891835 
L 559.789368 402.690642 
L 567.633792 402.241155 
L 575.478215 390.932674 
L 583.322639 374.972884 
L 591.167063 362.440609 
L 599.011486 354.401807 
L 606.85591 353.133591 
L 614.700333 357.054746 
L 622.544757 353.839427 
L 630.389181 348.73842 
L 638.233604 347.177383 
L 646.078028 347.03407 
L 653.922452 351.523378 
L 661.766875 362.560186 
L 669.611299 366.799231 
L 677.455722 360.701345 
L 685.300146 350.57135 
L 693.14457 343.190759 
L 700.988993 336.334902 
L 708.833417 332.051603 
L 716.67784 332.081527 
L 724.522264 330.492741 
L 732.366688 330.494325 
L 740.211111 333.693173 
L 748.055535 338.316792 
L 755.899959 337.755104 
L 763.744382 333.359242 
L 771.588806 336.238893 
L 779.433229 338.432677 
L 787.277653 347.03734 
L 795.122077 360.599925 
L 802.9665 369.833794 
L 810.810924 376.132902 
L 818.655347 378.775895 
L 826.499771 381.671932 
L 834.344195 379.756059 
L 842.188618 375.760635 
L 850.033042 379.250155 
L 857.877466 378.587924 
L 865.721889 389.724668 
" style="fill:none;stroke:#6aaed6;stroke-linecap:round;stroke-width:1.5;"/>
   </g>
   <g id="line2d_16"/>
   <g id="line2d_17"/>
   <g id="line2d_18">
    <path clip-path="url(#p74f2b10143)" d="M 104.812798 354.432278 
L 112.657222 353.88293 
L 120.501646 350.964876 
L 128.346069 356.300695 
L 136.190493 362.145992 
L 144.034916 361.759041 
L 151.87934 355.209889 
L 159.723764 355.929001 
L 167.568187 378.846801 
L 175.412611 395.199721 
L 183.257034 391.903077 
L 191.101458 373.154174 
L 198.945882 373.10252 
L 206.790305 376.324464 
L 214.634729 379.397464 
L 222.479153 378.454017 
L 230.323576 388.935273 
L 238.168 399.57365 
L 246.012423 412.639248 
L 253.856847 423.432992 
L 261.701271 427.918659 
L 269.545694 434.85697 
L 277.390118 448.06246 
L 285.234542 451.850222 
L 293.078965 431.613043 
L 300.923389 400.074884 
L 308.767812 373.925193 
L 316.612236 357.02773 
L 324.45666 354.882785 
L 332.301083 356.764756 
L 340.145507 365.462326 
L 347.98993 390.958686 
L 355.834354 387.174363 
L 363.678778 355.325571 
L 371.523201 337.45612 
L 379.367625 355.468986 
L 387.212049 379.75144 
L 395.056472 386.788204 
L 402.900896 379.049422 
L 410.745319 397.91217 
L 418.589743 404.34714 
L 426.434167 387.455527 
L 434.27859 361.373523 
L 442.123014 336.58149 
L 449.967437 342.375284 
L 457.811861 363.494563 
L 465.656285 378.112348 
L 473.500708 386.467389 
L 481.345132 388.999504 
L 489.189556 380.581514 
L 497.033979 373.13155 
L 504.878403 376.890215 
L 512.722826 390.614117 
L 520.56725 395.57305 
L 528.411674 383.268962 
L 536.256097 385.581126 
L 544.100521 381.037028 
L 551.944944 381.272894 
L 559.789368 392.240447 
L 567.633792 420.434894 
L 575.478215 445.20491 
L 583.322639 463.095316 
L 591.167063 473.035839 
L 599.011486 456.328437 
L 606.85591 423.225988 
L 614.700333 406.178064 
L 622.544757 401.41661 
L 630.389181 410.961365 
L 638.233604 424.832003 
L 646.078028 421.134383 
L 653.922452 413.893446 
L 661.766875 408.20323 
L 669.611299 400.895652 
L 677.455722 390.364444 
L 685.300146 373.639072 
L 693.14457 366.873054 
L 700.988993 367.961061 
L 708.833417 364.075756 
L 716.67784 367.390438 
L 724.522264 365.585729 
L 732.366688 360.976322 
L 740.211111 355.392398 
L 748.055535 353.756661 
L 755.899959 352.974515 
L 763.744382 348.330683 
L 771.588806 343.483741 
L 779.433229 347.167639 
L 787.277653 348.543504 
L 795.122077 352.04115 
L 802.9665 362.990378 
L 810.810924 370.259873 
L 818.655347 373.885053 
L 826.499771 381.362277 
L 834.344195 396.879509 
L 842.188618 409.227378 
L 850.033042 405.820682 
L 857.877466 398.684369 
L 865.721889 398.722216 
" style="fill:none;stroke:#959595;stroke-linecap:round;stroke-width:1.5;"/>
   </g>
   <g id="line2d_19"/>
   <g id="line2d_20"/>
   <g id="line2d_21">
    <path clip-path="url(#p74f2b10143)" d="M 104.812798 500.264433 
L 112.657222 516.614504 
L 120.501646 590.569851 
L 128.346069 627.34283 
L 136.190493 640.702979 
L 144.034916 592.048771 
L 151.87934 572.435353 
L 159.723764 630.631331 
L 167.568187 656.707975 
L 175.412611 588.415735 
L 183.257034 473.305278 
L 191.101458 439.684002 
L 198.945882 481.064408 
L 206.790305 480.911123 
L 214.634729 436.385711 
L 222.479153 459.418456 
L 230.323576 518.725606 
L 238.168 541.577211 
L 246.012423 523.030677 
L 253.856847 490.847954 
L 261.701271 482.995336 
L 269.545694 468.091792 
L 277.390118 430.950107 
L 285.234542 360.250408 
L 293.078965 246.17498 
L 300.923389 185.51561 
L 308.767812 186.426048 
L 316.612236 249.295209 
L 324.45666 307.797893 
L 332.301083 365.038383 
L 340.145507 505.342327 
L 347.98993 498.195292 
L 355.834354 263.405447 
L 363.678778 133.257363 
L 371.523201 227.600823 
L 379.367625 394.120857 
L 387.212049 445.316062 
L 395.056472 423.927179 
L 402.900896 491.072794 
L 410.745319 495.022634 
L 418.589743 337.188219 
L 426.434167 220.379122 
L 434.27859 150.979218 
L 442.123014 233.552699 
L 449.967437 360.724125 
L 457.811861 402.151453 
L 465.656285 411.709103 
L 473.500708 397.413573 
L 481.345132 345.635809 
L 489.189556 316.263272 
L 497.033979 338.339096 
L 504.878403 334.854983 
L 512.722826 296.702055 
L 520.56725 226.82618 
L 528.411674 253.272848 
L 536.256097 288.431694 
L 544.100521 267.32613 
L 551.944944 254.027894 
L 559.789368 269.016319 
L 567.633792 252.211671 
L 575.478215 231.01443 
L 583.322639 203.768438 
L 591.167063 145.580517 
L 599.011486 81.341375 
L 606.85591 71.307591 
L 614.700333 76.784684 
L 622.544757 137.58247 
L 630.389181 230.989497 
L 638.233604 222.482781 
L 646.078028 197.759294 
L 653.922452 198.523317 
L 661.766875 164.53221 
L 669.611299 122.754781 
L 677.455722 45.165638 
L 685.300146 39.96 
L 693.14457 111.831649 
L 700.988993 126.06835 
L 708.833417 154.614513 
L 716.67784 179.227021 
L 724.522264 236.484931 
L 732.366688 259.517883 
L 740.211111 271.94899 
L 748.055535 319.370309 
L 755.899959 356.915968 
L 763.744382 338.657484 
L 771.588806 354.220117 
L 779.433229 370.118543 
L 787.277653 405.928045 
L 795.122077 459.305319 
L 802.9665 502.744473 
L 810.810924 510.067712 
L 818.655347 538.160941 
L 826.499771 586.486527 
L 834.344195 625.956631 
L 842.188618 607.859575 
L 850.033042 553.181305 
L 857.877466 567.989506 
L 865.721889 610.524079 
" style="fill:none;stroke:#fd8c3b;stroke-linecap:round;stroke-width:1.5;"/>
   </g>
   <g id="line2d_22"/>
   <g id="line2d_23"/>
   <g id="line2d_24">
    <path clip-path="url(#p74f2b10143)" d="M 104.812798 356.683035 
L 112.657222 413.950259 
L 120.501646 386.253137 
L 128.346069 395.162143 
L 136.190493 390.903457 
L 144.034916 421.639098 
L 151.87934 412.210885 
L 159.723764 404.483914 
L 167.568187 391.337008 
L 175.412611 404.301045 
L 183.257034 449.640777 
L 191.101458 454.202804 
L 198.945882 417.459276 
L 206.790305 376.476743 
L 214.634729 413.353604 
L 222.479153 383.233358 
L 230.323576 351.05487 
L 238.168 336.493 
L 246.012423 345.894572 
L 253.856847 361.196202 
L 261.701271 347.205686 
L 269.545694 349.709142 
L 277.390118 382.020262 
L 285.234542 378.073839 
L 293.078965 394.695818 
L 300.923389 447.507161 
L 308.767812 470.660439 
L 316.612236 461.451714 
L 324.45666 461.409155 
L 332.301083 486.736358 
L 340.145507 398.039997 
L 347.98993 324.068872 
L 355.834354 407.661409 
L 363.678778 476.978833 
L 371.523201 399.703567 
L 379.367625 256.975661 
L 387.212049 199.756593 
L 395.056472 198.915426 
L 402.900896 103.749664 
L 410.745319 78.22574 
L 418.589743 162.660506 
L 426.434167 215.446539 
L 434.27859 258.404183 
L 442.123014 242.182835 
L 449.967437 255.166797 
L 457.811861 263.28088 
L 465.656285 262.514894 
L 473.500708 279.682226 
L 481.345132 316.52888 
L 489.189556 329.987562 
L 497.033979 303.035099 
L 504.878403 304.979252 
L 512.722826 347.47006 
L 520.56725 375.331621 
L 528.411674 292.82512 
L 536.256097 234.308579 
L 544.100521 246.281795 
L 551.944944 257.177625 
L 559.789368 219.931262 
L 567.633792 251.05499 
L 575.478215 250.311906 
L 583.322639 262.823512 
L 591.167063 256.030562 
L 599.011486 284.338213 
L 606.85591 295.005653 
L 614.700333 383.151417 
L 622.544757 446.878325 
L 630.389181 445.149298 
L 638.233604 514.535214 
L 646.078028 581.088484 
L 653.922452 614.731195 
L 661.766875 628.584991 
L 669.611299 638.518197 
L 677.455722 695.16 
L 685.300146 652.809604 
L 693.14457 541.791381 
L 700.988993 498.168782 
L 708.833417 479.366649 
L 716.67784 491.637239 
L 724.522264 429.112798 
L 732.366688 395.052758 
L 740.211111 421.100025 
L 748.055535 397.076503 
L 755.899959 353.243247 
L 763.744382 371.306982 
L 771.588806 381.649359 
L 779.433229 405.660034 
L 787.277653 395.127577 
L 795.122077 388.2996 
L 802.9665 416.867306 
L 810.810924 454.000604 
L 818.655347 435.260029 
L 826.499771 436.937318 
L 834.344195 444.55622 
L 842.188618 398.285591 
L 850.033042 360.427063 
L 857.877466 303.400269 
L 865.721889 281.619779 
" style="fill:none;stroke:#9e9ac8;stroke-linecap:round;stroke-width:1.5;"/>
   </g>
   <g id="line2d_25"/>
   <g id="line2d_26"/>
   <g id="line2d_27">
    <path clip-path="url(#p74f2b10143)" d="M 104.812798 383.241099 
L 112.657222 332.955155 
L 120.501646 307.759616 
L 128.346069 347.989149 
L 136.190493 382.806702 
L 144.034916 402.049677 
L 151.87934 403.8509 
L 159.723764 409.94276 
L 167.568187 387.465707 
L 175.412611 341.184761 
L 183.257034 309.057005 
L 191.101458 298.410401 
L 198.945882 276.18522 
L 206.790305 277.883679 
L 214.634729 297.374233 
L 222.479153 313.04743 
L 230.323576 324.814186 
L 238.168 314.08987 
L 246.012423 309.625613 
L 253.856847 312.680183 
L 261.701271 306.754029 
L 269.545694 320.322695 
L 277.390118 351.150662 
L 285.234542 368.976909 
L 293.078965 362.721337 
L 300.923389 344.729948 
L 308.767812 323.203446 
L 316.612236 294.687586 
L 324.45666 271.93112 
L 332.301083 276.881194 
L 340.145507 268.733317 
L 347.98993 259.945732 
L 355.834354 335.692213 
L 363.678778 403.143003 
L 371.523201 416.549622 
L 379.367625 398.808718 
L 387.212049 403.749971 
L 395.056472 452.462625 
L 402.900896 448.858766 
L 410.745319 437.093304 
L 418.589743 450.386491 
L 426.434167 467.096 
L 434.27859 505.319796 
L 442.123014 532.662961 
L 449.967437 561.002743 
L 457.811861 563.84276 
L 465.656285 536.947389 
L 473.500708 510.822834 
L 481.345132 486.045113 
L 489.189556 493.88781 
L 497.033979 503.561591 
L 504.878403 483.471678 
L 512.722826 477.058279 
L 520.56725 466.231796 
L 528.411674 428.253576 
L 536.256097 387.894305 
L 544.100521 401.364223 
L 551.944944 404.596463 
L 559.789368 342.483928 
L 567.633792 278.610765 
L 575.478215 300.339517 
L 583.322639 339.699434 
L 591.167063 345.164768 
L 599.011486 371.710062 
L 606.85591 399.331842 
L 614.700333 413.937122 
L 622.544757 415.517258 
L 630.389181 366.31233 
L 638.233604 359.963638 
L 646.078028 361.727417 
L 653.922452 330.81434 
L 661.766875 257.818033 
L 669.611299 228.156392 
L 677.455722 229.288197 
L 685.300146 243.114936 
L 693.14457 242.284921 
L 700.988993 262.076567 
L 708.833417 300.819627 
L 716.67784 370.230449 
L 724.522264 395.172661 
L 732.366688 424.739459 
L 740.211111 437.25772 
L 748.055535 439.152133 
L 755.899959 459.901879 
L 763.744382 459.454364 
L 771.588806 481.966476 
L 779.433229 461.229386 
L 787.277653 450.872532 
L 795.122077 442.798723 
L 802.9665 447.331247 
L 810.810924 426.545744 
L 818.655347 409.184755 
L 826.499771 395.102843 
L 834.344195 378.384565 
L 842.188618 341.83026 
L 850.033042 336.111431 
L 857.877466 327.959357 
L 865.721889 292.340989 
" style="fill:none;stroke:#73c476;stroke-linecap:round;stroke-width:1.5;"/>
   </g>
   <g id="line2d_28"/>
   <g id="line2d_29"/>
   <g id="patch_3">
    <path d="M 66.767344 727.92 
L 66.767344 7.2 
" style="fill:none;stroke:#ffffff;stroke-linecap:square;stroke-linejoin:miter;stroke-width:1.25;"/>
   </g>
   <g id="patch_4">
    <path d="M 903.767344 727.92 
L 903.767344 7.2 
" style="fill:none;stroke:#ffffff;stroke-linecap:square;stroke-linejoin:miter;stroke-width:1.25;"/>
   </g>
   <g id="patch_5">
    <path d="M 66.767344 727.92 
L 903.767344 727.92 
" style="fill:none;stroke:#ffffff;stroke-linecap:square;stroke-linejoin:miter;stroke-width:1.25;"/>
   </g>
   <g id="patch_6">
    <path d="M 66.767344 7.2 
L 903.767344 7.2 
" style="fill:none;stroke:#ffffff;stroke-linecap:square;stroke-linejoin:miter;stroke-width:1.25;"/>
   </g>
   <g id="legend_1">
    <g id="patch_7">
     <path d="M 823.161406 211.586875 
L 896.067344 211.586875 
Q 898.267344 211.586875 898.267344 209.386875 
L 898.267344 14.9 
Q 898.267344 12.7 896.067344 12.7 
L 823.161406 12.7 
Q 820.961406 12.7 820.961406 14.9 
L 820.961406 209.386875 
Q 820.961406 211.586875 823.161406 211.586875 
z
" style="fill:#eaeaf2;opacity:0.8;stroke:#cccccc;stroke-linejoin:miter;"/>
    </g>
    <g id="line2d_30">
     <path d="M 825.361406 21.608281 
L 847.361406 21.608281 
" style="fill:none;"/>
    </g>
    <g id="line2d_31"/>
    <g id="text_14">
     <!-- Sensor -->
     <g style="fill:#262626;" transform="translate(856.161406 25.458281)scale(0.11 -0.11)">
      <use xlink:href="#DejaVuSans-83"/>
      <use x="63.476562" xlink:href="#DejaVuSans-101"/>
      <use x="125" xlink:href="#DejaVuSans-110"/>
      <use x="188.378906" xlink:href="#DejaVuSans-115"/>
      <use x="240.478516" xlink:href="#DejaVuSans-111"/>
      <use x="301.660156" xlink:href="#DejaVuSans-114"/>
     </g>
    </g>
    <g id="line2d_32">
     <path d="M 825.361406 37.754219 
L 847.361406 37.754219 
" style="fill:none;stroke:#fb694a;stroke-linecap:round;stroke-width:1.5;"/>
    </g>
    <g id="line2d_33"/>
    <g id="text_15">
     <!-- acc_x -->
     <defs>
      <path d="M 48.78125 52.59375 
L 48.78125 44.1875 
Q 44.96875 46.296875 41.140625 47.34375 
Q 37.3125 48.390625 33.40625 48.390625 
Q 24.65625 48.390625 19.8125 42.84375 
Q 14.984375 37.3125 14.984375 27.296875 
Q 14.984375 17.28125 19.8125 11.734375 
Q 24.65625 6.203125 33.40625 6.203125 
Q 37.3125 6.203125 41.140625 7.25 
Q 44.96875 8.296875 48.78125 10.40625 
L 48.78125 2.09375 
Q 45.015625 0.34375 40.984375 -0.53125 
Q 36.96875 -1.421875 32.421875 -1.421875 
Q 20.0625 -1.421875 12.78125 6.34375 
Q 5.515625 14.109375 5.515625 27.296875 
Q 5.515625 40.671875 12.859375 48.328125 
Q 20.21875 56 33.015625 56 
Q 37.15625 56 41.109375 55.140625 
Q 45.0625 54.296875 48.78125 52.59375 
z
" id="DejaVuSans-99"/>
      <path d="M 50.984375 -16.609375 
L 50.984375 -23.578125 
L -0.984375 -23.578125 
L -0.984375 -16.609375 
z
" id="DejaVuSans-95"/>
     </defs>
     <g style="fill:#262626;" transform="translate(856.161406 41.604219)scale(0.11 -0.11)">
      <use xlink:href="#DejaVuSans-97"/>
      <use x="61.279297" xlink:href="#DejaVuSans-99"/>
      <use x="116.259766" xlink:href="#DejaVuSans-99"/>
      <use x="171.240234" xlink:href="#DejaVuSans-95"/>
      <use x="221.240234" xlink:href="#DejaVuSans-120"/>
     </g>
    </g>
    <g id="line2d_34">
     <path d="M 825.361406 54.206094 
L 847.361406 54.206094 
" style="fill:none;"/>
    </g>
    <g id="line2d_35"/>
    <g id="text_16">
     <!-- Sensor -->
     <g style="fill:#262626;" transform="translate(856.161406 58.056094)scale(0.11 -0.11)">
      <use xlink:href="#DejaVuSans-83"/>
      <use x="63.476562" xlink:href="#DejaVuSans-101"/>
      <use x="125" xlink:href="#DejaVuSans-110"/>
      <use x="188.378906" xlink:href="#DejaVuSans-115"/>
      <use x="240.478516" xlink:href="#DejaVuSans-111"/>
      <use x="301.660156" xlink:href="#DejaVuSans-114"/>
     </g>
    </g>
    <g id="line2d_36">
     <path d="M 825.361406 70.352031 
L 847.361406 70.352031 
" style="fill:none;stroke:#6aaed6;stroke-linecap:round;stroke-width:1.5;"/>
    </g>
    <g id="line2d_37"/>
    <g id="text_17">
     <!-- acc_y -->
     <defs>
      <path d="M 32.171875 -5.078125 
Q 28.375 -14.84375 24.75 -17.8125 
Q 21.140625 -20.796875 15.09375 -20.796875 
L 7.90625 -20.796875 
L 7.90625 -13.28125 
L 13.1875 -13.28125 
Q 16.890625 -13.28125 18.9375 -11.515625 
Q 21 -9.765625 23.484375 -3.21875 
L 25.09375 0.875 
L 2.984375 54.6875 
L 12.5 54.6875 
L 29.59375 11.921875 
L 46.6875 54.6875 
L 56.203125 54.6875 
z
" id="DejaVuSans-121"/>
     </defs>
     <g style="fill:#262626;" transform="translate(856.161406 74.202031)scale(0.11 -0.11)">
      <use xlink:href="#DejaVuSans-97"/>
      <use x="61.279297" xlink:href="#DejaVuSans-99"/>
      <use x="116.259766" xlink:href="#DejaVuSans-99"/>
      <use x="171.240234" xlink:href="#DejaVuSans-95"/>
      <use x="221.240234" xlink:href="#DejaVuSans-121"/>
     </g>
    </g>
    <g id="line2d_38">
     <path d="M 825.361406 86.803906 
L 847.361406 86.803906 
" style="fill:none;"/>
    </g>
    <g id="line2d_39"/>
    <g id="text_18">
     <!-- Sensor -->
     <g style="fill:#262626;" transform="translate(856.161406 90.653906)scale(0.11 -0.11)">
      <use xlink:href="#DejaVuSans-83"/>
      <use x="63.476562" xlink:href="#DejaVuSans-101"/>
      <use x="125" xlink:href="#DejaVuSans-110"/>
      <use x="188.378906" xlink:href="#DejaVuSans-115"/>
      <use x="240.478516" xlink:href="#DejaVuSans-111"/>
      <use x="301.660156" xlink:href="#DejaVuSans-114"/>
     </g>
    </g>
    <g id="line2d_40">
     <path d="M 825.361406 102.949844 
L 847.361406 102.949844 
" style="fill:none;stroke:#959595;stroke-linecap:round;stroke-width:1.5;"/>
    </g>
    <g id="line2d_41"/>
    <g id="text_19">
     <!-- acc_z -->
     <defs>
      <path d="M 5.515625 54.6875 
L 48.1875 54.6875 
L 48.1875 46.484375 
L 14.40625 7.171875 
L 48.1875 7.171875 
L 48.1875 0 
L 4.296875 0 
L 4.296875 8.203125 
L 38.09375 47.515625 
L 5.515625 47.515625 
z
" id="DejaVuSans-122"/>
     </defs>
     <g style="fill:#262626;" transform="translate(856.161406 106.799844)scale(0.11 -0.11)">
      <use xlink:href="#DejaVuSans-97"/>
      <use x="61.279297" xlink:href="#DejaVuSans-99"/>
      <use x="116.259766" xlink:href="#DejaVuSans-99"/>
      <use x="171.240234" xlink:href="#DejaVuSans-95"/>
      <use x="221.240234" xlink:href="#DejaVuSans-122"/>
     </g>
    </g>
    <g id="line2d_42">
     <path d="M 825.361406 119.401719 
L 847.361406 119.401719 
" style="fill:none;"/>
    </g>
    <g id="line2d_43"/>
    <g id="text_20">
     <!-- Sensor -->
     <g style="fill:#262626;" transform="translate(856.161406 123.251719)scale(0.11 -0.11)">
      <use xlink:href="#DejaVuSans-83"/>
      <use x="63.476562" xlink:href="#DejaVuSans-101"/>
      <use x="125" xlink:href="#DejaVuSans-110"/>
      <use x="188.378906" xlink:href="#DejaVuSans-115"/>
      <use x="240.478516" xlink:href="#DejaVuSans-111"/>
      <use x="301.660156" xlink:href="#DejaVuSans-114"/>
     </g>
    </g>
    <g id="line2d_44">
     <path d="M 825.361406 135.547656 
L 847.361406 135.547656 
" style="fill:none;stroke:#fd8c3b;stroke-linecap:round;stroke-width:1.5;"/>
    </g>
    <g id="line2d_45"/>
    <g id="text_21">
     <!-- gy_x -->
     <g style="fill:#262626;" transform="translate(856.161406 139.397656)scale(0.11 -0.11)">
      <use xlink:href="#DejaVuSans-103"/>
      <use x="63.476562" xlink:href="#DejaVuSans-121"/>
      <use x="122.65625" xlink:href="#DejaVuSans-95"/>
      <use x="172.65625" xlink:href="#DejaVuSans-120"/>
     </g>
    </g>
    <g id="line2d_46">
     <path d="M 825.361406 151.999531 
L 847.361406 151.999531 
" style="fill:none;"/>
    </g>
    <g id="line2d_47"/>
    <g id="text_22">
     <!-- Sensor -->
     <g style="fill:#262626;" transform="translate(856.161406 155.849531)scale(0.11 -0.11)">
      <use xlink:href="#DejaVuSans-83"/>
      <use x="63.476562" xlink:href="#DejaVuSans-101"/>
      <use x="125" xlink:href="#DejaVuSans-110"/>
      <use x="188.378906" xlink:href="#DejaVuSans-115"/>
      <use x="240.478516" xlink:href="#DejaVuSans-111"/>
      <use x="301.660156" xlink:href="#DejaVuSans-114"/>
     </g>
    </g>
    <g id="line2d_48">
     <path d="M 825.361406 168.145469 
L 847.361406 168.145469 
" style="fill:none;stroke:#9e9ac8;stroke-linecap:round;stroke-width:1.5;"/>
    </g>
    <g id="line2d_49"/>
    <g id="text_23">
     <!-- gy_y -->
     <g style="fill:#262626;" transform="translate(856.161406 171.995469)scale(0.11 -0.11)">
      <use xlink:href="#DejaVuSans-103"/>
      <use x="63.476562" xlink:href="#DejaVuSans-121"/>
      <use x="122.65625" xlink:href="#DejaVuSans-95"/>
      <use x="172.65625" xlink:href="#DejaVuSans-121"/>
     </g>
    </g>
    <g id="line2d_50">
     <path d="M 825.361406 184.597344 
L 847.361406 184.597344 
" style="fill:none;"/>
    </g>
    <g id="line2d_51"/>
    <g id="text_24">
     <!-- Sensor -->
     <g style="fill:#262626;" transform="translate(856.161406 188.447344)scale(0.11 -0.11)">
      <use xlink:href="#DejaVuSans-83"/>
      <use x="63.476562" xlink:href="#DejaVuSans-101"/>
      <use x="125" xlink:href="#DejaVuSans-110"/>
      <use x="188.378906" xlink:href="#DejaVuSans-115"/>
      <use x="240.478516" xlink:href="#DejaVuSans-111"/>
      <use x="301.660156" xlink:href="#DejaVuSans-114"/>
     </g>
    </g>
    <g id="line2d_52">
     <path d="M 825.361406 200.743281 
L 847.361406 200.743281 
" style="fill:none;stroke:#73c476;stroke-linecap:round;stroke-width:1.5;"/>
    </g>
    <g id="line2d_53"/>
    <g id="text_25">
     <!-- gy_z -->
     <g style="fill:#262626;" transform="translate(856.161406 204.593281)scale(0.11 -0.11)">
      <use xlink:href="#DejaVuSans-103"/>
      <use x="63.476562" xlink:href="#DejaVuSans-121"/>
      <use x="122.65625" xlink:href="#DejaVuSans-95"/>
      <use x="172.65625" xlink:href="#DejaVuSans-122"/>
     </g>
    </g>
   </g>
  </g>
 </g>
 <defs>
  <clipPath id="p74f2b10143">
   <rect height="720.72" width="837" x="66.767344" y="7.2"/>
  </clipPath>
 </defs>
</svg>
