<?xml version="1.0" encoding="utf-8" standalone="no"?>
<!DOCTYPE svg PUBLIC "-//W3C//DTD SVG 1.1//EN"
  "http://www.w3.org/Graphics/SVG/1.1/DTD/svg11.dtd">
<!-- Created with matplotlib (https://matplotlib.org/) -->
<svg height="788.300312pt" version="1.1" viewBox="0 0 910.967344 788.300312" width="910.967344pt" xmlns="http://www.w3.org/2000/svg" xmlns:xlink="http://www.w3.org/1999/xlink">
 <defs>
  <style type="text/css">
*{stroke-linecap:butt;stroke-linejoin:round;}
  </style>
 </defs>
 <g id="figure_1">
  <g id="patch_1">
   <path d="M 0 788.300312 
L 910.967344 788.300312 
L 910.967344 0 
L 0 0 
z
" style="fill:#ffffff;"/>
  </g>
  <g id="axes_1">
   <g id="patch_2">
    <path d="M 66.767344 727.92 
L 903.767344 727.92 
L 903.767344 7.2 
L 66.767344 7.2 
z
" style="fill:#eaeaf2;"/>
   </g>
   <g id="matplotlib.axis_1">
    <g id="xtick_1">
     <g id="line2d_1">
      <path clip-path="url(#p3b32352f8f)" d="M 104.812798 727.92 
L 104.812798 7.2 
" style="fill:none;stroke:#ffffff;stroke-linecap:round;"/>
     </g>
     <g id="text_1">
      <!-- 0 -->
      <defs>
       <path d="M 31.78125 66.40625 
Q 24.171875 66.40625 20.328125 58.90625 
Q 16.5 51.421875 16.5 36.375 
Q 16.5 21.390625 20.328125 13.890625 
Q 24.171875 6.390625 31.78125 6.390625 
Q 39.453125 6.390625 43.28125 13.890625 
Q 47.125 21.390625 47.125 36.375 
Q 47.125 51.421875 43.28125 58.90625 
Q 39.453125 66.40625 31.78125 66.40625 
z
M 31.78125 74.21875 
Q 44.046875 74.21875 50.515625 64.515625 
Q 56.984375 54.828125 56.984375 36.375 
Q 56.984375 17.96875 50.515625 8.265625 
Q 44.046875 -1.421875 31.78125 -1.421875 
Q 19.53125 -1.421875 13.0625 8.265625 
Q 6.59375 17.96875 6.59375 36.375 
Q 6.59375 54.828125 13.0625 64.515625 
Q 19.53125 74.21875 31.78125 74.21875 
z
" id="DejaVuSans-48"/>
      </defs>
      <g style="fill:#262626;" transform="translate(101.313423 745.778281)scale(0.11 -0.11)">
       <use xlink:href="#DejaVuSans-48"/>
      </g>
     </g>
    </g>
    <g id="xtick_2">
     <g id="line2d_2">
      <path clip-path="url(#p3b32352f8f)" d="M 285.981629 727.92 
L 285.981629 7.2 
" style="fill:none;stroke:#ffffff;stroke-linecap:round;"/>
     </g>
     <g id="text_2">
      <!-- 20 -->
      <defs>
       <path d="M 19.1875 8.296875 
L 53.609375 8.296875 
L 53.609375 0 
L 7.328125 0 
L 7.328125 8.296875 
Q 12.9375 14.109375 22.625 23.890625 
Q 32.328125 33.6875 34.8125 36.53125 
Q 39.546875 41.84375 41.421875 45.53125 
Q 43.3125 49.21875 43.3125 52.78125 
Q 43.3125 58.59375 39.234375 62.25 
Q 35.15625 65.921875 28.609375 65.921875 
Q 23.96875 65.921875 18.8125 64.3125 
Q 13.671875 62.703125 7.8125 59.421875 
L 7.8125 69.390625 
Q 13.765625 71.78125 18.9375 73 
Q 24.125 74.21875 28.421875 74.21875 
Q 39.75 74.21875 46.484375 68.546875 
Q 53.21875 62.890625 53.21875 53.421875 
Q 53.21875 48.921875 51.53125 44.890625 
Q 49.859375 40.875 45.40625 35.40625 
Q 44.1875 33.984375 37.640625 27.21875 
Q 31.109375 20.453125 19.1875 8.296875 
z
" id="DejaVuSans-50"/>
      </defs>
      <g style="fill:#262626;" transform="translate(278.982879 745.778281)scale(0.11 -0.11)">
       <use xlink:href="#DejaVuSans-50"/>
       <use x="63.623047" xlink:href="#DejaVuSans-48"/>
      </g>
     </g>
    </g>
    <g id="xtick_3">
     <g id="line2d_3">
      <path clip-path="url(#p3b32352f8f)" d="M 467.150461 727.92 
L 467.150461 7.2 
" style="fill:none;stroke:#ffffff;stroke-linecap:round;"/>
     </g>
     <g id="text_3">
      <!-- 40 -->
      <defs>
       <path d="M 37.796875 64.3125 
L 12.890625 25.390625 
L 37.796875 25.390625 
z
M 35.203125 72.90625 
L 47.609375 72.90625 
L 47.609375 25.390625 
L 58.015625 25.390625 
L 58.015625 17.1875 
L 47.609375 17.1875 
L 47.609375 0 
L 37.796875 0 
L 37.796875 17.1875 
L 4.890625 17.1875 
L 4.890625 26.703125 
z
" id="DejaVuSans-52"/>
      </defs>
      <g style="fill:#262626;" transform="translate(460.151711 745.778281)scale(0.11 -0.11)">
       <use xlink:href="#DejaVuSans-52"/>
       <use x="63.623047" xlink:href="#DejaVuSans-48"/>
      </g>
     </g>
    </g>
    <g id="xtick_4">
     <g id="line2d_4">
      <path clip-path="url(#p3b32352f8f)" d="M 648.319292 727.92 
L 648.319292 7.2 
" style="fill:none;stroke:#ffffff;stroke-linecap:round;"/>
     </g>
     <g id="text_4">
      <!-- 60 -->
      <defs>
       <path d="M 33.015625 40.375 
Q 26.375 40.375 22.484375 35.828125 
Q 18.609375 31.296875 18.609375 23.390625 
Q 18.609375 15.53125 22.484375 10.953125 
Q 26.375 6.390625 33.015625 6.390625 
Q 39.65625 6.390625 43.53125 10.953125 
Q 47.40625 15.53125 47.40625 23.390625 
Q 47.40625 31.296875 43.53125 35.828125 
Q 39.65625 40.375 33.015625 40.375 
z
M 52.59375 71.296875 
L 52.59375 62.3125 
Q 48.875 64.0625 45.09375 64.984375 
Q 41.3125 65.921875 37.59375 65.921875 
Q 27.828125 65.921875 22.671875 59.328125 
Q 17.53125 52.734375 16.796875 39.40625 
Q 19.671875 43.65625 24.015625 45.921875 
Q 28.375 48.1875 33.59375 48.1875 
Q 44.578125 48.1875 50.953125 41.515625 
Q 57.328125 34.859375 57.328125 23.390625 
Q 57.328125 12.15625 50.6875 5.359375 
Q 44.046875 -1.421875 33.015625 -1.421875 
Q 20.359375 -1.421875 13.671875 8.265625 
Q 6.984375 17.96875 6.984375 36.375 
Q 6.984375 53.65625 15.1875 63.9375 
Q 23.390625 74.21875 37.203125 74.21875 
Q 40.921875 74.21875 44.703125 73.484375 
Q 48.484375 72.75 52.59375 71.296875 
z
" id="DejaVuSans-54"/>
      </defs>
      <g style="fill:#262626;" transform="translate(641.320542 745.778281)scale(0.11 -0.11)">
       <use xlink:href="#DejaVuSans-54"/>
       <use x="63.623047" xlink:href="#DejaVuSans-48"/>
      </g>
     </g>
    </g>
    <g id="xtick_5">
     <g id="line2d_5">
      <path clip-path="url(#p3b32352f8f)" d="M 829.488123 727.92 
L 829.488123 7.2 
" style="fill:none;stroke:#ffffff;stroke-linecap:round;"/>
     </g>
     <g id="text_5">
      <!-- 80 -->
      <defs>
       <path d="M 31.78125 34.625 
Q 24.75 34.625 20.71875 30.859375 
Q 16.703125 27.09375 16.703125 20.515625 
Q 16.703125 13.921875 20.71875 10.15625 
Q 24.75 6.390625 31.78125 6.390625 
Q 38.8125 6.390625 42.859375 10.171875 
Q 46.921875 13.96875 46.921875 20.515625 
Q 46.921875 27.09375 42.890625 30.859375 
Q 38.875 34.625 31.78125 34.625 
z
M 21.921875 38.8125 
Q 15.578125 40.375 12.03125 44.71875 
Q 8.5 49.078125 8.5 55.328125 
Q 8.5 64.0625 14.71875 69.140625 
Q 20.953125 74.21875 31.78125 74.21875 
Q 42.671875 74.21875 48.875 69.140625 
Q 55.078125 64.0625 55.078125 55.328125 
Q 55.078125 49.078125 51.53125 44.71875 
Q 48 40.375 41.703125 38.8125 
Q 48.828125 37.15625 52.796875 32.3125 
Q 56.78125 27.484375 56.78125 20.515625 
Q 56.78125 9.90625 50.3125 4.234375 
Q 43.84375 -1.421875 31.78125 -1.421875 
Q 19.734375 -1.421875 13.25 4.234375 
Q 6.78125 9.90625 6.78125 20.515625 
Q 6.78125 27.484375 10.78125 32.3125 
Q 14.796875 37.15625 21.921875 38.8125 
z
M 18.3125 54.390625 
Q 18.3125 48.734375 21.84375 45.5625 
Q 25.390625 42.390625 31.78125 42.390625 
Q 38.140625 42.390625 41.71875 45.5625 
Q 45.3125 48.734375 45.3125 54.390625 
Q 45.3125 60.0625 41.71875 63.234375 
Q 38.140625 66.40625 31.78125 66.40625 
Q 25.390625 66.40625 21.84375 63.234375 
Q 18.3125 60.0625 18.3125 54.390625 
z
" id="DejaVuSans-56"/>
      </defs>
      <g style="fill:#262626;" transform="translate(822.489373 745.778281)scale(0.11 -0.11)">
       <use xlink:href="#DejaVuSans-56"/>
       <use x="63.623047" xlink:href="#DejaVuSans-48"/>
      </g>
     </g>
    </g>
    <g id="text_6">
     <!-- Sample Index -->
     <defs>
      <path d="M 53.515625 70.515625 
L 53.515625 60.890625 
Q 47.90625 63.578125 42.921875 64.890625 
Q 37.9375 66.21875 33.296875 66.21875 
Q 25.25 66.21875 20.875 63.09375 
Q 16.5 59.96875 16.5 54.203125 
Q 16.5 49.359375 19.40625 46.890625 
Q 22.3125 44.4375 30.421875 42.921875 
L 36.375 41.703125 
Q 47.40625 39.59375 52.65625 34.296875 
Q 57.90625 29 57.90625 20.125 
Q 57.90625 9.515625 50.796875 4.046875 
Q 43.703125 -1.421875 29.984375 -1.421875 
Q 24.8125 -1.421875 18.96875 -0.25 
Q 13.140625 0.921875 6.890625 3.21875 
L 6.890625 13.375 
Q 12.890625 10.015625 18.65625 8.296875 
Q 24.421875 6.59375 29.984375 6.59375 
Q 38.421875 6.59375 43.015625 9.90625 
Q 47.609375 13.234375 47.609375 19.390625 
Q 47.609375 24.75 44.3125 27.78125 
Q 41.015625 30.8125 33.5 32.328125 
L 27.484375 33.5 
Q 16.453125 35.6875 11.515625 40.375 
Q 6.59375 45.0625 6.59375 53.421875 
Q 6.59375 63.09375 13.40625 68.65625 
Q 20.21875 74.21875 32.171875 74.21875 
Q 37.3125 74.21875 42.625 73.28125 
Q 47.953125 72.359375 53.515625 70.515625 
z
" id="DejaVuSans-83"/>
      <path d="M 34.28125 27.484375 
Q 23.390625 27.484375 19.1875 25 
Q 14.984375 22.515625 14.984375 16.5 
Q 14.984375 11.71875 18.140625 8.90625 
Q 21.296875 6.109375 26.703125 6.109375 
Q 34.1875 6.109375 38.703125 11.40625 
Q 43.21875 16.703125 43.21875 25.484375 
L 43.21875 27.484375 
z
M 52.203125 31.203125 
L 52.203125 0 
L 43.21875 0 
L 43.21875 8.296875 
Q 40.140625 3.328125 35.546875 0.953125 
Q 30.953125 -1.421875 24.3125 -1.421875 
Q 15.921875 -1.421875 10.953125 3.296875 
Q 6 8.015625 6 15.921875 
Q 6 25.140625 12.171875 29.828125 
Q 18.359375 34.515625 30.609375 34.515625 
L 43.21875 34.515625 
L 43.21875 35.40625 
Q 43.21875 41.609375 39.140625 45 
Q 35.0625 48.390625 27.6875 48.390625 
Q 23 48.390625 18.546875 47.265625 
Q 14.109375 46.140625 10.015625 43.890625 
L 10.015625 52.203125 
Q 14.9375 54.109375 19.578125 55.046875 
Q 24.21875 56 28.609375 56 
Q 40.484375 56 46.34375 49.84375 
Q 52.203125 43.703125 52.203125 31.203125 
z
" id="DejaVuSans-97"/>
      <path d="M 52 44.1875 
Q 55.375 50.25 60.0625 53.125 
Q 64.75 56 71.09375 56 
Q 79.640625 56 84.28125 50.015625 
Q 88.921875 44.046875 88.921875 33.015625 
L 88.921875 0 
L 79.890625 0 
L 79.890625 32.71875 
Q 79.890625 40.578125 77.09375 44.375 
Q 74.3125 48.1875 68.609375 48.1875 
Q 61.625 48.1875 57.5625 43.546875 
Q 53.515625 38.921875 53.515625 30.90625 
L 53.515625 0 
L 44.484375 0 
L 44.484375 32.71875 
Q 44.484375 40.625 41.703125 44.40625 
Q 38.921875 48.1875 33.109375 48.1875 
Q 26.21875 48.1875 22.15625 43.53125 
Q 18.109375 38.875 18.109375 30.90625 
L 18.109375 0 
L 9.078125 0 
L 9.078125 54.6875 
L 18.109375 54.6875 
L 18.109375 46.1875 
Q 21.1875 51.21875 25.484375 53.609375 
Q 29.78125 56 35.6875 56 
Q 41.65625 56 45.828125 52.96875 
Q 50 49.953125 52 44.1875 
z
" id="DejaVuSans-109"/>
      <path d="M 18.109375 8.203125 
L 18.109375 -20.796875 
L 9.078125 -20.796875 
L 9.078125 54.6875 
L 18.109375 54.6875 
L 18.109375 46.390625 
Q 20.953125 51.265625 25.265625 53.625 
Q 29.59375 56 35.59375 56 
Q 45.5625 56 51.78125 48.09375 
Q 58.015625 40.1875 58.015625 27.296875 
Q 58.015625 14.40625 51.78125 6.484375 
Q 45.5625 -1.421875 35.59375 -1.421875 
Q 29.59375 -1.421875 25.265625 0.953125 
Q 20.953125 3.328125 18.109375 8.203125 
z
M 48.6875 27.296875 
Q 48.6875 37.203125 44.609375 42.84375 
Q 40.53125 48.484375 33.40625 48.484375 
Q 26.265625 48.484375 22.1875 42.84375 
Q 18.109375 37.203125 18.109375 27.296875 
Q 18.109375 17.390625 22.1875 11.75 
Q 26.265625 6.109375 33.40625 6.109375 
Q 40.53125 6.109375 44.609375 11.75 
Q 48.6875 17.390625 48.6875 27.296875 
z
" id="DejaVuSans-112"/>
      <path d="M 9.421875 75.984375 
L 18.40625 75.984375 
L 18.40625 0 
L 9.421875 0 
z
" id="DejaVuSans-108"/>
      <path d="M 56.203125 29.59375 
L 56.203125 25.203125 
L 14.890625 25.203125 
Q 15.484375 15.921875 20.484375 11.0625 
Q 25.484375 6.203125 34.421875 6.203125 
Q 39.59375 6.203125 44.453125 7.46875 
Q 49.3125 8.734375 54.109375 11.28125 
L 54.109375 2.78125 
Q 49.265625 0.734375 44.1875 -0.34375 
Q 39.109375 -1.421875 33.890625 -1.421875 
Q 20.796875 -1.421875 13.15625 6.1875 
Q 5.515625 13.8125 5.515625 26.8125 
Q 5.515625 40.234375 12.765625 48.109375 
Q 20.015625 56 32.328125 56 
Q 43.359375 56 49.78125 48.890625 
Q 56.203125 41.796875 56.203125 29.59375 
z
M 47.21875 32.234375 
Q 47.125 39.59375 43.09375 43.984375 
Q 39.0625 48.390625 32.421875 48.390625 
Q 24.90625 48.390625 20.390625 44.140625 
Q 15.875 39.890625 15.1875 32.171875 
z
" id="DejaVuSans-101"/>
      <path id="DejaVuSans-32"/>
      <path d="M 9.8125 72.90625 
L 19.671875 72.90625 
L 19.671875 0 
L 9.8125 0 
z
" id="DejaVuSans-73"/>
      <path d="M 54.890625 33.015625 
L 54.890625 0 
L 45.90625 0 
L 45.90625 32.71875 
Q 45.90625 40.484375 42.875 44.328125 
Q 39.84375 48.1875 33.796875 48.1875 
Q 26.515625 48.1875 22.3125 43.546875 
Q 18.109375 38.921875 18.109375 30.90625 
L 18.109375 0 
L 9.078125 0 
L 9.078125 54.6875 
L 18.109375 54.6875 
L 18.109375 46.1875 
Q 21.34375 51.125 25.703125 53.5625 
Q 30.078125 56 35.796875 56 
Q 45.21875 56 50.046875 50.171875 
Q 54.890625 44.34375 54.890625 33.015625 
z
" id="DejaVuSans-110"/>
      <path d="M 45.40625 46.390625 
L 45.40625 75.984375 
L 54.390625 75.984375 
L 54.390625 0 
L 45.40625 0 
L 45.40625 8.203125 
Q 42.578125 3.328125 38.25 0.953125 
Q 33.9375 -1.421875 27.875 -1.421875 
Q 17.96875 -1.421875 11.734375 6.484375 
Q 5.515625 14.40625 5.515625 27.296875 
Q 5.515625 40.1875 11.734375 48.09375 
Q 17.96875 56 27.875 56 
Q 33.9375 56 38.25 53.625 
Q 42.578125 51.265625 45.40625 46.390625 
z
M 14.796875 27.296875 
Q 14.796875 17.390625 18.875 11.75 
Q 22.953125 6.109375 30.078125 6.109375 
Q 37.203125 6.109375 41.296875 11.75 
Q 45.40625 17.390625 45.40625 27.296875 
Q 45.40625 37.203125 41.296875 42.84375 
Q 37.203125 48.484375 30.078125 48.484375 
Q 22.953125 48.484375 18.875 42.84375 
Q 14.796875 37.203125 14.796875 27.296875 
z
" id="DejaVuSans-100"/>
      <path d="M 54.890625 54.6875 
L 35.109375 28.078125 
L 55.90625 0 
L 45.3125 0 
L 29.390625 21.484375 
L 13.484375 0 
L 2.875 0 
L 24.125 28.609375 
L 4.6875 54.6875 
L 15.28125 54.6875 
L 29.78125 35.203125 
L 44.28125 54.6875 
z
" id="DejaVuSans-120"/>
     </defs>
     <g style="fill:#262626;" transform="translate(382.955625 774.86125)scale(0.3 -0.3)">
      <use xlink:href="#DejaVuSans-83"/>
      <use x="63.476562" xlink:href="#DejaVuSans-97"/>
      <use x="124.755859" xlink:href="#DejaVuSans-109"/>
      <use x="222.167969" xlink:href="#DejaVuSans-112"/>
      <use x="285.644531" xlink:href="#DejaVuSans-108"/>
      <use x="313.427734" xlink:href="#DejaVuSans-101"/>
      <use x="374.951172" xlink:href="#DejaVuSans-32"/>
      <use x="406.738281" xlink:href="#DejaVuSans-73"/>
      <use x="436.230469" xlink:href="#DejaVuSans-110"/>
      <use x="499.609375" xlink:href="#DejaVuSans-100"/>
      <use x="563.085938" xlink:href="#DejaVuSans-101"/>
      <use x="622.859375" xlink:href="#DejaVuSans-120"/>
     </g>
    </g>
   </g>
   <g id="matplotlib.axis_2">
    <g id="ytick_1">
     <g id="line2d_6">
      <path clip-path="url(#p3b32352f8f)" d="M 66.767344 693.092112 
L 903.767344 693.092112 
" style="fill:none;stroke:#ffffff;stroke-linecap:round;"/>
     </g>
     <g id="text_7">
      <!-- −1.0 -->
      <defs>
       <path d="M 10.59375 35.5 
L 73.1875 35.5 
L 73.1875 27.203125 
L 10.59375 27.203125 
z
" id="DejaVuSans-8722"/>
       <path d="M 12.40625 8.296875 
L 28.515625 8.296875 
L 28.515625 63.921875 
L 10.984375 60.40625 
L 10.984375 69.390625 
L 28.421875 72.90625 
L 38.28125 72.90625 
L 38.28125 8.296875 
L 54.390625 8.296875 
L 54.390625 0 
L 12.40625 0 
z
" id="DejaVuSans-49"/>
       <path d="M 10.6875 12.40625 
L 21 12.40625 
L 21 0 
L 10.6875 0 
z
" id="DejaVuSans-46"/>
      </defs>
      <g style="fill:#262626;" transform="translate(30.55625 697.271253)scale(0.11 -0.11)">
       <use xlink:href="#DejaVuSans-8722"/>
       <use x="83.789062" xlink:href="#DejaVuSans-49"/>
       <use x="147.412109" xlink:href="#DejaVuSans-46"/>
       <use x="179.199219" xlink:href="#DejaVuSans-48"/>
      </g>
     </g>
    </g>
    <g id="ytick_2">
     <g id="line2d_7">
      <path clip-path="url(#p3b32352f8f)" d="M 66.767344 537.99481 
L 903.767344 537.99481 
" style="fill:none;stroke:#ffffff;stroke-linecap:round;"/>
     </g>
     <g id="text_8">
      <!-- −0.5 -->
      <defs>
       <path d="M 10.796875 72.90625 
L 49.515625 72.90625 
L 49.515625 64.59375 
L 19.828125 64.59375 
L 19.828125 46.734375 
Q 21.96875 47.46875 24.109375 47.828125 
Q 26.265625 48.1875 28.421875 48.1875 
Q 40.625 48.1875 47.75 41.5 
Q 54.890625 34.8125 54.890625 23.390625 
Q 54.890625 11.625 47.5625 5.09375 
Q 40.234375 -1.421875 26.90625 -1.421875 
Q 22.3125 -1.421875 17.546875 -0.640625 
Q 12.796875 0.140625 7.71875 1.703125 
L 7.71875 11.625 
Q 12.109375 9.234375 16.796875 8.0625 
Q 21.484375 6.890625 26.703125 6.890625 
Q 35.15625 6.890625 40.078125 11.328125 
Q 45.015625 15.765625 45.015625 23.390625 
Q 45.015625 31 40.078125 35.4375 
Q 35.15625 39.890625 26.703125 39.890625 
Q 22.75 39.890625 18.8125 39.015625 
Q 14.890625 38.140625 10.796875 36.28125 
z
" id="DejaVuSans-53"/>
      </defs>
      <g style="fill:#262626;" transform="translate(30.55625 542.173951)scale(0.11 -0.11)">
       <use xlink:href="#DejaVuSans-8722"/>
       <use x="83.789062" xlink:href="#DejaVuSans-48"/>
       <use x="147.412109" xlink:href="#DejaVuSans-46"/>
       <use x="179.199219" xlink:href="#DejaVuSans-53"/>
      </g>
     </g>
    </g>
    <g id="ytick_3">
     <g id="line2d_8">
      <path clip-path="url(#p3b32352f8f)" d="M 66.767344 382.897508 
L 903.767344 382.897508 
" style="fill:none;stroke:#ffffff;stroke-linecap:round;"/>
     </g>
     <g id="text_9">
      <!-- 0.0 -->
      <g style="fill:#262626;" transform="translate(39.773906 387.076649)scale(0.11 -0.11)">
       <use xlink:href="#DejaVuSans-48"/>
       <use x="63.623047" xlink:href="#DejaVuSans-46"/>
       <use x="95.410156" xlink:href="#DejaVuSans-48"/>
      </g>
     </g>
    </g>
    <g id="ytick_4">
     <g id="line2d_9">
      <path clip-path="url(#p3b32352f8f)" d="M 66.767344 227.800207 
L 903.767344 227.800207 
" style="fill:none;stroke:#ffffff;stroke-linecap:round;"/>
     </g>
     <g id="text_10">
      <!-- 0.5 -->
      <g style="fill:#262626;" transform="translate(39.773906 231.979347)scale(0.11 -0.11)">
       <use xlink:href="#DejaVuSans-48"/>
       <use x="63.623047" xlink:href="#DejaVuSans-46"/>
       <use x="95.410156" xlink:href="#DejaVuSans-53"/>
      </g>
     </g>
    </g>
    <g id="ytick_5">
     <g id="line2d_10">
      <path clip-path="url(#p3b32352f8f)" d="M 66.767344 72.702905 
L 903.767344 72.702905 
" style="fill:none;stroke:#ffffff;stroke-linecap:round;"/>
     </g>
     <g id="text_11">
      <!-- 1.0 -->
      <g style="fill:#262626;" transform="translate(39.773906 76.882046)scale(0.11 -0.11)">
       <use xlink:href="#DejaVuSans-49"/>
       <use x="63.623047" xlink:href="#DejaVuSans-46"/>
       <use x="95.410156" xlink:href="#DejaVuSans-48"/>
      </g>
     </g>
    </g>
    <g id="text_12">
     <!-- Sensor Reading -->
     <defs>
      <path d="M 44.28125 53.078125 
L 44.28125 44.578125 
Q 40.484375 46.53125 36.375 47.5 
Q 32.28125 48.484375 27.875 48.484375 
Q 21.1875 48.484375 17.84375 46.4375 
Q 14.5 44.390625 14.5 40.28125 
Q 14.5 37.15625 16.890625 35.375 
Q 19.28125 33.59375 26.515625 31.984375 
L 29.59375 31.296875 
Q 39.15625 29.25 43.1875 25.515625 
Q 47.21875 21.78125 47.21875 15.09375 
Q 47.21875 7.46875 41.1875 3.015625 
Q 35.15625 -1.421875 24.609375 -1.421875 
Q 20.21875 -1.421875 15.453125 -0.5625 
Q 10.6875 0.296875 5.421875 2 
L 5.421875 11.28125 
Q 10.40625 8.6875 15.234375 7.390625 
Q 20.0625 6.109375 24.8125 6.109375 
Q 31.15625 6.109375 34.5625 8.28125 
Q 37.984375 10.453125 37.984375 14.40625 
Q 37.984375 18.0625 35.515625 20.015625 
Q 33.0625 21.96875 24.703125 23.78125 
L 21.578125 24.515625 
Q 13.234375 26.265625 9.515625 29.90625 
Q 5.8125 33.546875 5.8125 39.890625 
Q 5.8125 47.609375 11.28125 51.796875 
Q 16.75 56 26.8125 56 
Q 31.78125 56 36.171875 55.265625 
Q 40.578125 54.546875 44.28125 53.078125 
z
" id="DejaVuSans-115"/>
      <path d="M 30.609375 48.390625 
Q 23.390625 48.390625 19.1875 42.75 
Q 14.984375 37.109375 14.984375 27.296875 
Q 14.984375 17.484375 19.15625 11.84375 
Q 23.34375 6.203125 30.609375 6.203125 
Q 37.796875 6.203125 41.984375 11.859375 
Q 46.1875 17.53125 46.1875 27.296875 
Q 46.1875 37.015625 41.984375 42.703125 
Q 37.796875 48.390625 30.609375 48.390625 
z
M 30.609375 56 
Q 42.328125 56 49.015625 48.375 
Q 55.71875 40.765625 55.71875 27.296875 
Q 55.71875 13.875 49.015625 6.21875 
Q 42.328125 -1.421875 30.609375 -1.421875 
Q 18.84375 -1.421875 12.171875 6.21875 
Q 5.515625 13.875 5.515625 27.296875 
Q 5.515625 40.765625 12.171875 48.375 
Q 18.84375 56 30.609375 56 
z
" id="DejaVuSans-111"/>
      <path d="M 41.109375 46.296875 
Q 39.59375 47.171875 37.8125 47.578125 
Q 36.03125 48 33.890625 48 
Q 26.265625 48 22.1875 43.046875 
Q 18.109375 38.09375 18.109375 28.8125 
L 18.109375 0 
L 9.078125 0 
L 9.078125 54.6875 
L 18.109375 54.6875 
L 18.109375 46.1875 
Q 20.953125 51.171875 25.484375 53.578125 
Q 30.03125 56 36.53125 56 
Q 37.453125 56 38.578125 55.875 
Q 39.703125 55.765625 41.0625 55.515625 
z
" id="DejaVuSans-114"/>
      <path d="M 44.390625 34.1875 
Q 47.5625 33.109375 50.5625 29.59375 
Q 53.5625 26.078125 56.59375 19.921875 
L 66.609375 0 
L 56 0 
L 46.6875 18.703125 
Q 43.0625 26.03125 39.671875 28.421875 
Q 36.28125 30.8125 30.421875 30.8125 
L 19.671875 30.8125 
L 19.671875 0 
L 9.8125 0 
L 9.8125 72.90625 
L 32.078125 72.90625 
Q 44.578125 72.90625 50.734375 67.671875 
Q 56.890625 62.453125 56.890625 51.90625 
Q 56.890625 45.015625 53.6875 40.46875 
Q 50.484375 35.9375 44.390625 34.1875 
z
M 19.671875 64.796875 
L 19.671875 38.921875 
L 32.078125 38.921875 
Q 39.203125 38.921875 42.84375 42.21875 
Q 46.484375 45.515625 46.484375 51.90625 
Q 46.484375 58.296875 42.84375 61.546875 
Q 39.203125 64.796875 32.078125 64.796875 
z
" id="DejaVuSans-82"/>
      <path d="M 9.421875 54.6875 
L 18.40625 54.6875 
L 18.40625 0 
L 9.421875 0 
z
M 9.421875 75.984375 
L 18.40625 75.984375 
L 18.40625 64.59375 
L 9.421875 64.59375 
z
" id="DejaVuSans-105"/>
      <path d="M 45.40625 27.984375 
Q 45.40625 37.75 41.375 43.109375 
Q 37.359375 48.484375 30.078125 48.484375 
Q 22.859375 48.484375 18.828125 43.109375 
Q 14.796875 37.75 14.796875 27.984375 
Q 14.796875 18.265625 18.828125 12.890625 
Q 22.859375 7.515625 30.078125 7.515625 
Q 37.359375 7.515625 41.375 12.890625 
Q 45.40625 18.265625 45.40625 27.984375 
z
M 54.390625 6.78125 
Q 54.390625 -7.171875 48.1875 -13.984375 
Q 42 -20.796875 29.203125 -20.796875 
Q 24.46875 -20.796875 20.265625 -20.09375 
Q 16.0625 -19.390625 12.109375 -17.921875 
L 12.109375 -9.1875 
Q 16.0625 -11.328125 19.921875 -12.34375 
Q 23.78125 -13.375 27.78125 -13.375 
Q 36.625 -13.375 41.015625 -8.765625 
Q 45.40625 -4.15625 45.40625 5.171875 
L 45.40625 9.625 
Q 42.625 4.78125 38.28125 2.390625 
Q 33.9375 0 27.875 0 
Q 17.828125 0 11.671875 7.65625 
Q 5.515625 15.328125 5.515625 27.984375 
Q 5.515625 40.671875 11.671875 48.328125 
Q 17.828125 56 27.875 56 
Q 33.9375 56 38.28125 53.609375 
Q 42.625 51.21875 45.40625 46.390625 
L 45.40625 54.6875 
L 54.390625 54.6875 
z
" id="DejaVuSans-103"/>
     </defs>
     <g style="fill:#262626;" transform="translate(22.396875 445.608437)rotate(-90)scale(0.2 -0.2)">
      <use xlink:href="#DejaVuSans-83"/>
      <use x="63.476562" xlink:href="#DejaVuSans-101"/>
      <use x="125" xlink:href="#DejaVuSans-110"/>
      <use x="188.378906" xlink:href="#DejaVuSans-115"/>
      <use x="240.478516" xlink:href="#DejaVuSans-111"/>
      <use x="301.660156" xlink:href="#DejaVuSans-114"/>
      <use x="342.773438" xlink:href="#DejaVuSans-32"/>
      <use x="374.560547" xlink:href="#DejaVuSans-82"/>
      <use x="439.542969" xlink:href="#DejaVuSans-101"/>
      <use x="501.066406" xlink:href="#DejaVuSans-97"/>
      <use x="562.345703" xlink:href="#DejaVuSans-100"/>
      <use x="625.822266" xlink:href="#DejaVuSans-105"/>
      <use x="653.605469" xlink:href="#DejaVuSans-110"/>
      <use x="716.984375" xlink:href="#DejaVuSans-103"/>
     </g>
    </g>
   </g>
   <g id="line2d_11">
    <path clip-path="url(#p3b32352f8f)" d="M 104.812798 384.260388 
L 113.87124 386.259055 
L 122.929681 396.824024 
L 131.988123 401.436926 
L 141.046565 403.839909 
L 150.105006 401.546704 
L 159.163448 394.610102 
L 168.221889 397.085385 
L 177.280331 397.60278 
L 186.338772 393.982164 
L 195.397214 393.215876 
L 204.455655 400.825565 
L 213.514097 410.012914 
L 222.572539 406.671274 
L 231.63098 406.871834 
L 240.689422 409.866853 
L 249.747863 407.039451 
L 258.806305 395.68411 
L 267.864746 393.770219 
L 276.923188 397.203858 
L 285.981629 398.282224 
L 295.040071 392.833312 
L 304.098513 394.160386 
L 313.156954 389.091399 
L 322.215396 386.127752 
L 331.273837 373.949086 
L 340.332279 373.257446 
L 349.39072 368.013046 
L 358.449162 363.07342 
L 367.507603 363.777048 
L 376.566045 374.615022 
L 385.624487 369.011152 
L 394.682928 356.669607 
L 403.74137 350.185231 
L 412.799811 353.249354 
L 421.858253 353.050602 
L 430.916694 352.809465 
L 439.975136 353.370014 
L 449.033578 357.290827 
L 458.092019 359.322976 
L 467.150461 354.16354 
L 476.208902 345.895871 
L 485.267344 355.330041 
L 494.325785 346.517306 
L 503.384227 338.625199 
L 512.442668 346.796437 
L 521.50111 341.562336 
L 530.559552 328.726385 
L 539.617993 336.818067 
L 548.676435 331.993033 
L 557.734876 331.818108 
L 566.793318 333.431508 
L 575.851759 352.123723 
L 584.910201 373.455246 
L 593.968642 379.942133 
L 603.027084 400.92948 
L 612.085526 409.558735 
L 621.143967 413.239443 
L 630.202409 421.897807 
L 639.26085 433.457792 
L 648.319292 430.523008 
L 657.377733 428.109648 
L 666.436175 425.382432 
L 675.494616 426.599754 
L 684.553058 422.523994 
L 693.6115 413.9061 
L 702.669941 414.192897 
L 711.728383 406.851841 
L 720.786824 395.580557 
L 729.845266 397.130479 
L 738.903707 395.046578 
L 747.962149 384.489058 
L 757.020591 389.727764 
L 766.079032 389.823355 
L 775.137474 393.865757 
L 784.195915 402.912695 
L 793.254357 405.114885 
L 802.312798 402.892827 
L 811.37124 399.723105 
L 820.429681 404.863083 
L 829.488123 408.797419 
L 838.546565 398.197537 
L 847.605006 391.816048 
L 856.663448 398.372188 
L 865.721889 411.337728 
" style="fill:none;stroke:#fb694a;stroke-linecap:round;stroke-width:1.5;"/>
   </g>
   <g id="line2d_12"/>
   <g id="line2d_13"/>
   <g id="line2d_14">
    <path clip-path="url(#p3b32352f8f)" d="M 104.812798 376.746436 
L 113.87124 375.643223 
L 122.929681 365.781817 
L 131.988123 366.943677 
L 141.046565 374.903874 
L 150.105006 378.387644 
L 159.163448 380.259807 
L 168.221889 385.096197 
L 177.280331 397.536677 
L 186.338772 406.983559 
L 195.397214 408.720031 
L 204.455655 410.138159 
L 213.514097 413.82913 
L 222.572539 416.577188 
L 231.63098 419.281779 
L 240.689422 421.61602 
L 249.747863 424.00748 
L 258.806305 424.622906 
L 267.864746 425.859615 
L 276.923188 427.179432 
L 285.981629 432.732652 
L 295.040071 431.603868 
L 304.098513 428.208828 
L 313.156954 419.491671 
L 322.215396 398.634463 
L 331.273837 383.789031 
L 340.332279 364.626169 
L 349.39072 342.927303 
L 358.449162 322.385065 
L 367.507603 309.303626 
L 376.566045 311.849539 
L 385.624487 315.264123 
L 394.682928 316.60271 
L 403.74137 310.343496 
L 412.799811 302.78881 
L 421.858253 305.428915 
L 430.916694 308.423613 
L 439.975136 313.688172 
L 449.033578 316.844834 
L 458.092019 323.002867 
L 467.150461 338.221251 
L 476.208902 352.285216 
L 485.267344 357.972426 
L 494.325785 363.240554 
L 503.384227 365.815494 
L 512.442668 367.357018 
L 521.50111 376.42922 
L 530.559552 382.328102 
L 539.617993 385.399103 
L 548.676435 387.841404 
L 557.734876 387.492941 
L 566.793318 389.890747 
L 575.851759 396.844549 
L 584.910201 389.256564 
L 593.968642 370.744376 
L 603.027084 351.23563 
L 612.085526 342.93138 
L 621.143967 338.211054 
L 630.202409 331.371071 
L 639.26085 324.559949 
L 648.319292 317.114432 
L 657.377733 314.065589 
L 666.436175 317.718358 
L 675.494616 322.52009 
L 684.553058 328.286212 
L 693.6115 333.538375 
L 702.669941 333.237909 
L 711.728383 334.02166 
L 720.786824 328.177311 
L 729.845266 321.332281 
L 738.903707 324.67068 
L 747.962149 332.029466 
L 757.020591 336.618852 
L 766.079032 337.92416 
L 775.137474 347.603615 
L 784.195915 352.114016 
L 793.254357 354.369439 
L 802.312798 362.975569 
L 811.37124 377.447069 
L 820.429681 387.690977 
L 829.488123 394.3736 
L 838.546565 397.283978 
L 847.605006 405.094377 
L 856.663448 408.769813 
L 865.721889 408.263361 
" style="fill:none;stroke:#6aaed6;stroke-linecap:round;stroke-width:1.5;"/>
   </g>
   <g id="line2d_15"/>
   <g id="line2d_16"/>
   <g id="line2d_17">
    <path clip-path="url(#p3b32352f8f)" d="M 104.812798 347.331383 
L 113.87124 357.039829 
L 122.929681 368.626614 
L 131.988123 368.350462 
L 141.046565 369.131125 
L 150.105006 369.365418 
L 159.163448 372.818893 
L 168.221889 363.088537 
L 177.280331 350.886011 
L 186.338772 359.31045 
L 195.397214 375.898168 
L 204.455655 394.869513 
L 213.514097 408.847577 
L 222.572539 418.924455 
L 231.63098 420.966089 
L 240.689422 418.379731 
L 249.747863 418.9058 
L 258.806305 424.747874 
L 267.864746 437.881951 
L 276.923188 445.831739 
L 285.981629 447.36252 
L 295.040071 460.681987 
L 304.098513 462.460522 
L 313.156954 447.634365 
L 322.215396 434.904846 
L 331.273837 416.999395 
L 340.332279 394.148163 
L 349.39072 388.968643 
L 358.449162 398.680492 
L 367.507603 387.698391 
L 376.566045 354.935 
L 385.624487 330.233385 
L 394.682928 318.573735 
L 403.74137 331.106049 
L 412.799811 353.71733 
L 421.858253 359.910622 
L 430.916694 357.010432 
L 439.975136 360.371332 
L 449.033578 367.307329 
L 458.092019 374.788086 
L 467.150461 371.811277 
L 476.208902 371.968841 
L 485.267344 384.293209 
L 494.325785 405.912572 
L 503.384227 419.867988 
L 512.442668 416.776454 
L 521.50111 415.296259 
L 530.559552 412.015157 
L 539.617993 416.355144 
L 548.676435 415.816836 
L 557.734876 418.287951 
L 566.793318 429.444774 
L 575.851759 447.862113 
L 584.910201 461.956455 
L 593.968642 465.483738 
L 603.027084 449.314057 
L 612.085526 429.990718 
L 621.143967 411.639515 
L 630.202409 401.036957 
L 639.26085 397.191274 
L 648.319292 395.225667 
L 657.377733 395.330722 
L 666.436175 391.086563 
L 675.494616 379.429168 
L 684.553058 373.242162 
L 693.6115 369.411234 
L 702.669941 357.758591 
L 711.728383 354.224781 
L 720.786824 351.484816 
L 729.845266 349.650851 
L 738.903707 341.295654 
L 747.962149 329.141792 
L 757.020591 326.216086 
L 766.079032 331.720292 
L 775.137474 345.40194 
L 784.195915 364.079827 
L 793.254357 384.8146 
L 802.312798 389.16165 
L 811.37124 385.148216 
L 820.429681 392.538784 
L 829.488123 416.109554 
L 838.546565 428.591042 
L 847.605006 438.337096 
L 856.663448 442.22168 
L 865.721889 439.747791 
" style="fill:none;stroke:#959595;stroke-linecap:round;stroke-width:1.5;"/>
   </g>
   <g id="line2d_18"/>
   <g id="line2d_19"/>
   <g id="line2d_20">
    <path clip-path="url(#p3b32352f8f)" d="M 104.812798 510.580261 
L 113.87124 561.628498 
L 122.929681 595.023937 
L 131.988123 583.554058 
L 141.046565 570.80851 
L 150.105006 540.389658 
L 159.163448 484.588703 
L 168.221889 397.862516 
L 177.280331 400.7352 
L 186.338772 461.383692 
L 195.397214 512.74873 
L 204.455655 524.146825 
L 213.514097 526.187211 
L 222.572539 474.749372 
L 231.63098 388.78938 
L 240.689422 335.442861 
L 249.747863 351.436606 
L 258.806305 377.445817 
L 267.864746 388.378471 
L 276.923188 384.522085 
L 285.981629 373.15621 
L 295.040071 335.723964 
L 304.098513 273.071192 
L 313.156954 239.141198 
L 322.215396 224.316447 
L 331.273837 167.291369 
L 340.332279 138.898787 
L 349.39072 198.555483 
L 358.449162 228.587452 
L 367.507603 134.194824 
L 376.566045 49.405348 
L 385.624487 39.96 
L 394.682928 124.956554 
L 403.74137 283.973855 
L 412.799811 348.802653 
L 421.858253 347.119147 
L 430.916694 343.864655 
L 439.975136 406.963346 
L 449.033578 447.420275 
L 458.092019 437.601509 
L 467.150461 420.361999 
L 476.208902 459.151608 
L 485.267344 511.309293 
L 494.325785 525.805246 
L 503.384227 464.615262 
L 512.442668 411.695239 
L 521.50111 385.512548 
L 530.559552 348.47196 
L 539.617993 313.135281 
L 548.676435 273.733128 
L 557.734876 288.212809 
L 566.793318 318.909283 
L 575.851759 332.5015 
L 584.910201 316.231649 
L 593.968642 256.988178 
L 603.027084 181.173605 
L 612.085526 133.724333 
L 621.143967 91.359547 
L 630.202409 111.874948 
L 639.26085 152.711282 
L 648.319292 198.167916 
L 657.377733 212.25686 
L 666.436175 185.157549 
L 675.494616 179.728021 
L 684.553058 201.995887 
L 693.6115 184.986119 
L 702.669941 157.081758 
L 711.728383 161.100074 
L 720.786824 164.252621 
L 729.845266 156.069557 
L 738.903707 128.930329 
L 747.962149 160.678098 
L 757.020591 251.880479 
L 766.079032 354.4642 
L 775.137474 439.5377 
L 784.195915 523.24639 
L 793.254357 530.534723 
L 802.312798 481.534785 
L 811.37124 460.538605 
L 820.429681 558.649748 
L 829.488123 660.4533 
L 838.546565 695.16 
L 847.605006 674.372219 
L 856.663448 630.934089 
L 865.721889 583.150239 
" style="fill:none;stroke:#fd8c3b;stroke-linecap:round;stroke-width:1.5;"/>
   </g>
   <g id="line2d_21"/>
   <g id="line2d_22"/>
   <g id="line2d_23">
    <path clip-path="url(#p3b32352f8f)" d="M 104.812798 415.495293 
L 113.87124 398.134276 
L 122.929681 366.229448 
L 131.988123 319.248742 
L 141.046565 328.009606 
L 150.105006 363.928034 
L 159.163448 347.025167 
L 168.221889 346.447292 
L 177.280331 379.833991 
L 186.338772 381.252197 
L 195.397214 332.976072 
L 204.455655 337.686409 
L 213.514097 319.394694 
L 222.572539 285.799472 
L 231.63098 302.539799 
L 240.689422 336.180957 
L 249.747863 309.018553 
L 258.806305 290.553235 
L 267.864746 299.705799 
L 276.923188 305.83028 
L 285.981629 306.03126 
L 295.040071 359.773408 
L 304.098513 372.795442 
L 313.156954 338.494759 
L 322.215396 334.758157 
L 331.273837 333.82844 
L 340.332279 370.294358 
L 349.39072 376.930743 
L 358.449162 324.05518 
L 367.507603 322.503695 
L 376.566045 340.408901 
L 385.624487 362.186831 
L 394.682928 368.481792 
L 403.74137 329.395147 
L 412.799811 292.468006 
L 421.858253 290.537825 
L 430.916694 339.078735 
L 439.975136 315.754207 
L 449.033578 286.024299 
L 458.092019 303.725723 
L 467.150461 343.858069 
L 476.208902 350.858271 
L 485.267344 366.71958 
L 494.325785 373.802157 
L 503.384227 382.794043 
L 512.442668 385.538143 
L 521.50111 367.083349 
L 530.559552 368.934199 
L 539.617993 362.431161 
L 548.676435 338.425749 
L 557.734876 315.608453 
L 566.793318 290.146162 
L 575.851759 275.564125 
L 584.910201 283.959979 
L 593.968642 286.545986 
L 603.027084 299.607928 
L 612.085526 328.654666 
L 621.143967 364.142344 
L 630.202409 400.989371 
L 639.26085 395.790372 
L 648.319292 387.063727 
L 657.377733 382.954378 
L 666.436175 404.332829 
L 675.494616 443.423061 
L 684.553058 449.301928 
L 693.6115 438.275481 
L 702.669941 472.297559 
L 711.728383 501.810069 
L 720.786824 495.649706 
L 729.845266 450.31491 
L 738.903707 427.881997 
L 747.962149 443.607027 
L 757.020591 432.800826 
L 766.079032 411.168433 
L 775.137474 413.981147 
L 784.195915 402.361597 
L 793.254357 373.089526 
L 802.312798 386.593433 
L 811.37124 438.737554 
L 820.429681 386.398175 
L 829.488123 303.941786 
L 838.546565 268.662398 
L 847.605006 277.574632 
L 856.663448 323.70632 
L 865.721889 353.358948 
" style="fill:none;stroke:#9e9ac8;stroke-linecap:round;stroke-width:1.5;"/>
   </g>
   <g id="line2d_24"/>
   <g id="line2d_25"/>
   <g id="line2d_26">
    <path clip-path="url(#p3b32352f8f)" d="M 104.812798 400.151192 
L 113.87124 425.038383 
L 122.929681 434.668367 
L 131.988123 452.432441 
L 141.046565 477.676326 
L 150.105006 481.731684 
L 159.163448 446.184191 
L 168.221889 391.386603 
L 177.280331 397.53602 
L 186.338772 395.090921 
L 195.397214 381.846146 
L 204.455655 378.126317 
L 213.514097 393.922966 
L 222.572539 390.466392 
L 231.63098 386.056403 
L 240.689422 412.734274 
L 249.747863 432.245207 
L 258.806305 420.04358 
L 267.864746 388.14319 
L 276.923188 372.350602 
L 285.981629 362.684584 
L 295.040071 349.62612 
L 304.098513 321.288309 
L 313.156954 299.187792 
L 322.215396 280.442116 
L 331.273837 246.567395 
L 340.332279 234.805805 
L 349.39072 229.955705 
L 358.449162 194.263956 
L 367.507603 136.262194 
L 376.566045 137.064655 
L 385.624487 164.31798 
L 394.682928 200.624056 
L 403.74137 207.936193 
L 412.799811 212.343 
L 421.858253 235.497795 
L 430.916694 265.851463 
L 439.975136 289.358963 
L 449.033578 295.499709 
L 458.092019 308.812003 
L 467.150461 332.54763 
L 476.208902 330.874954 
L 485.267344 351.295581 
L 494.325785 386.215658 
L 503.384227 359.831515 
L 512.442668 349.706522 
L 521.50111 358.334942 
L 530.559552 355.207092 
L 539.617993 355.679875 
L 548.676435 361.988712 
L 557.734876 384.696477 
L 566.793318 371.404535 
L 575.851759 360.780527 
L 584.910201 411.804788 
L 593.968642 424.159987 
L 603.027084 396.264337 
L 612.085526 381.649141 
L 621.143967 377.741047 
L 630.202409 376.373102 
L 639.26085 391.154472 
L 648.319292 402.171574 
L 657.377733 379.073832 
L 666.436175 354.334776 
L 675.494616 348.586879 
L 684.553058 328.923968 
L 693.6115 297.677552 
L 702.669941 292.410219 
L 711.728383 315.834297 
L 720.786824 301.440848 
L 729.845266 264.120972 
L 738.903707 267.694284 
L 747.962149 274.419663 
L 757.020591 287.114551 
L 766.079032 296.72373 
L 775.137474 303.619596 
L 784.195915 298.03549 
L 793.254357 269.772452 
L 802.312798 253.438403 
L 811.37124 271.37254 
L 820.429681 297.262833 
L 829.488123 318.802629 
L 838.546565 328.020603 
L 847.605006 334.333084 
L 856.663448 309.08754 
L 865.721889 316.57353 
" style="fill:none;stroke:#73c476;stroke-linecap:round;stroke-width:1.5;"/>
   </g>
   <g id="line2d_27"/>
   <g id="line2d_28"/>
   <g id="patch_3">
    <path d="M 66.767344 727.92 
L 66.767344 7.2 
" style="fill:none;stroke:#ffffff;stroke-linecap:square;stroke-linejoin:miter;stroke-width:1.25;"/>
   </g>
   <g id="patch_4">
    <path d="M 903.767344 727.92 
L 903.767344 7.2 
" style="fill:none;stroke:#ffffff;stroke-linecap:square;stroke-linejoin:miter;stroke-width:1.25;"/>
   </g>
   <g id="patch_5">
    <path d="M 66.767344 727.92 
L 903.767344 727.92 
" style="fill:none;stroke:#ffffff;stroke-linecap:square;stroke-linejoin:miter;stroke-width:1.25;"/>
   </g>
   <g id="patch_6">
    <path d="M 66.767344 7.2 
L 903.767344 7.2 
" style="fill:none;stroke:#ffffff;stroke-linecap:square;stroke-linejoin:miter;stroke-width:1.25;"/>
   </g>
   <g id="legend_1">
    <g id="patch_7">
     <path d="M 823.161406 211.586875 
L 896.067344 211.586875 
Q 898.267344 211.586875 898.267344 209.386875 
L 898.267344 14.9 
Q 898.267344 12.7 896.067344 12.7 
L 823.161406 12.7 
Q 820.961406 12.7 820.961406 14.9 
L 820.961406 209.386875 
Q 820.961406 211.586875 823.161406 211.586875 
z
" style="fill:#eaeaf2;opacity:0.8;stroke:#cccccc;stroke-linejoin:miter;"/>
    </g>
    <g id="line2d_29">
     <path d="M 825.361406 21.608281 
L 847.361406 21.608281 
" style="fill:none;"/>
    </g>
    <g id="line2d_30"/>
    <g id="text_13">
     <!-- Sensor -->
     <g style="fill:#262626;" transform="translate(856.161406 25.458281)scale(0.11 -0.11)">
      <use xlink:href="#DejaVuSans-83"/>
      <use x="63.476562" xlink:href="#DejaVuSans-101"/>
      <use x="125" xlink:href="#DejaVuSans-110"/>
      <use x="188.378906" xlink:href="#DejaVuSans-115"/>
      <use x="240.478516" xlink:href="#DejaVuSans-111"/>
      <use x="301.660156" xlink:href="#DejaVuSans-114"/>
     </g>
    </g>
    <g id="line2d_31">
     <path d="M 825.361406 37.754219 
L 847.361406 37.754219 
" style="fill:none;stroke:#fb694a;stroke-linecap:round;stroke-width:1.5;"/>
    </g>
    <g id="line2d_32"/>
    <g id="text_14">
     <!-- acc_x -->
     <defs>
      <path d="M 48.78125 52.59375 
L 48.78125 44.1875 
Q 44.96875 46.296875 41.140625 47.34375 
Q 37.3125 48.390625 33.40625 48.390625 
Q 24.65625 48.390625 19.8125 42.84375 
Q 14.984375 37.3125 14.984375 27.296875 
Q 14.984375 17.28125 19.8125 11.734375 
Q 24.65625 6.203125 33.40625 6.203125 
Q 37.3125 6.203125 41.140625 7.25 
Q 44.96875 8.296875 48.78125 10.40625 
L 48.78125 2.09375 
Q 45.015625 0.34375 40.984375 -0.53125 
Q 36.96875 -1.421875 32.421875 -1.421875 
Q 20.0625 -1.421875 12.78125 6.34375 
Q 5.515625 14.109375 5.515625 27.296875 
Q 5.515625 40.671875 12.859375 48.328125 
Q 20.21875 56 33.015625 56 
Q 37.15625 56 41.109375 55.140625 
Q 45.0625 54.296875 48.78125 52.59375 
z
" id="DejaVuSans-99"/>
      <path d="M 50.984375 -16.609375 
L 50.984375 -23.578125 
L -0.984375 -23.578125 
L -0.984375 -16.609375 
z
" id="DejaVuSans-95"/>
     </defs>
     <g style="fill:#262626;" transform="translate(856.161406 41.604219)scale(0.11 -0.11)">
      <use xlink:href="#DejaVuSans-97"/>
      <use x="61.279297" xlink:href="#DejaVuSans-99"/>
      <use x="116.259766" xlink:href="#DejaVuSans-99"/>
      <use x="171.240234" xlink:href="#DejaVuSans-95"/>
      <use x="221.240234" xlink:href="#DejaVuSans-120"/>
     </g>
    </g>
    <g id="line2d_33">
     <path d="M 825.361406 54.206094 
L 847.361406 54.206094 
" style="fill:none;"/>
    </g>
    <g id="line2d_34"/>
    <g id="text_15">
     <!-- Sensor -->
     <g style="fill:#262626;" transform="translate(856.161406 58.056094)scale(0.11 -0.11)">
      <use xlink:href="#DejaVuSans-83"/>
      <use x="63.476562" xlink:href="#DejaVuSans-101"/>
      <use x="125" xlink:href="#DejaVuSans-110"/>
      <use x="188.378906" xlink:href="#DejaVuSans-115"/>
      <use x="240.478516" xlink:href="#DejaVuSans-111"/>
      <use x="301.660156" xlink:href="#DejaVuSans-114"/>
     </g>
    </g>
    <g id="line2d_35">
     <path d="M 825.361406 70.352031 
L 847.361406 70.352031 
" style="fill:none;stroke:#6aaed6;stroke-linecap:round;stroke-width:1.5;"/>
    </g>
    <g id="line2d_36"/>
    <g id="text_16">
     <!-- acc_y -->
     <defs>
      <path d="M 32.171875 -5.078125 
Q 28.375 -14.84375 24.75 -17.8125 
Q 21.140625 -20.796875 15.09375 -20.796875 
L 7.90625 -20.796875 
L 7.90625 -13.28125 
L 13.1875 -13.28125 
Q 16.890625 -13.28125 18.9375 -11.515625 
Q 21 -9.765625 23.484375 -3.21875 
L 25.09375 0.875 
L 2.984375 54.6875 
L 12.5 54.6875 
L 29.59375 11.921875 
L 46.6875 54.6875 
L 56.203125 54.6875 
z
" id="DejaVuSans-121"/>
     </defs>
     <g style="fill:#262626;" transform="translate(856.161406 74.202031)scale(0.11 -0.11)">
      <use xlink:href="#DejaVuSans-97"/>
      <use x="61.279297" xlink:href="#DejaVuSans-99"/>
      <use x="116.259766" xlink:href="#DejaVuSans-99"/>
      <use x="171.240234" xlink:href="#DejaVuSans-95"/>
      <use x="221.240234" xlink:href="#DejaVuSans-121"/>
     </g>
    </g>
    <g id="line2d_37">
     <path d="M 825.361406 86.803906 
L 847.361406 86.803906 
" style="fill:none;"/>
    </g>
    <g id="line2d_38"/>
    <g id="text_17">
     <!-- Sensor -->
     <g style="fill:#262626;" transform="translate(856.161406 90.653906)scale(0.11 -0.11)">
      <use xlink:href="#DejaVuSans-83"/>
      <use x="63.476562" xlink:href="#DejaVuSans-101"/>
      <use x="125" xlink:href="#DejaVuSans-110"/>
      <use x="188.378906" xlink:href="#DejaVuSans-115"/>
      <use x="240.478516" xlink:href="#DejaVuSans-111"/>
      <use x="301.660156" xlink:href="#DejaVuSans-114"/>
     </g>
    </g>
    <g id="line2d_39">
     <path d="M 825.361406 102.949844 
L 847.361406 102.949844 
" style="fill:none;stroke:#959595;stroke-linecap:round;stroke-width:1.5;"/>
    </g>
    <g id="line2d_40"/>
    <g id="text_18">
     <!-- acc_z -->
     <defs>
      <path d="M 5.515625 54.6875 
L 48.1875 54.6875 
L 48.1875 46.484375 
L 14.40625 7.171875 
L 48.1875 7.171875 
L 48.1875 0 
L 4.296875 0 
L 4.296875 8.203125 
L 38.09375 47.515625 
L 5.515625 47.515625 
z
" id="DejaVuSans-122"/>
     </defs>
     <g style="fill:#262626;" transform="translate(856.161406 106.799844)scale(0.11 -0.11)">
      <use xlink:href="#DejaVuSans-97"/>
      <use x="61.279297" xlink:href="#DejaVuSans-99"/>
      <use x="116.259766" xlink:href="#DejaVuSans-99"/>
      <use x="171.240234" xlink:href="#DejaVuSans-95"/>
      <use x="221.240234" xlink:href="#DejaVuSans-122"/>
     </g>
    </g>
    <g id="line2d_41">
     <path d="M 825.361406 119.401719 
L 847.361406 119.401719 
" style="fill:none;"/>
    </g>
    <g id="line2d_42"/>
    <g id="text_19">
     <!-- Sensor -->
     <g style="fill:#262626;" transform="translate(856.161406 123.251719)scale(0.11 -0.11)">
      <use xlink:href="#DejaVuSans-83"/>
      <use x="63.476562" xlink:href="#DejaVuSans-101"/>
      <use x="125" xlink:href="#DejaVuSans-110"/>
      <use x="188.378906" xlink:href="#DejaVuSans-115"/>
      <use x="240.478516" xlink:href="#DejaVuSans-111"/>
      <use x="301.660156" xlink:href="#DejaVuSans-114"/>
     </g>
    </g>
    <g id="line2d_43">
     <path d="M 825.361406 135.547656 
L 847.361406 135.547656 
" style="fill:none;stroke:#fd8c3b;stroke-linecap:round;stroke-width:1.5;"/>
    </g>
    <g id="line2d_44"/>
    <g id="text_20">
     <!-- gy_x -->
     <g style="fill:#262626;" transform="translate(856.161406 139.397656)scale(0.11 -0.11)">
      <use xlink:href="#DejaVuSans-103"/>
      <use x="63.476562" xlink:href="#DejaVuSans-121"/>
      <use x="122.65625" xlink:href="#DejaVuSans-95"/>
      <use x="172.65625" xlink:href="#DejaVuSans-120"/>
     </g>
    </g>
    <g id="line2d_45">
     <path d="M 825.361406 151.999531 
L 847.361406 151.999531 
" style="fill:none;"/>
    </g>
    <g id="line2d_46"/>
    <g id="text_21">
     <!-- Sensor -->
     <g style="fill:#262626;" transform="translate(856.161406 155.849531)scale(0.11 -0.11)">
      <use xlink:href="#DejaVuSans-83"/>
      <use x="63.476562" xlink:href="#DejaVuSans-101"/>
      <use x="125" xlink:href="#DejaVuSans-110"/>
      <use x="188.378906" xlink:href="#DejaVuSans-115"/>
      <use x="240.478516" xlink:href="#DejaVuSans-111"/>
      <use x="301.660156" xlink:href="#DejaVuSans-114"/>
     </g>
    </g>
    <g id="line2d_47">
     <path d="M 825.361406 168.145469 
L 847.361406 168.145469 
" style="fill:none;stroke:#9e9ac8;stroke-linecap:round;stroke-width:1.5;"/>
    </g>
    <g id="line2d_48"/>
    <g id="text_22">
     <!-- gy_y -->
     <g style="fill:#262626;" transform="translate(856.161406 171.995469)scale(0.11 -0.11)">
      <use xlink:href="#DejaVuSans-103"/>
      <use x="63.476562" xlink:href="#DejaVuSans-121"/>
      <use x="122.65625" xlink:href="#DejaVuSans-95"/>
      <use x="172.65625" xlink:href="#DejaVuSans-121"/>
     </g>
    </g>
    <g id="line2d_49">
     <path d="M 825.361406 184.597344 
L 847.361406 184.597344 
" style="fill:none;"/>
    </g>
    <g id="line2d_50"/>
    <g id="text_23">
     <!-- Sensor -->
     <g style="fill:#262626;" transform="translate(856.161406 188.447344)scale(0.11 -0.11)">
      <use xlink:href="#DejaVuSans-83"/>
      <use x="63.476562" xlink:href="#DejaVuSans-101"/>
      <use x="125" xlink:href="#DejaVuSans-110"/>
      <use x="188.378906" xlink:href="#DejaVuSans-115"/>
      <use x="240.478516" xlink:href="#DejaVuSans-111"/>
      <use x="301.660156" xlink:href="#DejaVuSans-114"/>
     </g>
    </g>
    <g id="line2d_51">
     <path d="M 825.361406 200.743281 
L 847.361406 200.743281 
" style="fill:none;stroke:#73c476;stroke-linecap:round;stroke-width:1.5;"/>
    </g>
    <g id="line2d_52"/>
    <g id="text_24">
     <!-- gy_z -->
     <g style="fill:#262626;" transform="translate(856.161406 204.593281)scale(0.11 -0.11)">
      <use xlink:href="#DejaVuSans-103"/>
      <use x="63.476562" xlink:href="#DejaVuSans-121"/>
      <use x="122.65625" xlink:href="#DejaVuSans-95"/>
      <use x="172.65625" xlink:href="#DejaVuSans-122"/>
     </g>
    </g>
   </g>
  </g>
 </g>
 <defs>
  <clipPath id="p3b32352f8f">
   <rect height="720.72" width="837" x="66.767344" y="7.2"/>
  </clipPath>
 </defs>
</svg>
