<?xml version="1.0" encoding="utf-8" standalone="no"?>
<!DOCTYPE svg PUBLIC "-//W3C//DTD SVG 1.1//EN"
  "http://www.w3.org/Graphics/SVG/1.1/DTD/svg11.dtd">
<!-- Created with matplotlib (https://matplotlib.org/) -->
<svg height="788.300312pt" version="1.1" viewBox="0 0 910.967344 788.300312" width="910.967344pt" xmlns="http://www.w3.org/2000/svg" xmlns:xlink="http://www.w3.org/1999/xlink">
 <defs>
  <style type="text/css">
*{stroke-linecap:butt;stroke-linejoin:round;}
  </style>
 </defs>
 <g id="figure_1">
  <g id="patch_1">
   <path d="M 0 788.300312 
L 910.967344 788.300312 
L 910.967344 0 
L 0 0 
z
" style="fill:#ffffff;"/>
  </g>
  <g id="axes_1">
   <g id="patch_2">
    <path d="M 66.767344 727.92 
L 903.767344 727.92 
L 903.767344 7.2 
L 66.767344 7.2 
z
" style="fill:#eaeaf2;"/>
   </g>
   <g id="matplotlib.axis_1">
    <g id="xtick_1">
     <g id="line2d_1">
      <path clip-path="url(#p625922d6b3)" d="M 104.812798 727.92 
L 104.812798 7.2 
" style="fill:none;stroke:#ffffff;stroke-linecap:round;"/>
     </g>
     <g id="text_1">
      <!-- 0 -->
      <defs>
       <path d="M 31.78125 66.40625 
Q 24.171875 66.40625 20.328125 58.90625 
Q 16.5 51.421875 16.5 36.375 
Q 16.5 21.390625 20.328125 13.890625 
Q 24.171875 6.390625 31.78125 6.390625 
Q 39.453125 6.390625 43.28125 13.890625 
Q 47.125 21.390625 47.125 36.375 
Q 47.125 51.421875 43.28125 58.90625 
Q 39.453125 66.40625 31.78125 66.40625 
z
M 31.78125 74.21875 
Q 44.046875 74.21875 50.515625 64.515625 
Q 56.984375 54.828125 56.984375 36.375 
Q 56.984375 17.96875 50.515625 8.265625 
Q 44.046875 -1.421875 31.78125 -1.421875 
Q 19.53125 -1.421875 13.0625 8.265625 
Q 6.59375 17.96875 6.59375 36.375 
Q 6.59375 54.828125 13.0625 64.515625 
Q 19.53125 74.21875 31.78125 74.21875 
z
" id="DejaVuSans-48"/>
      </defs>
      <g style="fill:#262626;" transform="translate(101.313423 745.778281)scale(0.11 -0.11)">
       <use xlink:href="#DejaVuSans-48"/>
      </g>
     </g>
    </g>
    <g id="xtick_2">
     <g id="line2d_2">
      <path clip-path="url(#p625922d6b3)" d="M 256.994616 727.92 
L 256.994616 7.2 
" style="fill:none;stroke:#ffffff;stroke-linecap:round;"/>
     </g>
     <g id="text_2">
      <!-- 20 -->
      <defs>
       <path d="M 19.1875 8.296875 
L 53.609375 8.296875 
L 53.609375 0 
L 7.328125 0 
L 7.328125 8.296875 
Q 12.9375 14.109375 22.625 23.890625 
Q 32.328125 33.6875 34.8125 36.53125 
Q 39.546875 41.84375 41.421875 45.53125 
Q 43.3125 49.21875 43.3125 52.78125 
Q 43.3125 58.59375 39.234375 62.25 
Q 35.15625 65.921875 28.609375 65.921875 
Q 23.96875 65.921875 18.8125 64.3125 
Q 13.671875 62.703125 7.8125 59.421875 
L 7.8125 69.390625 
Q 13.765625 71.78125 18.9375 73 
Q 24.125 74.21875 28.421875 74.21875 
Q 39.75 74.21875 46.484375 68.546875 
Q 53.21875 62.890625 53.21875 53.421875 
Q 53.21875 48.921875 51.53125 44.890625 
Q 49.859375 40.875 45.40625 35.40625 
Q 44.1875 33.984375 37.640625 27.21875 
Q 31.109375 20.453125 19.1875 8.296875 
z
" id="DejaVuSans-50"/>
      </defs>
      <g style="fill:#262626;" transform="translate(249.995866 745.778281)scale(0.11 -0.11)">
       <use xlink:href="#DejaVuSans-50"/>
       <use x="63.623047" xlink:href="#DejaVuSans-48"/>
      </g>
     </g>
    </g>
    <g id="xtick_3">
     <g id="line2d_3">
      <path clip-path="url(#p625922d6b3)" d="M 409.176435 727.92 
L 409.176435 7.2 
" style="fill:none;stroke:#ffffff;stroke-linecap:round;"/>
     </g>
     <g id="text_3">
      <!-- 40 -->
      <defs>
       <path d="M 37.796875 64.3125 
L 12.890625 25.390625 
L 37.796875 25.390625 
z
M 35.203125 72.90625 
L 47.609375 72.90625 
L 47.609375 25.390625 
L 58.015625 25.390625 
L 58.015625 17.1875 
L 47.609375 17.1875 
L 47.609375 0 
L 37.796875 0 
L 37.796875 17.1875 
L 4.890625 17.1875 
L 4.890625 26.703125 
z
" id="DejaVuSans-52"/>
      </defs>
      <g style="fill:#262626;" transform="translate(402.177685 745.778281)scale(0.11 -0.11)">
       <use xlink:href="#DejaVuSans-52"/>
       <use x="63.623047" xlink:href="#DejaVuSans-48"/>
      </g>
     </g>
    </g>
    <g id="xtick_4">
     <g id="line2d_4">
      <path clip-path="url(#p625922d6b3)" d="M 561.358253 727.92 
L 561.358253 7.2 
" style="fill:none;stroke:#ffffff;stroke-linecap:round;"/>
     </g>
     <g id="text_4">
      <!-- 60 -->
      <defs>
       <path d="M 33.015625 40.375 
Q 26.375 40.375 22.484375 35.828125 
Q 18.609375 31.296875 18.609375 23.390625 
Q 18.609375 15.53125 22.484375 10.953125 
Q 26.375 6.390625 33.015625 6.390625 
Q 39.65625 6.390625 43.53125 10.953125 
Q 47.40625 15.53125 47.40625 23.390625 
Q 47.40625 31.296875 43.53125 35.828125 
Q 39.65625 40.375 33.015625 40.375 
z
M 52.59375 71.296875 
L 52.59375 62.3125 
Q 48.875 64.0625 45.09375 64.984375 
Q 41.3125 65.921875 37.59375 65.921875 
Q 27.828125 65.921875 22.671875 59.328125 
Q 17.53125 52.734375 16.796875 39.40625 
Q 19.671875 43.65625 24.015625 45.921875 
Q 28.375 48.1875 33.59375 48.1875 
Q 44.578125 48.1875 50.953125 41.515625 
Q 57.328125 34.859375 57.328125 23.390625 
Q 57.328125 12.15625 50.6875 5.359375 
Q 44.046875 -1.421875 33.015625 -1.421875 
Q 20.359375 -1.421875 13.671875 8.265625 
Q 6.984375 17.96875 6.984375 36.375 
Q 6.984375 53.65625 15.1875 63.9375 
Q 23.390625 74.21875 37.203125 74.21875 
Q 40.921875 74.21875 44.703125 73.484375 
Q 48.484375 72.75 52.59375 71.296875 
z
" id="DejaVuSans-54"/>
      </defs>
      <g style="fill:#262626;" transform="translate(554.359503 745.778281)scale(0.11 -0.11)">
       <use xlink:href="#DejaVuSans-54"/>
       <use x="63.623047" xlink:href="#DejaVuSans-48"/>
      </g>
     </g>
    </g>
    <g id="xtick_5">
     <g id="line2d_5">
      <path clip-path="url(#p625922d6b3)" d="M 713.540071 727.92 
L 713.540071 7.2 
" style="fill:none;stroke:#ffffff;stroke-linecap:round;"/>
     </g>
     <g id="text_5">
      <!-- 80 -->
      <defs>
       <path d="M 31.78125 34.625 
Q 24.75 34.625 20.71875 30.859375 
Q 16.703125 27.09375 16.703125 20.515625 
Q 16.703125 13.921875 20.71875 10.15625 
Q 24.75 6.390625 31.78125 6.390625 
Q 38.8125 6.390625 42.859375 10.171875 
Q 46.921875 13.96875 46.921875 20.515625 
Q 46.921875 27.09375 42.890625 30.859375 
Q 38.875 34.625 31.78125 34.625 
z
M 21.921875 38.8125 
Q 15.578125 40.375 12.03125 44.71875 
Q 8.5 49.078125 8.5 55.328125 
Q 8.5 64.0625 14.71875 69.140625 
Q 20.953125 74.21875 31.78125 74.21875 
Q 42.671875 74.21875 48.875 69.140625 
Q 55.078125 64.0625 55.078125 55.328125 
Q 55.078125 49.078125 51.53125 44.71875 
Q 48 40.375 41.703125 38.8125 
Q 48.828125 37.15625 52.796875 32.3125 
Q 56.78125 27.484375 56.78125 20.515625 
Q 56.78125 9.90625 50.3125 4.234375 
Q 43.84375 -1.421875 31.78125 -1.421875 
Q 19.734375 -1.421875 13.25 4.234375 
Q 6.78125 9.90625 6.78125 20.515625 
Q 6.78125 27.484375 10.78125 32.3125 
Q 14.796875 37.15625 21.921875 38.8125 
z
M 18.3125 54.390625 
Q 18.3125 48.734375 21.84375 45.5625 
Q 25.390625 42.390625 31.78125 42.390625 
Q 38.140625 42.390625 41.71875 45.5625 
Q 45.3125 48.734375 45.3125 54.390625 
Q 45.3125 60.0625 41.71875 63.234375 
Q 38.140625 66.40625 31.78125 66.40625 
Q 25.390625 66.40625 21.84375 63.234375 
Q 18.3125 60.0625 18.3125 54.390625 
z
" id="DejaVuSans-56"/>
      </defs>
      <g style="fill:#262626;" transform="translate(706.541321 745.778281)scale(0.11 -0.11)">
       <use xlink:href="#DejaVuSans-56"/>
       <use x="63.623047" xlink:href="#DejaVuSans-48"/>
      </g>
     </g>
    </g>
    <g id="xtick_6">
     <g id="line2d_6">
      <path clip-path="url(#p625922d6b3)" d="M 865.721889 727.92 
L 865.721889 7.2 
" style="fill:none;stroke:#ffffff;stroke-linecap:round;"/>
     </g>
     <g id="text_6">
      <!-- 100 -->
      <defs>
       <path d="M 12.40625 8.296875 
L 28.515625 8.296875 
L 28.515625 63.921875 
L 10.984375 60.40625 
L 10.984375 69.390625 
L 28.421875 72.90625 
L 38.28125 72.90625 
L 38.28125 8.296875 
L 54.390625 8.296875 
L 54.390625 0 
L 12.40625 0 
z
" id="DejaVuSans-49"/>
      </defs>
      <g style="fill:#262626;" transform="translate(855.223764 745.778281)scale(0.11 -0.11)">
       <use xlink:href="#DejaVuSans-49"/>
       <use x="63.623047" xlink:href="#DejaVuSans-48"/>
       <use x="127.246094" xlink:href="#DejaVuSans-48"/>
      </g>
     </g>
    </g>
    <g id="text_7">
     <!-- Sample Index -->
     <defs>
      <path d="M 53.515625 70.515625 
L 53.515625 60.890625 
Q 47.90625 63.578125 42.921875 64.890625 
Q 37.9375 66.21875 33.296875 66.21875 
Q 25.25 66.21875 20.875 63.09375 
Q 16.5 59.96875 16.5 54.203125 
Q 16.5 49.359375 19.40625 46.890625 
Q 22.3125 44.4375 30.421875 42.921875 
L 36.375 41.703125 
Q 47.40625 39.59375 52.65625 34.296875 
Q 57.90625 29 57.90625 20.125 
Q 57.90625 9.515625 50.796875 4.046875 
Q 43.703125 -1.421875 29.984375 -1.421875 
Q 24.8125 -1.421875 18.96875 -0.25 
Q 13.140625 0.921875 6.890625 3.21875 
L 6.890625 13.375 
Q 12.890625 10.015625 18.65625 8.296875 
Q 24.421875 6.59375 29.984375 6.59375 
Q 38.421875 6.59375 43.015625 9.90625 
Q 47.609375 13.234375 47.609375 19.390625 
Q 47.609375 24.75 44.3125 27.78125 
Q 41.015625 30.8125 33.5 32.328125 
L 27.484375 33.5 
Q 16.453125 35.6875 11.515625 40.375 
Q 6.59375 45.0625 6.59375 53.421875 
Q 6.59375 63.09375 13.40625 68.65625 
Q 20.21875 74.21875 32.171875 74.21875 
Q 37.3125 74.21875 42.625 73.28125 
Q 47.953125 72.359375 53.515625 70.515625 
z
" id="DejaVuSans-83"/>
      <path d="M 34.28125 27.484375 
Q 23.390625 27.484375 19.1875 25 
Q 14.984375 22.515625 14.984375 16.5 
Q 14.984375 11.71875 18.140625 8.90625 
Q 21.296875 6.109375 26.703125 6.109375 
Q 34.1875 6.109375 38.703125 11.40625 
Q 43.21875 16.703125 43.21875 25.484375 
L 43.21875 27.484375 
z
M 52.203125 31.203125 
L 52.203125 0 
L 43.21875 0 
L 43.21875 8.296875 
Q 40.140625 3.328125 35.546875 0.953125 
Q 30.953125 -1.421875 24.3125 -1.421875 
Q 15.921875 -1.421875 10.953125 3.296875 
Q 6 8.015625 6 15.921875 
Q 6 25.140625 12.171875 29.828125 
Q 18.359375 34.515625 30.609375 34.515625 
L 43.21875 34.515625 
L 43.21875 35.40625 
Q 43.21875 41.609375 39.140625 45 
Q 35.0625 48.390625 27.6875 48.390625 
Q 23 48.390625 18.546875 47.265625 
Q 14.109375 46.140625 10.015625 43.890625 
L 10.015625 52.203125 
Q 14.9375 54.109375 19.578125 55.046875 
Q 24.21875 56 28.609375 56 
Q 40.484375 56 46.34375 49.84375 
Q 52.203125 43.703125 52.203125 31.203125 
z
" id="DejaVuSans-97"/>
      <path d="M 52 44.1875 
Q 55.375 50.25 60.0625 53.125 
Q 64.75 56 71.09375 56 
Q 79.640625 56 84.28125 50.015625 
Q 88.921875 44.046875 88.921875 33.015625 
L 88.921875 0 
L 79.890625 0 
L 79.890625 32.71875 
Q 79.890625 40.578125 77.09375 44.375 
Q 74.3125 48.1875 68.609375 48.1875 
Q 61.625 48.1875 57.5625 43.546875 
Q 53.515625 38.921875 53.515625 30.90625 
L 53.515625 0 
L 44.484375 0 
L 44.484375 32.71875 
Q 44.484375 40.625 41.703125 44.40625 
Q 38.921875 48.1875 33.109375 48.1875 
Q 26.21875 48.1875 22.15625 43.53125 
Q 18.109375 38.875 18.109375 30.90625 
L 18.109375 0 
L 9.078125 0 
L 9.078125 54.6875 
L 18.109375 54.6875 
L 18.109375 46.1875 
Q 21.1875 51.21875 25.484375 53.609375 
Q 29.78125 56 35.6875 56 
Q 41.65625 56 45.828125 52.96875 
Q 50 49.953125 52 44.1875 
z
" id="DejaVuSans-109"/>
      <path d="M 18.109375 8.203125 
L 18.109375 -20.796875 
L 9.078125 -20.796875 
L 9.078125 54.6875 
L 18.109375 54.6875 
L 18.109375 46.390625 
Q 20.953125 51.265625 25.265625 53.625 
Q 29.59375 56 35.59375 56 
Q 45.5625 56 51.78125 48.09375 
Q 58.015625 40.1875 58.015625 27.296875 
Q 58.015625 14.40625 51.78125 6.484375 
Q 45.5625 -1.421875 35.59375 -1.421875 
Q 29.59375 -1.421875 25.265625 0.953125 
Q 20.953125 3.328125 18.109375 8.203125 
z
M 48.6875 27.296875 
Q 48.6875 37.203125 44.609375 42.84375 
Q 40.53125 48.484375 33.40625 48.484375 
Q 26.265625 48.484375 22.1875 42.84375 
Q 18.109375 37.203125 18.109375 27.296875 
Q 18.109375 17.390625 22.1875 11.75 
Q 26.265625 6.109375 33.40625 6.109375 
Q 40.53125 6.109375 44.609375 11.75 
Q 48.6875 17.390625 48.6875 27.296875 
z
" id="DejaVuSans-112"/>
      <path d="M 9.421875 75.984375 
L 18.40625 75.984375 
L 18.40625 0 
L 9.421875 0 
z
" id="DejaVuSans-108"/>
      <path d="M 56.203125 29.59375 
L 56.203125 25.203125 
L 14.890625 25.203125 
Q 15.484375 15.921875 20.484375 11.0625 
Q 25.484375 6.203125 34.421875 6.203125 
Q 39.59375 6.203125 44.453125 7.46875 
Q 49.3125 8.734375 54.109375 11.28125 
L 54.109375 2.78125 
Q 49.265625 0.734375 44.1875 -0.34375 
Q 39.109375 -1.421875 33.890625 -1.421875 
Q 20.796875 -1.421875 13.15625 6.1875 
Q 5.515625 13.8125 5.515625 26.8125 
Q 5.515625 40.234375 12.765625 48.109375 
Q 20.015625 56 32.328125 56 
Q 43.359375 56 49.78125 48.890625 
Q 56.203125 41.796875 56.203125 29.59375 
z
M 47.21875 32.234375 
Q 47.125 39.59375 43.09375 43.984375 
Q 39.0625 48.390625 32.421875 48.390625 
Q 24.90625 48.390625 20.390625 44.140625 
Q 15.875 39.890625 15.1875 32.171875 
z
" id="DejaVuSans-101"/>
      <path id="DejaVuSans-32"/>
      <path d="M 9.8125 72.90625 
L 19.671875 72.90625 
L 19.671875 0 
L 9.8125 0 
z
" id="DejaVuSans-73"/>
      <path d="M 54.890625 33.015625 
L 54.890625 0 
L 45.90625 0 
L 45.90625 32.71875 
Q 45.90625 40.484375 42.875 44.328125 
Q 39.84375 48.1875 33.796875 48.1875 
Q 26.515625 48.1875 22.3125 43.546875 
Q 18.109375 38.921875 18.109375 30.90625 
L 18.109375 0 
L 9.078125 0 
L 9.078125 54.6875 
L 18.109375 54.6875 
L 18.109375 46.1875 
Q 21.34375 51.125 25.703125 53.5625 
Q 30.078125 56 35.796875 56 
Q 45.21875 56 50.046875 50.171875 
Q 54.890625 44.34375 54.890625 33.015625 
z
" id="DejaVuSans-110"/>
      <path d="M 45.40625 46.390625 
L 45.40625 75.984375 
L 54.390625 75.984375 
L 54.390625 0 
L 45.40625 0 
L 45.40625 8.203125 
Q 42.578125 3.328125 38.25 0.953125 
Q 33.9375 -1.421875 27.875 -1.421875 
Q 17.96875 -1.421875 11.734375 6.484375 
Q 5.515625 14.40625 5.515625 27.296875 
Q 5.515625 40.1875 11.734375 48.09375 
Q 17.96875 56 27.875 56 
Q 33.9375 56 38.25 53.625 
Q 42.578125 51.265625 45.40625 46.390625 
z
M 14.796875 27.296875 
Q 14.796875 17.390625 18.875 11.75 
Q 22.953125 6.109375 30.078125 6.109375 
Q 37.203125 6.109375 41.296875 11.75 
Q 45.40625 17.390625 45.40625 27.296875 
Q 45.40625 37.203125 41.296875 42.84375 
Q 37.203125 48.484375 30.078125 48.484375 
Q 22.953125 48.484375 18.875 42.84375 
Q 14.796875 37.203125 14.796875 27.296875 
z
" id="DejaVuSans-100"/>
      <path d="M 54.890625 54.6875 
L 35.109375 28.078125 
L 55.90625 0 
L 45.3125 0 
L 29.390625 21.484375 
L 13.484375 0 
L 2.875 0 
L 24.125 28.609375 
L 4.6875 54.6875 
L 15.28125 54.6875 
L 29.78125 35.203125 
L 44.28125 54.6875 
z
" id="DejaVuSans-120"/>
     </defs>
     <g style="fill:#262626;" transform="translate(382.955625 774.86125)scale(0.3 -0.3)">
      <use xlink:href="#DejaVuSans-83"/>
      <use x="63.476562" xlink:href="#DejaVuSans-97"/>
      <use x="124.755859" xlink:href="#DejaVuSans-109"/>
      <use x="222.167969" xlink:href="#DejaVuSans-112"/>
      <use x="285.644531" xlink:href="#DejaVuSans-108"/>
      <use x="313.427734" xlink:href="#DejaVuSans-101"/>
      <use x="374.951172" xlink:href="#DejaVuSans-32"/>
      <use x="406.738281" xlink:href="#DejaVuSans-73"/>
      <use x="436.230469" xlink:href="#DejaVuSans-110"/>
      <use x="499.609375" xlink:href="#DejaVuSans-100"/>
      <use x="563.085938" xlink:href="#DejaVuSans-101"/>
      <use x="622.859375" xlink:href="#DejaVuSans-120"/>
     </g>
    </g>
   </g>
   <g id="matplotlib.axis_2">
    <g id="ytick_1">
     <g id="line2d_7">
      <path clip-path="url(#p625922d6b3)" d="M 66.767344 615.517141 
L 903.767344 615.517141 
" style="fill:none;stroke:#ffffff;stroke-linecap:round;"/>
     </g>
     <g id="text_8">
      <!-- −0.5 -->
      <defs>
       <path d="M 10.59375 35.5 
L 73.1875 35.5 
L 73.1875 27.203125 
L 10.59375 27.203125 
z
" id="DejaVuSans-8722"/>
       <path d="M 10.6875 12.40625 
L 21 12.40625 
L 21 0 
L 10.6875 0 
z
" id="DejaVuSans-46"/>
       <path d="M 10.796875 72.90625 
L 49.515625 72.90625 
L 49.515625 64.59375 
L 19.828125 64.59375 
L 19.828125 46.734375 
Q 21.96875 47.46875 24.109375 47.828125 
Q 26.265625 48.1875 28.421875 48.1875 
Q 40.625 48.1875 47.75 41.5 
Q 54.890625 34.8125 54.890625 23.390625 
Q 54.890625 11.625 47.5625 5.09375 
Q 40.234375 -1.421875 26.90625 -1.421875 
Q 22.3125 -1.421875 17.546875 -0.640625 
Q 12.796875 0.140625 7.71875 1.703125 
L 7.71875 11.625 
Q 12.109375 9.234375 16.796875 8.0625 
Q 21.484375 6.890625 26.703125 6.890625 
Q 35.15625 6.890625 40.078125 11.328125 
Q 45.015625 15.765625 45.015625 23.390625 
Q 45.015625 31 40.078125 35.4375 
Q 35.15625 39.890625 26.703125 39.890625 
Q 22.75 39.890625 18.8125 39.015625 
Q 14.890625 38.140625 10.796875 36.28125 
z
" id="DejaVuSans-53"/>
      </defs>
      <g style="fill:#262626;" transform="translate(30.55625 619.696282)scale(0.11 -0.11)">
       <use xlink:href="#DejaVuSans-8722"/>
       <use x="83.789062" xlink:href="#DejaVuSans-48"/>
       <use x="147.412109" xlink:href="#DejaVuSans-46"/>
       <use x="179.199219" xlink:href="#DejaVuSans-53"/>
      </g>
     </g>
    </g>
    <g id="ytick_2">
     <g id="line2d_8">
      <path clip-path="url(#p625922d6b3)" d="M 66.767344 480.377657 
L 903.767344 480.377657 
" style="fill:none;stroke:#ffffff;stroke-linecap:round;"/>
     </g>
     <g id="text_9">
      <!-- 0.0 -->
      <g style="fill:#262626;" transform="translate(39.773906 484.556797)scale(0.11 -0.11)">
       <use xlink:href="#DejaVuSans-48"/>
       <use x="63.623047" xlink:href="#DejaVuSans-46"/>
       <use x="95.410156" xlink:href="#DejaVuSans-48"/>
      </g>
     </g>
    </g>
    <g id="ytick_3">
     <g id="line2d_9">
      <path clip-path="url(#p625922d6b3)" d="M 66.767344 345.238172 
L 903.767344 345.238172 
" style="fill:none;stroke:#ffffff;stroke-linecap:round;"/>
     </g>
     <g id="text_10">
      <!-- 0.5 -->
      <g style="fill:#262626;" transform="translate(39.773906 349.417312)scale(0.11 -0.11)">
       <use xlink:href="#DejaVuSans-48"/>
       <use x="63.623047" xlink:href="#DejaVuSans-46"/>
       <use x="95.410156" xlink:href="#DejaVuSans-53"/>
      </g>
     </g>
    </g>
    <g id="ytick_4">
     <g id="line2d_10">
      <path clip-path="url(#p625922d6b3)" d="M 66.767344 210.098687 
L 903.767344 210.098687 
" style="fill:none;stroke:#ffffff;stroke-linecap:round;"/>
     </g>
     <g id="text_11">
      <!-- 1.0 -->
      <g style="fill:#262626;" transform="translate(39.773906 214.277827)scale(0.11 -0.11)">
       <use xlink:href="#DejaVuSans-49"/>
       <use x="63.623047" xlink:href="#DejaVuSans-46"/>
       <use x="95.410156" xlink:href="#DejaVuSans-48"/>
      </g>
     </g>
    </g>
    <g id="ytick_5">
     <g id="line2d_11">
      <path clip-path="url(#p625922d6b3)" d="M 66.767344 74.959202 
L 903.767344 74.959202 
" style="fill:none;stroke:#ffffff;stroke-linecap:round;"/>
     </g>
     <g id="text_12">
      <!-- 1.5 -->
      <g style="fill:#262626;" transform="translate(39.773906 79.138343)scale(0.11 -0.11)">
       <use xlink:href="#DejaVuSans-49"/>
       <use x="63.623047" xlink:href="#DejaVuSans-46"/>
       <use x="95.410156" xlink:href="#DejaVuSans-53"/>
      </g>
     </g>
    </g>
    <g id="text_13">
     <!-- Sensor Reading -->
     <defs>
      <path d="M 44.28125 53.078125 
L 44.28125 44.578125 
Q 40.484375 46.53125 36.375 47.5 
Q 32.28125 48.484375 27.875 48.484375 
Q 21.1875 48.484375 17.84375 46.4375 
Q 14.5 44.390625 14.5 40.28125 
Q 14.5 37.15625 16.890625 35.375 
Q 19.28125 33.59375 26.515625 31.984375 
L 29.59375 31.296875 
Q 39.15625 29.25 43.1875 25.515625 
Q 47.21875 21.78125 47.21875 15.09375 
Q 47.21875 7.46875 41.1875 3.015625 
Q 35.15625 -1.421875 24.609375 -1.421875 
Q 20.21875 -1.421875 15.453125 -0.5625 
Q 10.6875 0.296875 5.421875 2 
L 5.421875 11.28125 
Q 10.40625 8.6875 15.234375 7.390625 
Q 20.0625 6.109375 24.8125 6.109375 
Q 31.15625 6.109375 34.5625 8.28125 
Q 37.984375 10.453125 37.984375 14.40625 
Q 37.984375 18.0625 35.515625 20.015625 
Q 33.0625 21.96875 24.703125 23.78125 
L 21.578125 24.515625 
Q 13.234375 26.265625 9.515625 29.90625 
Q 5.8125 33.546875 5.8125 39.890625 
Q 5.8125 47.609375 11.28125 51.796875 
Q 16.75 56 26.8125 56 
Q 31.78125 56 36.171875 55.265625 
Q 40.578125 54.546875 44.28125 53.078125 
z
" id="DejaVuSans-115"/>
      <path d="M 30.609375 48.390625 
Q 23.390625 48.390625 19.1875 42.75 
Q 14.984375 37.109375 14.984375 27.296875 
Q 14.984375 17.484375 19.15625 11.84375 
Q 23.34375 6.203125 30.609375 6.203125 
Q 37.796875 6.203125 41.984375 11.859375 
Q 46.1875 17.53125 46.1875 27.296875 
Q 46.1875 37.015625 41.984375 42.703125 
Q 37.796875 48.390625 30.609375 48.390625 
z
M 30.609375 56 
Q 42.328125 56 49.015625 48.375 
Q 55.71875 40.765625 55.71875 27.296875 
Q 55.71875 13.875 49.015625 6.21875 
Q 42.328125 -1.421875 30.609375 -1.421875 
Q 18.84375 -1.421875 12.171875 6.21875 
Q 5.515625 13.875 5.515625 27.296875 
Q 5.515625 40.765625 12.171875 48.375 
Q 18.84375 56 30.609375 56 
z
" id="DejaVuSans-111"/>
      <path d="M 41.109375 46.296875 
Q 39.59375 47.171875 37.8125 47.578125 
Q 36.03125 48 33.890625 48 
Q 26.265625 48 22.1875 43.046875 
Q 18.109375 38.09375 18.109375 28.8125 
L 18.109375 0 
L 9.078125 0 
L 9.078125 54.6875 
L 18.109375 54.6875 
L 18.109375 46.1875 
Q 20.953125 51.171875 25.484375 53.578125 
Q 30.03125 56 36.53125 56 
Q 37.453125 56 38.578125 55.875 
Q 39.703125 55.765625 41.0625 55.515625 
z
" id="DejaVuSans-114"/>
      <path d="M 44.390625 34.1875 
Q 47.5625 33.109375 50.5625 29.59375 
Q 53.5625 26.078125 56.59375 19.921875 
L 66.609375 0 
L 56 0 
L 46.6875 18.703125 
Q 43.0625 26.03125 39.671875 28.421875 
Q 36.28125 30.8125 30.421875 30.8125 
L 19.671875 30.8125 
L 19.671875 0 
L 9.8125 0 
L 9.8125 72.90625 
L 32.078125 72.90625 
Q 44.578125 72.90625 50.734375 67.671875 
Q 56.890625 62.453125 56.890625 51.90625 
Q 56.890625 45.015625 53.6875 40.46875 
Q 50.484375 35.9375 44.390625 34.1875 
z
M 19.671875 64.796875 
L 19.671875 38.921875 
L 32.078125 38.921875 
Q 39.203125 38.921875 42.84375 42.21875 
Q 46.484375 45.515625 46.484375 51.90625 
Q 46.484375 58.296875 42.84375 61.546875 
Q 39.203125 64.796875 32.078125 64.796875 
z
" id="DejaVuSans-82"/>
      <path d="M 9.421875 54.6875 
L 18.40625 54.6875 
L 18.40625 0 
L 9.421875 0 
z
M 9.421875 75.984375 
L 18.40625 75.984375 
L 18.40625 64.59375 
L 9.421875 64.59375 
z
" id="DejaVuSans-105"/>
      <path d="M 45.40625 27.984375 
Q 45.40625 37.75 41.375 43.109375 
Q 37.359375 48.484375 30.078125 48.484375 
Q 22.859375 48.484375 18.828125 43.109375 
Q 14.796875 37.75 14.796875 27.984375 
Q 14.796875 18.265625 18.828125 12.890625 
Q 22.859375 7.515625 30.078125 7.515625 
Q 37.359375 7.515625 41.375 12.890625 
Q 45.40625 18.265625 45.40625 27.984375 
z
M 54.390625 6.78125 
Q 54.390625 -7.171875 48.1875 -13.984375 
Q 42 -20.796875 29.203125 -20.796875 
Q 24.46875 -20.796875 20.265625 -20.09375 
Q 16.0625 -19.390625 12.109375 -17.921875 
L 12.109375 -9.1875 
Q 16.0625 -11.328125 19.921875 -12.34375 
Q 23.78125 -13.375 27.78125 -13.375 
Q 36.625 -13.375 41.015625 -8.765625 
Q 45.40625 -4.15625 45.40625 5.171875 
L 45.40625 9.625 
Q 42.625 4.78125 38.28125 2.390625 
Q 33.9375 0 27.875 0 
Q 17.828125 0 11.671875 7.65625 
Q 5.515625 15.328125 5.515625 27.984375 
Q 5.515625 40.671875 11.671875 48.328125 
Q 17.828125 56 27.875 56 
Q 33.9375 56 38.28125 53.609375 
Q 42.625 51.21875 45.40625 46.390625 
L 45.40625 54.6875 
L 54.390625 54.6875 
z
" id="DejaVuSans-103"/>
     </defs>
     <g style="fill:#262626;" transform="translate(22.396875 445.608437)rotate(-90)scale(0.2 -0.2)">
      <use xlink:href="#DejaVuSans-83"/>
      <use x="63.476562" xlink:href="#DejaVuSans-101"/>
      <use x="125" xlink:href="#DejaVuSans-110"/>
      <use x="188.378906" xlink:href="#DejaVuSans-115"/>
      <use x="240.478516" xlink:href="#DejaVuSans-111"/>
      <use x="301.660156" xlink:href="#DejaVuSans-114"/>
      <use x="342.773438" xlink:href="#DejaVuSans-32"/>
      <use x="374.560547" xlink:href="#DejaVuSans-82"/>
      <use x="439.542969" xlink:href="#DejaVuSans-101"/>
      <use x="501.066406" xlink:href="#DejaVuSans-97"/>
      <use x="562.345703" xlink:href="#DejaVuSans-100"/>
      <use x="625.822266" xlink:href="#DejaVuSans-105"/>
      <use x="653.605469" xlink:href="#DejaVuSans-110"/>
      <use x="716.984375" xlink:href="#DejaVuSans-103"/>
     </g>
    </g>
   </g>
   <g id="line2d_12">
    <path clip-path="url(#p625922d6b3)" d="M 104.812798 500.321407 
L 112.421889 502.28646 
L 120.03098 499.742947 
L 127.640071 497.211167 
L 135.249162 497.490963 
L 142.858253 492.85228 
L 150.467344 495.916027 
L 158.076435 491.031902 
L 165.685526 486.080644 
L 173.294616 487.836405 
L 180.903707 500.150334 
L 188.512798 498.649287 
L 196.121889 507.623164 
L 203.73098 505.12512 
L 211.340071 508.04189 
L 218.949162 507.477036 
L 226.558253 512.203586 
L 234.167344 513.70771 
L 241.776435 516.743464 
L 249.385526 508.141751 
L 256.994616 510.895536 
L 264.603707 520.474243 
L 272.212798 520.400125 
L 279.821889 520.80429 
L 287.43098 520.150921 
L 295.040071 513.476509 
L 302.649162 513.112228 
L 310.258253 506.369676 
L 317.867344 479.45114 
L 325.476435 460.207935 
L 333.085526 461.568328 
L 340.694616 451.799219 
L 348.303707 452.361623 
L 355.912798 466.339912 
L 363.521889 460.700982 
L 371.13098 442.080633 
L 378.740071 437.40337 
L 386.349162 441.999262 
L 393.958253 448.230288 
L 401.567344 440.043051 
L 409.176435 440.10002 
L 416.785526 449.10466 
L 424.394616 458.075486 
L 432.003707 452.030954 
L 439.612798 446.628749 
L 447.221889 449.127869 
L 454.83098 448.902256 
L 462.440071 452.456277 
L 470.049162 446.375443 
L 477.658253 437.222295 
L 485.267344 437.418651 
L 492.876435 438.723144 
L 500.485526 433.520937 
L 508.094616 438.066107 
L 515.703707 455.026921 
L 523.312798 476.863805 
L 530.921889 493.851942 
L 538.53098 508.493404 
L 546.140071 517.331869 
L 553.749162 515.916664 
L 561.358253 532.201512 
L 568.967344 544.854261 
L 576.576435 535.604966 
L 584.185526 526.366666 
L 591.794616 525.38584 
L 599.403707 515.070215 
L 607.012798 504.000245 
L 614.621889 491.768958 
L 622.23098 487.958063 
L 629.840071 479.633185 
L 637.449162 472.194634 
L 645.058253 470.995519 
L 652.667344 475.115782 
L 660.276435 485.039691 
L 667.885526 491.538172 
L 675.494616 490.266453 
L 683.103707 497.557146 
L 690.712798 506.793618 
L 698.321889 503.204071 
L 705.93098 500.603678 
L 713.540071 512.064433 
L 721.149162 506.882436 
L 728.758253 496.602974 
L 736.367344 496.062383 
L 743.976435 495.669273 
L 751.585526 489.978047 
L 759.194616 486.307938 
L 766.803707 497.172752 
L 774.412798 491.927995 
L 782.021889 475.638262 
L 789.63098 475.82908 
L 797.240071 487.549828 
L 804.849162 490.248242 
L 812.458253 487.293476 
L 820.067344 485.290929 
L 827.676435 488.60505 
L 835.285526 490.394813 
L 842.894616 496.22527 
L 850.503707 487.62596 
L 858.112798 499.400415 
L 865.721889 472.584183 
" style="fill:none;stroke:#fb694a;stroke-linecap:round;stroke-width:1.5;"/>
   </g>
   <g id="line2d_13"/>
   <g id="line2d_14"/>
   <g id="line2d_15">
    <path clip-path="url(#p625922d6b3)" d="M 104.812798 469.649796 
L 112.421889 474.959549 
L 120.03098 485.501372 
L 127.640071 489.169012 
L 135.249162 493.102643 
L 142.858253 502.789281 
L 150.467344 508.268832 
L 158.076435 512.335373 
L 165.685526 513.75326 
L 173.294616 508.739925 
L 180.903707 505.967282 
L 188.512798 505.50339 
L 196.121889 506.628182 
L 203.73098 513.128193 
L 211.340071 512.567311 
L 218.949162 509.348347 
L 226.558253 511.600767 
L 234.167344 511.64937 
L 241.776435 506.076305 
L 249.385526 505.525927 
L 256.994616 503.798984 
L 264.603707 503.336172 
L 272.212798 503.4711 
L 279.821889 498.910916 
L 287.43098 498.358524 
L 295.040071 501.0696 
L 302.649162 496.246172 
L 310.258253 487.1891 
L 317.867344 476.690942 
L 325.476435 459.778965 
L 333.085526 453.746507 
L 340.694616 458.917014 
L 348.303707 458.521871 
L 355.912798 458.842804 
L 363.521889 463.547695 
L 371.13098 463.344082 
L 378.740071 453.552947 
L 386.349162 452.71305 
L 393.958253 451.562845 
L 401.567344 454.507852 
L 409.176435 454.00723 
L 416.785526 456.44343 
L 424.394616 460.224524 
L 432.003707 468.154155 
L 439.612798 470.983759 
L 447.221889 475.00688 
L 454.83098 483.022931 
L 462.440071 484.363443 
L 470.049162 488.097681 
L 477.658253 504.22969 
L 485.267344 508.543498 
L 492.876435 502.75073 
L 500.485526 500.315673 
L 508.094616 502.451634 
L 515.703707 501.021979 
L 523.312798 504.063009 
L 530.921889 499.829171 
L 538.53098 482.803458 
L 546.140071 470.818971 
L 553.749162 468.016021 
L 561.358253 468.013121 
L 568.967344 465.896886 
L 576.576435 463.404994 
L 584.185526 456.177762 
L 591.794616 446.249049 
L 599.403707 437.171066 
L 607.012798 430.115453 
L 614.621889 420.552305 
L 622.23098 414.290007 
L 629.840071 406.90804 
L 637.449162 400.398456 
L 645.058253 403.732267 
L 652.667344 405.069548 
L 660.276435 413.489717 
L 667.885526 425.602254 
L 675.494616 435.635166 
L 683.103707 444.304924 
L 690.712798 452.273629 
L 698.321889 462.288676 
L 705.93098 470.358792 
L 713.540071 470.220408 
L 721.149162 465.935888 
L 728.758253 464.266921 
L 736.367344 464.080239 
L 743.976435 466.036897 
L 751.585526 477.52131 
L 759.194616 486.066298 
L 766.803707 481.018991 
L 774.412798 474.340929 
L 782.021889 477.520392 
L 789.63098 482.46263 
L 797.240071 481.547427 
L 804.849162 487.119272 
L 812.458253 494.099667 
L 820.067344 498.441748 
L 827.676435 499.696031 
L 835.285526 512.393647 
L 842.894616 511.917938 
L 850.503707 507.964106 
L 858.112798 505.821105 
L 865.721889 498.058155 
" style="fill:none;stroke:#6aaed6;stroke-linecap:round;stroke-width:1.5;"/>
   </g>
   <g id="line2d_16"/>
   <g id="line2d_17"/>
   <g id="line2d_18">
    <path clip-path="url(#p625922d6b3)" d="M 104.812798 444.680752 
L 112.421889 461.924431 
L 120.03098 458.435095 
L 127.640071 457.406624 
L 135.249162 465.263414 
L 142.858253 471.187372 
L 150.467344 469.293607 
L 158.076435 465.064972 
L 165.685526 465.548043 
L 173.294616 471.99148 
L 180.903707 488.160051 
L 188.512798 491.874699 
L 196.121889 491.3206 
L 203.73098 493.322607 
L 211.340071 500.350624 
L 218.949162 508.783648 
L 226.558253 516.335686 
L 234.167344 520.768465 
L 241.776435 518.29497 
L 249.385526 527.704398 
L 256.994616 521.144325 
L 264.603707 511.496584 
L 272.212798 502.044932 
L 279.821889 505.327321 
L 287.43098 509.526635 
L 295.040071 499.495769 
L 302.649162 473.238627 
L 310.258253 465.878086 
L 317.867344 474.338722 
L 325.476435 473.170965 
L 333.085526 480.337962 
L 340.694616 494.646034 
L 348.303707 502.590961 
L 355.912798 485.328513 
L 363.521889 459.008285 
L 371.13098 444.752231 
L 378.740071 441.39788 
L 386.349162 448.17505 
L 393.958253 453.787265 
L 401.567344 453.76484 
L 409.176435 461.48476 
L 416.785526 465.560705 
L 424.394616 463.935347 
L 432.003707 458.686925 
L 439.612798 459.424757 
L 447.221889 467.344988 
L 454.83098 474.442905 
L 462.440071 474.43754 
L 470.049162 483.574518 
L 477.658253 484.746222 
L 485.267344 481.030912 
L 492.876435 488.860847 
L 500.485526 499.041277 
L 508.094616 511.490994 
L 515.703707 523.047901 
L 523.312798 550.730671 
L 530.921889 574.459963 
L 538.53098 577.367958 
L 546.140071 580.080137 
L 553.749162 559.988134 
L 561.358253 534.314105 
L 568.967344 524.243979 
L 576.576435 515.829224 
L 584.185526 502.556582 
L 591.794616 482.369176 
L 599.403707 471.180299 
L 607.012798 462.975375 
L 614.621889 445.570919 
L 622.23098 427.924267 
L 629.840071 424.179703 
L 637.449162 429.500394 
L 645.058253 438.576621 
L 652.667344 444.112798 
L 660.276435 443.291887 
L 667.885526 442.112128 
L 675.494616 448.785534 
L 683.103707 456.62892 
L 690.712798 471.517383 
L 698.321889 482.141141 
L 705.93098 479.641419 
L 713.540071 478.005863 
L 721.149162 490.49542 
L 728.758253 494.60112 
L 736.367344 488.936499 
L 743.976435 487.426117 
L 751.585526 489.230874 
L 759.194616 480.733298 
L 766.803707 477.821888 
L 774.412798 489.288644 
L 782.021889 491.131325 
L 789.63098 478.325644 
L 797.240071 487.337029 
L 804.849162 499.167208 
L 812.458253 502.448775 
L 820.067344 496.282991 
L 827.676435 497.281659 
L 835.285526 496.181112 
L 842.894616 507.164363 
L 850.503707 507.768113 
L 858.112798 524.354574 
L 865.721889 519.541795 
" style="fill:none;stroke:#959595;stroke-linecap:round;stroke-width:1.5;"/>
   </g>
   <g id="line2d_19"/>
   <g id="line2d_20"/>
   <g id="line2d_21">
    <path clip-path="url(#p625922d6b3)" d="M 104.812798 617.167486 
L 112.421889 622.176048 
L 120.03098 598.65231 
L 127.640071 623.847352 
L 135.249162 664.542106 
L 142.858253 644.855105 
L 150.467344 593.169908 
L 158.076435 549.419311 
L 165.685526 567.921381 
L 173.294616 588.10592 
L 180.903707 561.92037 
L 188.512798 508.86231 
L 196.121889 480.818682 
L 203.73098 458.024877 
L 211.340071 450.910705 
L 218.949162 450.351571 
L 226.558253 450.214013 
L 234.167344 442.124577 
L 241.776435 435.700685 
L 249.385526 406.466001 
L 256.994616 368.88155 
L 264.603707 377.559774 
L 272.212798 410.624413 
L 279.821889 457.787567 
L 287.43098 416.307569 
L 295.040071 333.245718 
L 302.649162 322.793997 
L 310.258253 386.195025 
L 317.867344 412.796686 
L 325.476435 428.410794 
L 333.085526 480.122054 
L 340.694616 540.030717 
L 348.303707 487.640113 
L 355.912798 363.052197 
L 363.521889 312.523867 
L 371.13098 331.243968 
L 378.740071 372.015035 
L 386.349162 415.389325 
L 393.958253 430.558382 
L 401.567344 464.366724 
L 409.176435 483.424259 
L 416.785526 485.802178 
L 424.394616 475.774979 
L 432.003707 495.107129 
L 439.612798 510.108265 
L 447.221889 525.626062 
L 454.83098 504.402076 
L 462.440071 524.234265 
L 470.049162 500.766819 
L 477.658253 442.124142 
L 485.267344 432.998337 
L 492.876435 433.54718 
L 500.485526 401.936531 
L 508.094616 380.19494 
L 515.703707 423.471621 
L 523.312798 436.731709 
L 530.921889 377.367358 
L 538.53098 330.51941 
L 546.140071 261.167383 
L 553.749162 199.886568 
L 561.358253 219.773186 
L 568.967344 230.695026 
L 576.576435 185.29443 
L 584.185526 152.340056 
L 591.794616 174.026953 
L 599.403707 192.222388 
L 607.012798 103.805331 
L 614.621889 39.96 
L 622.23098 122.819406 
L 629.840071 205.454369 
L 637.449162 267.924673 
L 645.058253 337.312915 
L 652.667344 369.023913 
L 660.276435 386.172407 
L 667.885526 405.96645 
L 675.494616 460.124724 
L 683.103707 564.458079 
L 690.712798 593.948635 
L 698.321889 519.478426 
L 705.93098 495.219552 
L 713.540071 605.021481 
L 721.149162 659.214874 
L 728.758253 592.611169 
L 736.367344 579.872368 
L 743.976435 599.721386 
L 751.585526 564.723457 
L 759.194616 561.587233 
L 766.803707 646.540988 
L 774.412798 660.97657 
L 782.021889 565.20536 
L 789.63098 593.793876 
L 797.240071 695.16 
L 804.849162 686.455428 
L 812.458253 625.119775 
L 820.067344 628.647501 
L 827.676435 644.198273 
L 835.285526 672.723961 
L 842.894616 640.870938 
L 850.503707 639.647215 
L 858.112798 663.163471 
L 865.721889 674.596557 
" style="fill:none;stroke:#fd8c3b;stroke-linecap:round;stroke-width:1.5;"/>
   </g>
   <g id="line2d_22"/>
   <g id="line2d_23"/>
   <g id="line2d_24">
    <path clip-path="url(#p625922d6b3)" d="M 104.812798 474.953515 
L 112.421889 447.423073 
L 120.03098 491.184089 
L 127.640071 510.466514 
L 135.249162 479.140442 
L 142.858253 451.584662 
L 150.467344 483.558939 
L 158.076435 521.976634 
L 165.685526 491.913164 
L 173.294616 460.281523 
L 180.903707 471.103807 
L 188.512798 491.3311 
L 196.121889 462.077113 
L 203.73098 467.993812 
L 211.340071 473.11789 
L 218.949162 457.67136 
L 226.558253 423.354385 
L 234.167344 423.486072 
L 241.776435 405.85683 
L 249.385526 429.747451 
L 256.994616 455.532111 
L 264.603707 467.234865 
L 272.212798 460.592599 
L 279.821889 438.012195 
L 287.43098 461.722355 
L 295.040071 526.628661 
L 302.649162 548.864229 
L 310.258253 554.008823 
L 317.867344 550.677275 
L 325.476435 556.632204 
L 333.085526 541.409908 
L 340.694616 464.336734 
L 348.303707 415.13576 
L 355.912798 438.80837 
L 363.521889 464.250481 
L 371.13098 436.177449 
L 378.740071 390.507907 
L 386.349162 379.742422 
L 393.958253 381.858817 
L 401.567344 357.866942 
L 409.176435 352.341091 
L 416.785526 351.617492 
L 424.394616 359.401078 
L 432.003707 352.510575 
L 439.612798 377.534586 
L 447.221889 386.162451 
L 454.83098 401.665007 
L 462.440071 397.530889 
L 470.049162 419.638146 
L 477.658253 441.809081 
L 485.267344 435.464796 
L 492.876435 407.566749 
L 500.485526 401.684806 
L 508.094616 397.405216 
L 515.703707 369.197642 
L 523.312798 358.196856 
L 530.921889 353.01384 
L 538.53098 358.775426 
L 546.140071 400.072311 
L 553.749162 429.070872 
L 561.358253 454.561275 
L 568.967344 482.747286 
L 576.576435 559.340879 
L 584.185526 637.13757 
L 591.794616 603.685021 
L 599.403707 545.936056 
L 607.012798 577.841951 
L 614.621889 663.094005 
L 622.23098 601.691206 
L 629.840071 499.922625 
L 637.449162 516.820739 
L 645.058253 475.616516 
L 652.667344 399.957899 
L 660.276435 407.791361 
L 667.885526 498.566636 
L 675.494616 496.497517 
L 683.103707 374.59032 
L 690.712798 360.787035 
L 698.321889 474.55637 
L 705.93098 536.319202 
L 713.540071 447.270897 
L 721.149162 405.896412 
L 728.758253 487.797783 
L 736.367344 519.098088 
L 743.976435 479.315054 
L 751.585526 494.370625 
L 759.194616 559.916316 
L 766.803707 512.022205 
L 774.412798 448.324803 
L 782.021889 496.891798 
L 789.63098 517.388117 
L 797.240071 430.436289 
L 804.849162 363.180577 
L 812.458253 438.274182 
L 820.067344 448.86477 
L 827.676435 422.356362 
L 835.285526 419.089596 
L 842.894616 468.345321 
L 850.503707 431.166562 
L 858.112798 122.306822 
L 865.721889 322.870922 
" style="fill:none;stroke:#9e9ac8;stroke-linecap:round;stroke-width:1.5;"/>
   </g>
   <g id="line2d_25"/>
   <g id="line2d_26"/>
   <g id="line2d_27">
    <path clip-path="url(#p625922d6b3)" d="M 104.812798 484.721639 
L 112.421889 487.983968 
L 120.03098 483.705076 
L 127.640071 477.553782 
L 135.249162 458.030642 
L 142.858253 446.312566 
L 150.467344 461.849695 
L 158.076435 494.767473 
L 165.685526 494.427372 
L 173.294616 491.901252 
L 180.903707 504.838295 
L 188.512798 493.529006 
L 196.121889 480.268343 
L 203.73098 510.650203 
L 211.340071 526.038459 
L 218.949162 533.231473 
L 226.558253 545.363769 
L 234.167344 582.156516 
L 241.776435 602.277074 
L 249.385526 589.032649 
L 256.994616 580.775303 
L 264.603707 602.637098 
L 272.212798 595.640672 
L 279.821889 562.602897 
L 287.43098 548.429664 
L 295.040071 530.916132 
L 302.649162 505.99659 
L 310.258253 520.436489 
L 317.867344 534.452441 
L 325.476435 508.887198 
L 333.085526 510.607091 
L 340.694616 475.380481 
L 348.303707 404.039434 
L 355.912798 392.49792 
L 363.521889 448.130047 
L 371.13098 426.924138 
L 378.740071 401.478325 
L 386.349162 389.726432 
L 393.958253 420.062379 
L 401.567344 421.86398 
L 409.176435 413.668999 
L 416.785526 424.478033 
L 424.394616 440.666685 
L 432.003707 451.835408 
L 439.612798 457.329621 
L 447.221889 463.936462 
L 454.83098 474.441977 
L 462.440071 484.650566 
L 470.049162 489.052345 
L 477.658253 491.69803 
L 485.267344 500.059665 
L 492.876435 529.365093 
L 500.485526 517.538136 
L 508.094616 525.029058 
L 515.703707 552.227078 
L 523.312798 554.885055 
L 530.921889 556.408349 
L 538.53098 558.525711 
L 546.140071 535.087939 
L 553.749162 485.414765 
L 561.358253 421.988163 
L 568.967344 403.552102 
L 576.576435 414.265484 
L 584.185526 389.955732 
L 591.794616 354.872493 
L 599.403707 319.939825 
L 607.012798 322.067618 
L 614.621889 334.25476 
L 622.23098 322.533017 
L 629.840071 321.835249 
L 637.449162 351.370511 
L 645.058253 341.499165 
L 652.667344 310.655459 
L 660.276435 333.473431 
L 667.885526 397.012884 
L 675.494616 390.977228 
L 683.103707 347.141232 
L 690.712798 373.097933 
L 698.321889 408.589461 
L 705.93098 407.405441 
L 713.540071 424.591024 
L 721.149162 460.735733 
L 728.758253 452.84819 
L 736.367344 435.375446 
L 743.976435 420.984312 
L 751.585526 424.11739 
L 759.194616 440.933779 
L 766.803707 464.330562 
L 774.412798 475.805024 
L 782.021889 477.398802 
L 789.63098 493.18422 
L 797.240071 489.602313 
L 804.849162 492.85817 
L 812.458253 501.31506 
L 820.067344 513.804665 
L 827.676435 495.003672 
L 835.285526 506.903423 
L 842.894616 543.02761 
L 850.503707 541.088544 
L 858.112798 564.163502 
L 865.721889 449.469175 
" style="fill:none;stroke:#73c476;stroke-linecap:round;stroke-width:1.5;"/>
   </g>
   <g id="line2d_28"/>
   <g id="line2d_29"/>
   <g id="patch_3">
    <path d="M 66.767344 727.92 
L 66.767344 7.2 
" style="fill:none;stroke:#ffffff;stroke-linecap:square;stroke-linejoin:miter;stroke-width:1.25;"/>
   </g>
   <g id="patch_4">
    <path d="M 903.767344 727.92 
L 903.767344 7.2 
" style="fill:none;stroke:#ffffff;stroke-linecap:square;stroke-linejoin:miter;stroke-width:1.25;"/>
   </g>
   <g id="patch_5">
    <path d="M 66.767344 727.92 
L 903.767344 727.92 
" style="fill:none;stroke:#ffffff;stroke-linecap:square;stroke-linejoin:miter;stroke-width:1.25;"/>
   </g>
   <g id="patch_6">
    <path d="M 66.767344 7.2 
L 903.767344 7.2 
" style="fill:none;stroke:#ffffff;stroke-linecap:square;stroke-linejoin:miter;stroke-width:1.25;"/>
   </g>
   <g id="legend_1">
    <g id="patch_7">
     <path d="M 74.467344 211.586875 
L 147.373281 211.586875 
Q 149.573281 211.586875 149.573281 209.386875 
L 149.573281 14.9 
Q 149.573281 12.7 147.373281 12.7 
L 74.467344 12.7 
Q 72.267344 12.7 72.267344 14.9 
L 72.267344 209.386875 
Q 72.267344 211.586875 74.467344 211.586875 
z
" style="fill:#eaeaf2;opacity:0.8;stroke:#cccccc;stroke-linejoin:miter;"/>
    </g>
    <g id="line2d_30">
     <path d="M 76.667344 21.608281 
L 98.667344 21.608281 
" style="fill:none;"/>
    </g>
    <g id="line2d_31"/>
    <g id="text_14">
     <!-- Sensor -->
     <g style="fill:#262626;" transform="translate(107.467344 25.458281)scale(0.11 -0.11)">
      <use xlink:href="#DejaVuSans-83"/>
      <use x="63.476562" xlink:href="#DejaVuSans-101"/>
      <use x="125" xlink:href="#DejaVuSans-110"/>
      <use x="188.378906" xlink:href="#DejaVuSans-115"/>
      <use x="240.478516" xlink:href="#DejaVuSans-111"/>
      <use x="301.660156" xlink:href="#DejaVuSans-114"/>
     </g>
    </g>
    <g id="line2d_32">
     <path d="M 76.667344 37.754219 
L 98.667344 37.754219 
" style="fill:none;stroke:#fb694a;stroke-linecap:round;stroke-width:1.5;"/>
    </g>
    <g id="line2d_33"/>
    <g id="text_15">
     <!-- acc_x -->
     <defs>
      <path d="M 48.78125 52.59375 
L 48.78125 44.1875 
Q 44.96875 46.296875 41.140625 47.34375 
Q 37.3125 48.390625 33.40625 48.390625 
Q 24.65625 48.390625 19.8125 42.84375 
Q 14.984375 37.3125 14.984375 27.296875 
Q 14.984375 17.28125 19.8125 11.734375 
Q 24.65625 6.203125 33.40625 6.203125 
Q 37.3125 6.203125 41.140625 7.25 
Q 44.96875 8.296875 48.78125 10.40625 
L 48.78125 2.09375 
Q 45.015625 0.34375 40.984375 -0.53125 
Q 36.96875 -1.421875 32.421875 -1.421875 
Q 20.0625 -1.421875 12.78125 6.34375 
Q 5.515625 14.109375 5.515625 27.296875 
Q 5.515625 40.671875 12.859375 48.328125 
Q 20.21875 56 33.015625 56 
Q 37.15625 56 41.109375 55.140625 
Q 45.0625 54.296875 48.78125 52.59375 
z
" id="DejaVuSans-99"/>
      <path d="M 50.984375 -16.609375 
L 50.984375 -23.578125 
L -0.984375 -23.578125 
L -0.984375 -16.609375 
z
" id="DejaVuSans-95"/>
     </defs>
     <g style="fill:#262626;" transform="translate(107.467344 41.604219)scale(0.11 -0.11)">
      <use xlink:href="#DejaVuSans-97"/>
      <use x="61.279297" xlink:href="#DejaVuSans-99"/>
      <use x="116.259766" xlink:href="#DejaVuSans-99"/>
      <use x="171.240234" xlink:href="#DejaVuSans-95"/>
      <use x="221.240234" xlink:href="#DejaVuSans-120"/>
     </g>
    </g>
    <g id="line2d_34">
     <path d="M 76.667344 54.206094 
L 98.667344 54.206094 
" style="fill:none;"/>
    </g>
    <g id="line2d_35"/>
    <g id="text_16">
     <!-- Sensor -->
     <g style="fill:#262626;" transform="translate(107.467344 58.056094)scale(0.11 -0.11)">
      <use xlink:href="#DejaVuSans-83"/>
      <use x="63.476562" xlink:href="#DejaVuSans-101"/>
      <use x="125" xlink:href="#DejaVuSans-110"/>
      <use x="188.378906" xlink:href="#DejaVuSans-115"/>
      <use x="240.478516" xlink:href="#DejaVuSans-111"/>
      <use x="301.660156" xlink:href="#DejaVuSans-114"/>
     </g>
    </g>
    <g id="line2d_36">
     <path d="M 76.667344 70.352031 
L 98.667344 70.352031 
" style="fill:none;stroke:#6aaed6;stroke-linecap:round;stroke-width:1.5;"/>
    </g>
    <g id="line2d_37"/>
    <g id="text_17">
     <!-- acc_y -->
     <defs>
      <path d="M 32.171875 -5.078125 
Q 28.375 -14.84375 24.75 -17.8125 
Q 21.140625 -20.796875 15.09375 -20.796875 
L 7.90625 -20.796875 
L 7.90625 -13.28125 
L 13.1875 -13.28125 
Q 16.890625 -13.28125 18.9375 -11.515625 
Q 21 -9.765625 23.484375 -3.21875 
L 25.09375 0.875 
L 2.984375 54.6875 
L 12.5 54.6875 
L 29.59375 11.921875 
L 46.6875 54.6875 
L 56.203125 54.6875 
z
" id="DejaVuSans-121"/>
     </defs>
     <g style="fill:#262626;" transform="translate(107.467344 74.202031)scale(0.11 -0.11)">
      <use xlink:href="#DejaVuSans-97"/>
      <use x="61.279297" xlink:href="#DejaVuSans-99"/>
      <use x="116.259766" xlink:href="#DejaVuSans-99"/>
      <use x="171.240234" xlink:href="#DejaVuSans-95"/>
      <use x="221.240234" xlink:href="#DejaVuSans-121"/>
     </g>
    </g>
    <g id="line2d_38">
     <path d="M 76.667344 86.803906 
L 98.667344 86.803906 
" style="fill:none;"/>
    </g>
    <g id="line2d_39"/>
    <g id="text_18">
     <!-- Sensor -->
     <g style="fill:#262626;" transform="translate(107.467344 90.653906)scale(0.11 -0.11)">
      <use xlink:href="#DejaVuSans-83"/>
      <use x="63.476562" xlink:href="#DejaVuSans-101"/>
      <use x="125" xlink:href="#DejaVuSans-110"/>
      <use x="188.378906" xlink:href="#DejaVuSans-115"/>
      <use x="240.478516" xlink:href="#DejaVuSans-111"/>
      <use x="301.660156" xlink:href="#DejaVuSans-114"/>
     </g>
    </g>
    <g id="line2d_40">
     <path d="M 76.667344 102.949844 
L 98.667344 102.949844 
" style="fill:none;stroke:#959595;stroke-linecap:round;stroke-width:1.5;"/>
    </g>
    <g id="line2d_41"/>
    <g id="text_19">
     <!-- acc_z -->
     <defs>
      <path d="M 5.515625 54.6875 
L 48.1875 54.6875 
L 48.1875 46.484375 
L 14.40625 7.171875 
L 48.1875 7.171875 
L 48.1875 0 
L 4.296875 0 
L 4.296875 8.203125 
L 38.09375 47.515625 
L 5.515625 47.515625 
z
" id="DejaVuSans-122"/>
     </defs>
     <g style="fill:#262626;" transform="translate(107.467344 106.799844)scale(0.11 -0.11)">
      <use xlink:href="#DejaVuSans-97"/>
      <use x="61.279297" xlink:href="#DejaVuSans-99"/>
      <use x="116.259766" xlink:href="#DejaVuSans-99"/>
      <use x="171.240234" xlink:href="#DejaVuSans-95"/>
      <use x="221.240234" xlink:href="#DejaVuSans-122"/>
     </g>
    </g>
    <g id="line2d_42">
     <path d="M 76.667344 119.401719 
L 98.667344 119.401719 
" style="fill:none;"/>
    </g>
    <g id="line2d_43"/>
    <g id="text_20">
     <!-- Sensor -->
     <g style="fill:#262626;" transform="translate(107.467344 123.251719)scale(0.11 -0.11)">
      <use xlink:href="#DejaVuSans-83"/>
      <use x="63.476562" xlink:href="#DejaVuSans-101"/>
      <use x="125" xlink:href="#DejaVuSans-110"/>
      <use x="188.378906" xlink:href="#DejaVuSans-115"/>
      <use x="240.478516" xlink:href="#DejaVuSans-111"/>
      <use x="301.660156" xlink:href="#DejaVuSans-114"/>
     </g>
    </g>
    <g id="line2d_44">
     <path d="M 76.667344 135.547656 
L 98.667344 135.547656 
" style="fill:none;stroke:#fd8c3b;stroke-linecap:round;stroke-width:1.5;"/>
    </g>
    <g id="line2d_45"/>
    <g id="text_21">
     <!-- gy_x -->
     <g style="fill:#262626;" transform="translate(107.467344 139.397656)scale(0.11 -0.11)">
      <use xlink:href="#DejaVuSans-103"/>
      <use x="63.476562" xlink:href="#DejaVuSans-121"/>
      <use x="122.65625" xlink:href="#DejaVuSans-95"/>
      <use x="172.65625" xlink:href="#DejaVuSans-120"/>
     </g>
    </g>
    <g id="line2d_46">
     <path d="M 76.667344 151.999531 
L 98.667344 151.999531 
" style="fill:none;"/>
    </g>
    <g id="line2d_47"/>
    <g id="text_22">
     <!-- Sensor -->
     <g style="fill:#262626;" transform="translate(107.467344 155.849531)scale(0.11 -0.11)">
      <use xlink:href="#DejaVuSans-83"/>
      <use x="63.476562" xlink:href="#DejaVuSans-101"/>
      <use x="125" xlink:href="#DejaVuSans-110"/>
      <use x="188.378906" xlink:href="#DejaVuSans-115"/>
      <use x="240.478516" xlink:href="#DejaVuSans-111"/>
      <use x="301.660156" xlink:href="#DejaVuSans-114"/>
     </g>
    </g>
    <g id="line2d_48">
     <path d="M 76.667344 168.145469 
L 98.667344 168.145469 
" style="fill:none;stroke:#9e9ac8;stroke-linecap:round;stroke-width:1.5;"/>
    </g>
    <g id="line2d_49"/>
    <g id="text_23">
     <!-- gy_y -->
     <g style="fill:#262626;" transform="translate(107.467344 171.995469)scale(0.11 -0.11)">
      <use xlink:href="#DejaVuSans-103"/>
      <use x="63.476562" xlink:href="#DejaVuSans-121"/>
      <use x="122.65625" xlink:href="#DejaVuSans-95"/>
      <use x="172.65625" xlink:href="#DejaVuSans-121"/>
     </g>
    </g>
    <g id="line2d_50">
     <path d="M 76.667344 184.597344 
L 98.667344 184.597344 
" style="fill:none;"/>
    </g>
    <g id="line2d_51"/>
    <g id="text_24">
     <!-- Sensor -->
     <g style="fill:#262626;" transform="translate(107.467344 188.447344)scale(0.11 -0.11)">
      <use xlink:href="#DejaVuSans-83"/>
      <use x="63.476562" xlink:href="#DejaVuSans-101"/>
      <use x="125" xlink:href="#DejaVuSans-110"/>
      <use x="188.378906" xlink:href="#DejaVuSans-115"/>
      <use x="240.478516" xlink:href="#DejaVuSans-111"/>
      <use x="301.660156" xlink:href="#DejaVuSans-114"/>
     </g>
    </g>
    <g id="line2d_52">
     <path d="M 76.667344 200.743281 
L 98.667344 200.743281 
" style="fill:none;stroke:#73c476;stroke-linecap:round;stroke-width:1.5;"/>
    </g>
    <g id="line2d_53"/>
    <g id="text_25">
     <!-- gy_z -->
     <g style="fill:#262626;" transform="translate(107.467344 204.593281)scale(0.11 -0.11)">
      <use xlink:href="#DejaVuSans-103"/>
      <use x="63.476562" xlink:href="#DejaVuSans-121"/>
      <use x="122.65625" xlink:href="#DejaVuSans-95"/>
      <use x="172.65625" xlink:href="#DejaVuSans-122"/>
     </g>
    </g>
   </g>
  </g>
 </g>
 <defs>
  <clipPath id="p625922d6b3">
   <rect height="720.72" width="837" x="66.767344" y="7.2"/>
  </clipPath>
 </defs>
</svg>
