<?xml version="1.0" encoding="utf-8" standalone="no"?>
<!DOCTYPE svg PUBLIC "-//W3C//DTD SVG 1.1//EN"
  "http://www.w3.org/Graphics/SVG/1.1/DTD/svg11.dtd">
<!-- Created with matplotlib (https://matplotlib.org/) -->
<svg height="788.300312pt" version="1.1" viewBox="0 0 910.967344 788.300312" width="910.967344pt" xmlns="http://www.w3.org/2000/svg" xmlns:xlink="http://www.w3.org/1999/xlink">
 <defs>
  <style type="text/css">
*{stroke-linecap:butt;stroke-linejoin:round;}
  </style>
 </defs>
 <g id="figure_1">
  <g id="patch_1">
   <path d="M 0 788.300312 
L 910.967344 788.300312 
L 910.967344 0 
L 0 0 
z
" style="fill:#ffffff;"/>
  </g>
  <g id="axes_1">
   <g id="patch_2">
    <path d="M 66.767344 727.92 
L 903.767344 727.92 
L 903.767344 7.2 
L 66.767344 7.2 
z
" style="fill:#eaeaf2;"/>
   </g>
   <g id="matplotlib.axis_1">
    <g id="xtick_1">
     <g id="line2d_1">
      <path clip-path="url(#pc9d3210b12)" d="M 104.812798 727.92 
L 104.812798 7.2 
" style="fill:none;stroke:#ffffff;stroke-linecap:round;"/>
     </g>
     <g id="text_1">
      <!-- 0 -->
      <defs>
       <path d="M 31.78125 66.40625 
Q 24.171875 66.40625 20.328125 58.90625 
Q 16.5 51.421875 16.5 36.375 
Q 16.5 21.390625 20.328125 13.890625 
Q 24.171875 6.390625 31.78125 6.390625 
Q 39.453125 6.390625 43.28125 13.890625 
Q 47.125 21.390625 47.125 36.375 
Q 47.125 51.421875 43.28125 58.90625 
Q 39.453125 66.40625 31.78125 66.40625 
z
M 31.78125 74.21875 
Q 44.046875 74.21875 50.515625 64.515625 
Q 56.984375 54.828125 56.984375 36.375 
Q 56.984375 17.96875 50.515625 8.265625 
Q 44.046875 -1.421875 31.78125 -1.421875 
Q 19.53125 -1.421875 13.0625 8.265625 
Q 6.59375 17.96875 6.59375 36.375 
Q 6.59375 54.828125 13.0625 64.515625 
Q 19.53125 74.21875 31.78125 74.21875 
z
" id="DejaVuSans-48"/>
      </defs>
      <g style="fill:#262626;" transform="translate(101.313423 745.778281)scale(0.11 -0.11)">
       <use xlink:href="#DejaVuSans-48"/>
      </g>
     </g>
    </g>
    <g id="xtick_2">
     <g id="line2d_2">
      <path clip-path="url(#pc9d3210b12)" d="M 277.746683 727.92 
L 277.746683 7.2 
" style="fill:none;stroke:#ffffff;stroke-linecap:round;"/>
     </g>
     <g id="text_2">
      <!-- 20 -->
      <defs>
       <path d="M 19.1875 8.296875 
L 53.609375 8.296875 
L 53.609375 0 
L 7.328125 0 
L 7.328125 8.296875 
Q 12.9375 14.109375 22.625 23.890625 
Q 32.328125 33.6875 34.8125 36.53125 
Q 39.546875 41.84375 41.421875 45.53125 
Q 43.3125 49.21875 43.3125 52.78125 
Q 43.3125 58.59375 39.234375 62.25 
Q 35.15625 65.921875 28.609375 65.921875 
Q 23.96875 65.921875 18.8125 64.3125 
Q 13.671875 62.703125 7.8125 59.421875 
L 7.8125 69.390625 
Q 13.765625 71.78125 18.9375 73 
Q 24.125 74.21875 28.421875 74.21875 
Q 39.75 74.21875 46.484375 68.546875 
Q 53.21875 62.890625 53.21875 53.421875 
Q 53.21875 48.921875 51.53125 44.890625 
Q 49.859375 40.875 45.40625 35.40625 
Q 44.1875 33.984375 37.640625 27.21875 
Q 31.109375 20.453125 19.1875 8.296875 
z
" id="DejaVuSans-50"/>
      </defs>
      <g style="fill:#262626;" transform="translate(270.747933 745.778281)scale(0.11 -0.11)">
       <use xlink:href="#DejaVuSans-50"/>
       <use x="63.623047" xlink:href="#DejaVuSans-48"/>
      </g>
     </g>
    </g>
    <g id="xtick_3">
     <g id="line2d_3">
      <path clip-path="url(#pc9d3210b12)" d="M 450.680567 727.92 
L 450.680567 7.2 
" style="fill:none;stroke:#ffffff;stroke-linecap:round;"/>
     </g>
     <g id="text_3">
      <!-- 40 -->
      <defs>
       <path d="M 37.796875 64.3125 
L 12.890625 25.390625 
L 37.796875 25.390625 
z
M 35.203125 72.90625 
L 47.609375 72.90625 
L 47.609375 25.390625 
L 58.015625 25.390625 
L 58.015625 17.1875 
L 47.609375 17.1875 
L 47.609375 0 
L 37.796875 0 
L 37.796875 17.1875 
L 4.890625 17.1875 
L 4.890625 26.703125 
z
" id="DejaVuSans-52"/>
      </defs>
      <g style="fill:#262626;" transform="translate(443.681817 745.778281)scale(0.11 -0.11)">
       <use xlink:href="#DejaVuSans-52"/>
       <use x="63.623047" xlink:href="#DejaVuSans-48"/>
      </g>
     </g>
    </g>
    <g id="xtick_4">
     <g id="line2d_4">
      <path clip-path="url(#pc9d3210b12)" d="M 623.614451 727.92 
L 623.614451 7.2 
" style="fill:none;stroke:#ffffff;stroke-linecap:round;"/>
     </g>
     <g id="text_4">
      <!-- 60 -->
      <defs>
       <path d="M 33.015625 40.375 
Q 26.375 40.375 22.484375 35.828125 
Q 18.609375 31.296875 18.609375 23.390625 
Q 18.609375 15.53125 22.484375 10.953125 
Q 26.375 6.390625 33.015625 6.390625 
Q 39.65625 6.390625 43.53125 10.953125 
Q 47.40625 15.53125 47.40625 23.390625 
Q 47.40625 31.296875 43.53125 35.828125 
Q 39.65625 40.375 33.015625 40.375 
z
M 52.59375 71.296875 
L 52.59375 62.3125 
Q 48.875 64.0625 45.09375 64.984375 
Q 41.3125 65.921875 37.59375 65.921875 
Q 27.828125 65.921875 22.671875 59.328125 
Q 17.53125 52.734375 16.796875 39.40625 
Q 19.671875 43.65625 24.015625 45.921875 
Q 28.375 48.1875 33.59375 48.1875 
Q 44.578125 48.1875 50.953125 41.515625 
Q 57.328125 34.859375 57.328125 23.390625 
Q 57.328125 12.15625 50.6875 5.359375 
Q 44.046875 -1.421875 33.015625 -1.421875 
Q 20.359375 -1.421875 13.671875 8.265625 
Q 6.984375 17.96875 6.984375 36.375 
Q 6.984375 53.65625 15.1875 63.9375 
Q 23.390625 74.21875 37.203125 74.21875 
Q 40.921875 74.21875 44.703125 73.484375 
Q 48.484375 72.75 52.59375 71.296875 
z
" id="DejaVuSans-54"/>
      </defs>
      <g style="fill:#262626;" transform="translate(616.615701 745.778281)scale(0.11 -0.11)">
       <use xlink:href="#DejaVuSans-54"/>
       <use x="63.623047" xlink:href="#DejaVuSans-48"/>
      </g>
     </g>
    </g>
    <g id="xtick_5">
     <g id="line2d_5">
      <path clip-path="url(#pc9d3210b12)" d="M 796.548335 727.92 
L 796.548335 7.2 
" style="fill:none;stroke:#ffffff;stroke-linecap:round;"/>
     </g>
     <g id="text_5">
      <!-- 80 -->
      <defs>
       <path d="M 31.78125 34.625 
Q 24.75 34.625 20.71875 30.859375 
Q 16.703125 27.09375 16.703125 20.515625 
Q 16.703125 13.921875 20.71875 10.15625 
Q 24.75 6.390625 31.78125 6.390625 
Q 38.8125 6.390625 42.859375 10.171875 
Q 46.921875 13.96875 46.921875 20.515625 
Q 46.921875 27.09375 42.890625 30.859375 
Q 38.875 34.625 31.78125 34.625 
z
M 21.921875 38.8125 
Q 15.578125 40.375 12.03125 44.71875 
Q 8.5 49.078125 8.5 55.328125 
Q 8.5 64.0625 14.71875 69.140625 
Q 20.953125 74.21875 31.78125 74.21875 
Q 42.671875 74.21875 48.875 69.140625 
Q 55.078125 64.0625 55.078125 55.328125 
Q 55.078125 49.078125 51.53125 44.71875 
Q 48 40.375 41.703125 38.8125 
Q 48.828125 37.15625 52.796875 32.3125 
Q 56.78125 27.484375 56.78125 20.515625 
Q 56.78125 9.90625 50.3125 4.234375 
Q 43.84375 -1.421875 31.78125 -1.421875 
Q 19.734375 -1.421875 13.25 4.234375 
Q 6.78125 9.90625 6.78125 20.515625 
Q 6.78125 27.484375 10.78125 32.3125 
Q 14.796875 37.15625 21.921875 38.8125 
z
M 18.3125 54.390625 
Q 18.3125 48.734375 21.84375 45.5625 
Q 25.390625 42.390625 31.78125 42.390625 
Q 38.140625 42.390625 41.71875 45.5625 
Q 45.3125 48.734375 45.3125 54.390625 
Q 45.3125 60.0625 41.71875 63.234375 
Q 38.140625 66.40625 31.78125 66.40625 
Q 25.390625 66.40625 21.84375 63.234375 
Q 18.3125 60.0625 18.3125 54.390625 
z
" id="DejaVuSans-56"/>
      </defs>
      <g style="fill:#262626;" transform="translate(789.549585 745.778281)scale(0.11 -0.11)">
       <use xlink:href="#DejaVuSans-56"/>
       <use x="63.623047" xlink:href="#DejaVuSans-48"/>
      </g>
     </g>
    </g>
    <g id="text_6">
     <!-- Sample Index -->
     <defs>
      <path d="M 53.515625 70.515625 
L 53.515625 60.890625 
Q 47.90625 63.578125 42.921875 64.890625 
Q 37.9375 66.21875 33.296875 66.21875 
Q 25.25 66.21875 20.875 63.09375 
Q 16.5 59.96875 16.5 54.203125 
Q 16.5 49.359375 19.40625 46.890625 
Q 22.3125 44.4375 30.421875 42.921875 
L 36.375 41.703125 
Q 47.40625 39.59375 52.65625 34.296875 
Q 57.90625 29 57.90625 20.125 
Q 57.90625 9.515625 50.796875 4.046875 
Q 43.703125 -1.421875 29.984375 -1.421875 
Q 24.8125 -1.421875 18.96875 -0.25 
Q 13.140625 0.921875 6.890625 3.21875 
L 6.890625 13.375 
Q 12.890625 10.015625 18.65625 8.296875 
Q 24.421875 6.59375 29.984375 6.59375 
Q 38.421875 6.59375 43.015625 9.90625 
Q 47.609375 13.234375 47.609375 19.390625 
Q 47.609375 24.75 44.3125 27.78125 
Q 41.015625 30.8125 33.5 32.328125 
L 27.484375 33.5 
Q 16.453125 35.6875 11.515625 40.375 
Q 6.59375 45.0625 6.59375 53.421875 
Q 6.59375 63.09375 13.40625 68.65625 
Q 20.21875 74.21875 32.171875 74.21875 
Q 37.3125 74.21875 42.625 73.28125 
Q 47.953125 72.359375 53.515625 70.515625 
z
" id="DejaVuSans-83"/>
      <path d="M 34.28125 27.484375 
Q 23.390625 27.484375 19.1875 25 
Q 14.984375 22.515625 14.984375 16.5 
Q 14.984375 11.71875 18.140625 8.90625 
Q 21.296875 6.109375 26.703125 6.109375 
Q 34.1875 6.109375 38.703125 11.40625 
Q 43.21875 16.703125 43.21875 25.484375 
L 43.21875 27.484375 
z
M 52.203125 31.203125 
L 52.203125 0 
L 43.21875 0 
L 43.21875 8.296875 
Q 40.140625 3.328125 35.546875 0.953125 
Q 30.953125 -1.421875 24.3125 -1.421875 
Q 15.921875 -1.421875 10.953125 3.296875 
Q 6 8.015625 6 15.921875 
Q 6 25.140625 12.171875 29.828125 
Q 18.359375 34.515625 30.609375 34.515625 
L 43.21875 34.515625 
L 43.21875 35.40625 
Q 43.21875 41.609375 39.140625 45 
Q 35.0625 48.390625 27.6875 48.390625 
Q 23 48.390625 18.546875 47.265625 
Q 14.109375 46.140625 10.015625 43.890625 
L 10.015625 52.203125 
Q 14.9375 54.109375 19.578125 55.046875 
Q 24.21875 56 28.609375 56 
Q 40.484375 56 46.34375 49.84375 
Q 52.203125 43.703125 52.203125 31.203125 
z
" id="DejaVuSans-97"/>
      <path d="M 52 44.1875 
Q 55.375 50.25 60.0625 53.125 
Q 64.75 56 71.09375 56 
Q 79.640625 56 84.28125 50.015625 
Q 88.921875 44.046875 88.921875 33.015625 
L 88.921875 0 
L 79.890625 0 
L 79.890625 32.71875 
Q 79.890625 40.578125 77.09375 44.375 
Q 74.3125 48.1875 68.609375 48.1875 
Q 61.625 48.1875 57.5625 43.546875 
Q 53.515625 38.921875 53.515625 30.90625 
L 53.515625 0 
L 44.484375 0 
L 44.484375 32.71875 
Q 44.484375 40.625 41.703125 44.40625 
Q 38.921875 48.1875 33.109375 48.1875 
Q 26.21875 48.1875 22.15625 43.53125 
Q 18.109375 38.875 18.109375 30.90625 
L 18.109375 0 
L 9.078125 0 
L 9.078125 54.6875 
L 18.109375 54.6875 
L 18.109375 46.1875 
Q 21.1875 51.21875 25.484375 53.609375 
Q 29.78125 56 35.6875 56 
Q 41.65625 56 45.828125 52.96875 
Q 50 49.953125 52 44.1875 
z
" id="DejaVuSans-109"/>
      <path d="M 18.109375 8.203125 
L 18.109375 -20.796875 
L 9.078125 -20.796875 
L 9.078125 54.6875 
L 18.109375 54.6875 
L 18.109375 46.390625 
Q 20.953125 51.265625 25.265625 53.625 
Q 29.59375 56 35.59375 56 
Q 45.5625 56 51.78125 48.09375 
Q 58.015625 40.1875 58.015625 27.296875 
Q 58.015625 14.40625 51.78125 6.484375 
Q 45.5625 -1.421875 35.59375 -1.421875 
Q 29.59375 -1.421875 25.265625 0.953125 
Q 20.953125 3.328125 18.109375 8.203125 
z
M 48.6875 27.296875 
Q 48.6875 37.203125 44.609375 42.84375 
Q 40.53125 48.484375 33.40625 48.484375 
Q 26.265625 48.484375 22.1875 42.84375 
Q 18.109375 37.203125 18.109375 27.296875 
Q 18.109375 17.390625 22.1875 11.75 
Q 26.265625 6.109375 33.40625 6.109375 
Q 40.53125 6.109375 44.609375 11.75 
Q 48.6875 17.390625 48.6875 27.296875 
z
" id="DejaVuSans-112"/>
      <path d="M 9.421875 75.984375 
L 18.40625 75.984375 
L 18.40625 0 
L 9.421875 0 
z
" id="DejaVuSans-108"/>
      <path d="M 56.203125 29.59375 
L 56.203125 25.203125 
L 14.890625 25.203125 
Q 15.484375 15.921875 20.484375 11.0625 
Q 25.484375 6.203125 34.421875 6.203125 
Q 39.59375 6.203125 44.453125 7.46875 
Q 49.3125 8.734375 54.109375 11.28125 
L 54.109375 2.78125 
Q 49.265625 0.734375 44.1875 -0.34375 
Q 39.109375 -1.421875 33.890625 -1.421875 
Q 20.796875 -1.421875 13.15625 6.1875 
Q 5.515625 13.8125 5.515625 26.8125 
Q 5.515625 40.234375 12.765625 48.109375 
Q 20.015625 56 32.328125 56 
Q 43.359375 56 49.78125 48.890625 
Q 56.203125 41.796875 56.203125 29.59375 
z
M 47.21875 32.234375 
Q 47.125 39.59375 43.09375 43.984375 
Q 39.0625 48.390625 32.421875 48.390625 
Q 24.90625 48.390625 20.390625 44.140625 
Q 15.875 39.890625 15.1875 32.171875 
z
" id="DejaVuSans-101"/>
      <path id="DejaVuSans-32"/>
      <path d="M 9.8125 72.90625 
L 19.671875 72.90625 
L 19.671875 0 
L 9.8125 0 
z
" id="DejaVuSans-73"/>
      <path d="M 54.890625 33.015625 
L 54.890625 0 
L 45.90625 0 
L 45.90625 32.71875 
Q 45.90625 40.484375 42.875 44.328125 
Q 39.84375 48.1875 33.796875 48.1875 
Q 26.515625 48.1875 22.3125 43.546875 
Q 18.109375 38.921875 18.109375 30.90625 
L 18.109375 0 
L 9.078125 0 
L 9.078125 54.6875 
L 18.109375 54.6875 
L 18.109375 46.1875 
Q 21.34375 51.125 25.703125 53.5625 
Q 30.078125 56 35.796875 56 
Q 45.21875 56 50.046875 50.171875 
Q 54.890625 44.34375 54.890625 33.015625 
z
" id="DejaVuSans-110"/>
      <path d="M 45.40625 46.390625 
L 45.40625 75.984375 
L 54.390625 75.984375 
L 54.390625 0 
L 45.40625 0 
L 45.40625 8.203125 
Q 42.578125 3.328125 38.25 0.953125 
Q 33.9375 -1.421875 27.875 -1.421875 
Q 17.96875 -1.421875 11.734375 6.484375 
Q 5.515625 14.40625 5.515625 27.296875 
Q 5.515625 40.1875 11.734375 48.09375 
Q 17.96875 56 27.875 56 
Q 33.9375 56 38.25 53.625 
Q 42.578125 51.265625 45.40625 46.390625 
z
M 14.796875 27.296875 
Q 14.796875 17.390625 18.875 11.75 
Q 22.953125 6.109375 30.078125 6.109375 
Q 37.203125 6.109375 41.296875 11.75 
Q 45.40625 17.390625 45.40625 27.296875 
Q 45.40625 37.203125 41.296875 42.84375 
Q 37.203125 48.484375 30.078125 48.484375 
Q 22.953125 48.484375 18.875 42.84375 
Q 14.796875 37.203125 14.796875 27.296875 
z
" id="DejaVuSans-100"/>
      <path d="M 54.890625 54.6875 
L 35.109375 28.078125 
L 55.90625 0 
L 45.3125 0 
L 29.390625 21.484375 
L 13.484375 0 
L 2.875 0 
L 24.125 28.609375 
L 4.6875 54.6875 
L 15.28125 54.6875 
L 29.78125 35.203125 
L 44.28125 54.6875 
z
" id="DejaVuSans-120"/>
     </defs>
     <g style="fill:#262626;" transform="translate(382.955625 774.86125)scale(0.3 -0.3)">
      <use xlink:href="#DejaVuSans-83"/>
      <use x="63.476562" xlink:href="#DejaVuSans-97"/>
      <use x="124.755859" xlink:href="#DejaVuSans-109"/>
      <use x="222.167969" xlink:href="#DejaVuSans-112"/>
      <use x="285.644531" xlink:href="#DejaVuSans-108"/>
      <use x="313.427734" xlink:href="#DejaVuSans-101"/>
      <use x="374.951172" xlink:href="#DejaVuSans-32"/>
      <use x="406.738281" xlink:href="#DejaVuSans-73"/>
      <use x="436.230469" xlink:href="#DejaVuSans-110"/>
      <use x="499.609375" xlink:href="#DejaVuSans-100"/>
      <use x="563.085938" xlink:href="#DejaVuSans-101"/>
      <use x="622.859375" xlink:href="#DejaVuSans-120"/>
     </g>
    </g>
   </g>
   <g id="matplotlib.axis_2">
    <g id="ytick_1">
     <g id="line2d_6">
      <path clip-path="url(#pc9d3210b12)" d="M 66.767344 694.593152 
L 903.767344 694.593152 
" style="fill:none;stroke:#ffffff;stroke-linecap:round;"/>
     </g>
     <g id="text_7">
      <!-- −1.5 -->
      <defs>
       <path d="M 10.59375 35.5 
L 73.1875 35.5 
L 73.1875 27.203125 
L 10.59375 27.203125 
z
" id="DejaVuSans-8722"/>
       <path d="M 12.40625 8.296875 
L 28.515625 8.296875 
L 28.515625 63.921875 
L 10.984375 60.40625 
L 10.984375 69.390625 
L 28.421875 72.90625 
L 38.28125 72.90625 
L 38.28125 8.296875 
L 54.390625 8.296875 
L 54.390625 0 
L 12.40625 0 
z
" id="DejaVuSans-49"/>
       <path d="M 10.6875 12.40625 
L 21 12.40625 
L 21 0 
L 10.6875 0 
z
" id="DejaVuSans-46"/>
       <path d="M 10.796875 72.90625 
L 49.515625 72.90625 
L 49.515625 64.59375 
L 19.828125 64.59375 
L 19.828125 46.734375 
Q 21.96875 47.46875 24.109375 47.828125 
Q 26.265625 48.1875 28.421875 48.1875 
Q 40.625 48.1875 47.75 41.5 
Q 54.890625 34.8125 54.890625 23.390625 
Q 54.890625 11.625 47.5625 5.09375 
Q 40.234375 -1.421875 26.90625 -1.421875 
Q 22.3125 -1.421875 17.546875 -0.640625 
Q 12.796875 0.140625 7.71875 1.703125 
L 7.71875 11.625 
Q 12.109375 9.234375 16.796875 8.0625 
Q 21.484375 6.890625 26.703125 6.890625 
Q 35.15625 6.890625 40.078125 11.328125 
Q 45.015625 15.765625 45.015625 23.390625 
Q 45.015625 31 40.078125 35.4375 
Q 35.15625 39.890625 26.703125 39.890625 
Q 22.75 39.890625 18.8125 39.015625 
Q 14.890625 38.140625 10.796875 36.28125 
z
" id="DejaVuSans-53"/>
      </defs>
      <g style="fill:#262626;" transform="translate(30.55625 698.772292)scale(0.11 -0.11)">
       <use xlink:href="#DejaVuSans-8722"/>
       <use x="83.789062" xlink:href="#DejaVuSans-49"/>
       <use x="147.412109" xlink:href="#DejaVuSans-46"/>
       <use x="179.199219" xlink:href="#DejaVuSans-53"/>
      </g>
     </g>
    </g>
    <g id="ytick_2">
     <g id="line2d_7">
      <path clip-path="url(#pc9d3210b12)" d="M 66.767344 587.564543 
L 903.767344 587.564543 
" style="fill:none;stroke:#ffffff;stroke-linecap:round;"/>
     </g>
     <g id="text_8">
      <!-- −1.0 -->
      <g style="fill:#262626;" transform="translate(30.55625 591.743684)scale(0.11 -0.11)">
       <use xlink:href="#DejaVuSans-8722"/>
       <use x="83.789062" xlink:href="#DejaVuSans-49"/>
       <use x="147.412109" xlink:href="#DejaVuSans-46"/>
       <use x="179.199219" xlink:href="#DejaVuSans-48"/>
      </g>
     </g>
    </g>
    <g id="ytick_3">
     <g id="line2d_8">
      <path clip-path="url(#pc9d3210b12)" d="M 66.767344 480.535934 
L 903.767344 480.535934 
" style="fill:none;stroke:#ffffff;stroke-linecap:round;"/>
     </g>
     <g id="text_9">
      <!-- −0.5 -->
      <g style="fill:#262626;" transform="translate(30.55625 484.715075)scale(0.11 -0.11)">
       <use xlink:href="#DejaVuSans-8722"/>
       <use x="83.789062" xlink:href="#DejaVuSans-48"/>
       <use x="147.412109" xlink:href="#DejaVuSans-46"/>
       <use x="179.199219" xlink:href="#DejaVuSans-53"/>
      </g>
     </g>
    </g>
    <g id="ytick_4">
     <g id="line2d_9">
      <path clip-path="url(#pc9d3210b12)" d="M 66.767344 373.507325 
L 903.767344 373.507325 
" style="fill:none;stroke:#ffffff;stroke-linecap:round;"/>
     </g>
     <g id="text_10">
      <!-- 0.0 -->
      <g style="fill:#262626;" transform="translate(39.773906 377.686466)scale(0.11 -0.11)">
       <use xlink:href="#DejaVuSans-48"/>
       <use x="63.623047" xlink:href="#DejaVuSans-46"/>
       <use x="95.410156" xlink:href="#DejaVuSans-48"/>
      </g>
     </g>
    </g>
    <g id="ytick_5">
     <g id="line2d_10">
      <path clip-path="url(#pc9d3210b12)" d="M 66.767344 266.478716 
L 903.767344 266.478716 
" style="fill:none;stroke:#ffffff;stroke-linecap:round;"/>
     </g>
     <g id="text_11">
      <!-- 0.5 -->
      <g style="fill:#262626;" transform="translate(39.773906 270.657857)scale(0.11 -0.11)">
       <use xlink:href="#DejaVuSans-48"/>
       <use x="63.623047" xlink:href="#DejaVuSans-46"/>
       <use x="95.410156" xlink:href="#DejaVuSans-53"/>
      </g>
     </g>
    </g>
    <g id="ytick_6">
     <g id="line2d_11">
      <path clip-path="url(#pc9d3210b12)" d="M 66.767344 159.450108 
L 903.767344 159.450108 
" style="fill:none;stroke:#ffffff;stroke-linecap:round;"/>
     </g>
     <g id="text_12">
      <!-- 1.0 -->
      <g style="fill:#262626;" transform="translate(39.773906 163.629248)scale(0.11 -0.11)">
       <use xlink:href="#DejaVuSans-49"/>
       <use x="63.623047" xlink:href="#DejaVuSans-46"/>
       <use x="95.410156" xlink:href="#DejaVuSans-48"/>
      </g>
     </g>
    </g>
    <g id="ytick_7">
     <g id="line2d_12">
      <path clip-path="url(#pc9d3210b12)" d="M 66.767344 52.421499 
L 903.767344 52.421499 
" style="fill:none;stroke:#ffffff;stroke-linecap:round;"/>
     </g>
     <g id="text_13">
      <!-- 1.5 -->
      <g style="fill:#262626;" transform="translate(39.773906 56.600639)scale(0.11 -0.11)">
       <use xlink:href="#DejaVuSans-49"/>
       <use x="63.623047" xlink:href="#DejaVuSans-46"/>
       <use x="95.410156" xlink:href="#DejaVuSans-53"/>
      </g>
     </g>
    </g>
    <g id="text_14">
     <!-- Sensor Reading -->
     <defs>
      <path d="M 44.28125 53.078125 
L 44.28125 44.578125 
Q 40.484375 46.53125 36.375 47.5 
Q 32.28125 48.484375 27.875 48.484375 
Q 21.1875 48.484375 17.84375 46.4375 
Q 14.5 44.390625 14.5 40.28125 
Q 14.5 37.15625 16.890625 35.375 
Q 19.28125 33.59375 26.515625 31.984375 
L 29.59375 31.296875 
Q 39.15625 29.25 43.1875 25.515625 
Q 47.21875 21.78125 47.21875 15.09375 
Q 47.21875 7.46875 41.1875 3.015625 
Q 35.15625 -1.421875 24.609375 -1.421875 
Q 20.21875 -1.421875 15.453125 -0.5625 
Q 10.6875 0.296875 5.421875 2 
L 5.421875 11.28125 
Q 10.40625 8.6875 15.234375 7.390625 
Q 20.0625 6.109375 24.8125 6.109375 
Q 31.15625 6.109375 34.5625 8.28125 
Q 37.984375 10.453125 37.984375 14.40625 
Q 37.984375 18.0625 35.515625 20.015625 
Q 33.0625 21.96875 24.703125 23.78125 
L 21.578125 24.515625 
Q 13.234375 26.265625 9.515625 29.90625 
Q 5.8125 33.546875 5.8125 39.890625 
Q 5.8125 47.609375 11.28125 51.796875 
Q 16.75 56 26.8125 56 
Q 31.78125 56 36.171875 55.265625 
Q 40.578125 54.546875 44.28125 53.078125 
z
" id="DejaVuSans-115"/>
      <path d="M 30.609375 48.390625 
Q 23.390625 48.390625 19.1875 42.75 
Q 14.984375 37.109375 14.984375 27.296875 
Q 14.984375 17.484375 19.15625 11.84375 
Q 23.34375 6.203125 30.609375 6.203125 
Q 37.796875 6.203125 41.984375 11.859375 
Q 46.1875 17.53125 46.1875 27.296875 
Q 46.1875 37.015625 41.984375 42.703125 
Q 37.796875 48.390625 30.609375 48.390625 
z
M 30.609375 56 
Q 42.328125 56 49.015625 48.375 
Q 55.71875 40.765625 55.71875 27.296875 
Q 55.71875 13.875 49.015625 6.21875 
Q 42.328125 -1.421875 30.609375 -1.421875 
Q 18.84375 -1.421875 12.171875 6.21875 
Q 5.515625 13.875 5.515625 27.296875 
Q 5.515625 40.765625 12.171875 48.375 
Q 18.84375 56 30.609375 56 
z
" id="DejaVuSans-111"/>
      <path d="M 41.109375 46.296875 
Q 39.59375 47.171875 37.8125 47.578125 
Q 36.03125 48 33.890625 48 
Q 26.265625 48 22.1875 43.046875 
Q 18.109375 38.09375 18.109375 28.8125 
L 18.109375 0 
L 9.078125 0 
L 9.078125 54.6875 
L 18.109375 54.6875 
L 18.109375 46.1875 
Q 20.953125 51.171875 25.484375 53.578125 
Q 30.03125 56 36.53125 56 
Q 37.453125 56 38.578125 55.875 
Q 39.703125 55.765625 41.0625 55.515625 
z
" id="DejaVuSans-114"/>
      <path d="M 44.390625 34.1875 
Q 47.5625 33.109375 50.5625 29.59375 
Q 53.5625 26.078125 56.59375 19.921875 
L 66.609375 0 
L 56 0 
L 46.6875 18.703125 
Q 43.0625 26.03125 39.671875 28.421875 
Q 36.28125 30.8125 30.421875 30.8125 
L 19.671875 30.8125 
L 19.671875 0 
L 9.8125 0 
L 9.8125 72.90625 
L 32.078125 72.90625 
Q 44.578125 72.90625 50.734375 67.671875 
Q 56.890625 62.453125 56.890625 51.90625 
Q 56.890625 45.015625 53.6875 40.46875 
Q 50.484375 35.9375 44.390625 34.1875 
z
M 19.671875 64.796875 
L 19.671875 38.921875 
L 32.078125 38.921875 
Q 39.203125 38.921875 42.84375 42.21875 
Q 46.484375 45.515625 46.484375 51.90625 
Q 46.484375 58.296875 42.84375 61.546875 
Q 39.203125 64.796875 32.078125 64.796875 
z
" id="DejaVuSans-82"/>
      <path d="M 9.421875 54.6875 
L 18.40625 54.6875 
L 18.40625 0 
L 9.421875 0 
z
M 9.421875 75.984375 
L 18.40625 75.984375 
L 18.40625 64.59375 
L 9.421875 64.59375 
z
" id="DejaVuSans-105"/>
      <path d="M 45.40625 27.984375 
Q 45.40625 37.75 41.375 43.109375 
Q 37.359375 48.484375 30.078125 48.484375 
Q 22.859375 48.484375 18.828125 43.109375 
Q 14.796875 37.75 14.796875 27.984375 
Q 14.796875 18.265625 18.828125 12.890625 
Q 22.859375 7.515625 30.078125 7.515625 
Q 37.359375 7.515625 41.375 12.890625 
Q 45.40625 18.265625 45.40625 27.984375 
z
M 54.390625 6.78125 
Q 54.390625 -7.171875 48.1875 -13.984375 
Q 42 -20.796875 29.203125 -20.796875 
Q 24.46875 -20.796875 20.265625 -20.09375 
Q 16.0625 -19.390625 12.109375 -17.921875 
L 12.109375 -9.1875 
Q 16.0625 -11.328125 19.921875 -12.34375 
Q 23.78125 -13.375 27.78125 -13.375 
Q 36.625 -13.375 41.015625 -8.765625 
Q 45.40625 -4.15625 45.40625 5.171875 
L 45.40625 9.625 
Q 42.625 4.78125 38.28125 2.390625 
Q 33.9375 0 27.875 0 
Q 17.828125 0 11.671875 7.65625 
Q 5.515625 15.328125 5.515625 27.984375 
Q 5.515625 40.671875 11.671875 48.328125 
Q 17.828125 56 27.875 56 
Q 33.9375 56 38.28125 53.609375 
Q 42.625 51.21875 45.40625 46.390625 
L 45.40625 54.6875 
L 54.390625 54.6875 
z
" id="DejaVuSans-103"/>
     </defs>
     <g style="fill:#262626;" transform="translate(22.396875 445.608437)rotate(-90)scale(0.2 -0.2)">
      <use xlink:href="#DejaVuSans-83"/>
      <use x="63.476562" xlink:href="#DejaVuSans-101"/>
      <use x="125" xlink:href="#DejaVuSans-110"/>
      <use x="188.378906" xlink:href="#DejaVuSans-115"/>
      <use x="240.478516" xlink:href="#DejaVuSans-111"/>
      <use x="301.660156" xlink:href="#DejaVuSans-114"/>
      <use x="342.773438" xlink:href="#DejaVuSans-32"/>
      <use x="374.560547" xlink:href="#DejaVuSans-82"/>
      <use x="439.542969" xlink:href="#DejaVuSans-101"/>
      <use x="501.066406" xlink:href="#DejaVuSans-97"/>
      <use x="562.345703" xlink:href="#DejaVuSans-100"/>
      <use x="625.822266" xlink:href="#DejaVuSans-105"/>
      <use x="653.605469" xlink:href="#DejaVuSans-110"/>
      <use x="716.984375" xlink:href="#DejaVuSans-103"/>
     </g>
    </g>
   </g>
   <g id="line2d_13">
    <path clip-path="url(#pc9d3210b12)" d="M 104.812798 356.592007 
L 113.459493 375.95967 
L 122.106187 380.000873 
L 130.752881 368.096334 
L 139.399575 376.059957 
L 148.046269 382.990819 
L 156.692964 380.343946 
L 165.339658 377.65089 
L 173.986352 386.431826 
L 182.633046 388.544658 
L 191.27974 392.003809 
L 199.926435 398.099645 
L 208.573129 400.287778 
L 217.219823 399.659621 
L 225.866517 400.63765 
L 234.513212 403.22052 
L 243.159906 409.714018 
L 251.8066 407.908194 
L 260.453294 397.887291 
L 269.099988 402.32194 
L 277.746683 404.406843 
L 286.393377 407.454695 
L 295.040071 413.260889 
L 303.686765 404.349847 
L 312.333459 397.390704 
L 320.980154 387.131288 
L 329.626848 380.896463 
L 338.273542 376.405439 
L 346.920236 373.338471 
L 355.566931 370.9914 
L 364.213625 375.307403 
L 372.860319 367.29577 
L 381.507013 350.424277 
L 390.153707 341.997554 
L 398.800402 342.944308 
L 407.447096 351.24868 
L 416.09379 359.340056 
L 424.740484 359.222378 
L 433.387178 355.658236 
L 442.033873 363.848577 
L 450.680567 367.197436 
L 459.327261 366.476494 
L 467.973955 363.749934 
L 476.62065 358.265919 
L 485.267344 353.279848 
L 493.914038 349.89266 
L 502.560732 342.235087 
L 511.207426 335.377399 
L 519.854121 332.210648 
L 528.500815 331.526683 
L 537.147509 325.58384 
L 545.794203 325.553777 
L 554.440897 326.436354 
L 563.087592 326.888313 
L 571.734286 328.640218 
L 580.38098 330.77312 
L 589.027674 339.378008 
L 597.674369 345.06663 
L 606.321063 357.277711 
L 614.967757 375.846856 
L 623.614451 382.652141 
L 632.261145 391.338864 
L 640.90784 403.281801 
L 649.554534 403.324485 
L 658.201228 404.411038 
L 666.847922 408.271342 
L 675.494616 413.835393 
L 684.141311 416.432096 
L 692.788005 406.560705 
L 701.434699 401.239544 
L 710.081393 408.100004 
L 718.728088 408.746537 
L 727.374782 393.308355 
L 736.021476 389.439212 
L 744.66817 398.521057 
L 753.314864 399.121521 
L 761.961559 395.05063 
L 770.608253 391.068257 
L 779.254947 388.751543 
L 787.901641 380.214091 
L 796.548335 382.393598 
L 805.19503 376.177099 
L 813.841724 373.169117 
L 822.488418 370.495378 
L 831.135112 367.114354 
L 839.781807 368.150462 
L 848.428501 376.416129 
L 857.075195 381.879949 
L 865.721889 385.646119 
" style="fill:none;stroke:#fb694a;stroke-linecap:round;stroke-width:1.5;"/>
   </g>
   <g id="line2d_14"/>
   <g id="line2d_15"/>
   <g id="line2d_16">
    <path clip-path="url(#pc9d3210b12)" d="M 104.812798 373.31727 
L 113.459493 364.839708 
L 122.106187 370.171159 
L 130.752881 369.365333 
L 139.399575 372.11858 
L 148.046269 372.286365 
L 156.692964 371.184126 
L 165.339658 370.767162 
L 173.986352 368.630661 
L 182.633046 375.319615 
L 191.27974 385.94945 
L 199.926435 391.47087 
L 208.573129 392.238258 
L 217.219823 393.013875 
L 225.866517 395.648045 
L 234.513212 397.44986 
L 243.159906 398.124577 
L 251.8066 397.594787 
L 260.453294 399.138963 
L 269.099988 399.905898 
L 277.746683 400.519922 
L 286.393377 406.425526 
L 295.040071 413.327548 
L 303.686765 414.316508 
L 312.333459 406.08736 
L 320.980154 395.123151 
L 329.626848 385.121046 
L 338.273542 376.566121 
L 346.920236 372.982919 
L 355.566931 363.870651 
L 364.213625 352.176499 
L 372.860319 346.585616 
L 381.507013 343.696883 
L 390.153707 348.409117 
L 398.800402 353.018057 
L 407.447096 349.509392 
L 416.09379 343.891691 
L 424.740484 342.733229 
L 433.387178 348.041562 
L 442.033873 352.829259 
L 450.680567 354.736604 
L 459.327261 353.99977 
L 467.973955 361.422313 
L 476.62065 371.413842 
L 485.267344 375.678344 
L 493.914038 375.727549 
L 502.560732 380.399089 
L 511.207426 380.602937 
L 519.854121 374.361916 
L 528.500815 374.35474 
L 537.147509 377.224284 
L 545.794203 374.366018 
L 554.440897 374.341387 
L 563.087592 375.62063 
L 571.734286 372.256197 
L 580.38098 372.005116 
L 589.027674 367.983439 
L 597.674369 365.238638 
L 606.321063 361.142985 
L 614.967757 354.687668 
L 623.614451 348.663598 
L 632.261145 345.700634 
L 640.90784 346.642731 
L 649.554534 346.726582 
L 658.201228 337.877037 
L 666.847922 330.26123 
L 675.494616 325.730298 
L 684.141311 325.145026 
L 692.788005 320.950722 
L 701.434699 317.900335 
L 710.081393 312.407682 
L 718.728088 312.959373 
L 727.374782 320.888663 
L 736.021476 334.896708 
L 744.66817 341.269246 
L 753.314864 344.558823 
L 761.961559 349.449834 
L 770.608253 356.19424 
L 779.254947 353.679493 
L 787.901641 349.331241 
L 796.548335 348.571786 
L 805.19503 357.957494 
L 813.841724 358.259801 
L 822.488418 362.481996 
L 831.135112 369.268493 
L 839.781807 379.411079 
L 848.428501 391.382423 
L 857.075195 389.896086 
L 865.721889 382.767806 
" style="fill:none;stroke:#6aaed6;stroke-linecap:round;stroke-width:1.5;"/>
   </g>
   <g id="line2d_17"/>
   <g id="line2d_18"/>
   <g id="line2d_19">
    <path clip-path="url(#pc9d3210b12)" d="M 104.812798 357.810551 
L 113.459493 361.432954 
L 122.106187 355.64121 
L 130.752881 353.876527 
L 139.399575 347.194549 
L 148.046269 346.351154 
L 156.692964 348.909945 
L 165.339658 355.573052 
L 173.986352 362.57215 
L 182.633046 367.667531 
L 191.27974 365.682593 
L 199.926435 366.186987 
L 208.573129 371.898249 
L 217.219823 381.555975 
L 225.866517 387.590481 
L 234.513212 390.372194 
L 243.159906 394.653423 
L 251.8066 398.742212 
L 260.453294 399.613932 
L 269.099988 402.832366 
L 277.746683 415.317494 
L 286.393377 425.140395 
L 295.040071 424.28812 
L 303.686765 407.261355 
L 312.333459 395.009521 
L 320.980154 392.014826 
L 329.626848 383.669764 
L 338.273542 365.279274 
L 346.920236 352.005295 
L 355.566931 352.037217 
L 364.213625 355.046637 
L 372.860319 355.599527 
L 381.507013 349.465668 
L 390.153707 349.174244 
L 398.800402 353.954585 
L 407.447096 356.163836 
L 416.09379 356.887911 
L 424.740484 359.203966 
L 433.387178 358.078537 
L 442.033873 359.994157 
L 450.680567 368.575346 
L 459.327261 372.688644 
L 467.973955 377.590819 
L 476.62065 379.152994 
L 485.267344 380.631803 
L 493.914038 388.112201 
L 502.560732 400.403804 
L 511.207426 402.894718 
L 519.854121 399.640036 
L 528.500815 397.212623 
L 537.147509 391.572835 
L 545.794203 391.384643 
L 554.440897 389.737622 
L 563.087592 390.394343 
L 571.734286 393.895971 
L 580.38098 405.434179 
L 589.027674 410.911521 
L 597.674369 413.706376 
L 606.321063 414.252593 
L 614.967757 412.155084 
L 623.614451 414.166011 
L 632.261145 410.608933 
L 640.90784 397.67749 
L 649.554534 378.882712 
L 658.201228 368.434476 
L 666.847922 370.177954 
L 675.494616 366.684797 
L 684.141311 362.179293 
L 692.788005 351.185784 
L 701.434699 341.126475 
L 710.081393 338.439407 
L 718.728088 335.831788 
L 727.374782 328.085675 
L 736.021476 333.380611 
L 744.66817 347.101295 
L 753.314864 355.878402 
L 761.961559 358.674839 
L 770.608253 361.424189 
L 779.254947 370.361904 
L 787.901641 374.345623 
L 796.548335 379.37457 
L 805.19503 374.324731 
L 813.841724 376.056624 
L 822.488418 396.587837 
L 831.135112 414.563193 
L 839.781807 410.196084 
L 848.428501 396.60723 
L 857.075195 400.444096 
L 865.721889 412.663777 
" style="fill:none;stroke:#959595;stroke-linecap:round;stroke-width:1.5;"/>
   </g>
   <g id="line2d_20"/>
   <g id="line2d_21"/>
   <g id="line2d_22">
    <path clip-path="url(#pc9d3210b12)" d="M 104.812798 391.985277 
L 113.459493 458.019145 
L 122.106187 486.122173 
L 130.752881 440.865704 
L 139.399575 436.64025 
L 148.046269 458.526154 
L 156.692964 473.163533 
L 165.339658 485.677337 
L 173.986352 491.229484 
L 182.633046 456.60064 
L 191.27974 414.250564 
L 199.926435 407.778919 
L 208.573129 465.709712 
L 217.219823 470.814905 
L 225.866517 427.674944 
L 234.513212 395.515545 
L 243.159906 399.417605 
L 251.8066 383.405453 
L 260.453294 330.809986 
L 269.099988 362.194046 
L 277.746683 409.976247 
L 286.393377 359.026739 
L 295.040071 269.205094 
L 303.686765 272.308208 
L 312.333459 309.881273 
L 320.980154 289.446644 
L 329.626848 242.779441 
L 338.273542 245.91835 
L 346.920236 299.212488 
L 355.566931 315.445158 
L 364.213625 308.325101 
L 372.860319 282.712477 
L 381.507013 255.402581 
L 390.153707 256.860249 
L 398.800402 283.080575 
L 407.447096 337.566842 
L 416.09379 381.186169 
L 424.740484 392.009269 
L 433.387178 402.713568 
L 442.033873 427.051345 
L 450.680567 426.783353 
L 459.327261 415.687993 
L 467.973955 396.23308 
L 476.62065 371.861611 
L 485.267344 381.333475 
L 493.914038 397.718677 
L 502.560732 371.261786 
L 511.207426 320.717938 
L 519.854121 294.864804 
L 528.500815 264.076068 
L 537.147509 229.854326 
L 545.794203 219.937239 
L 554.440897 221.378193 
L 563.087592 218.767346 
L 571.734286 225.633254 
L 580.38098 202.586273 
L 589.027674 165.497781 
L 597.674369 147.298265 
L 606.321063 129.648373 
L 614.967757 132.030391 
L 623.614451 113.436577 
L 632.261145 68.249051 
L 640.90784 39.96 
L 649.554534 97.210593 
L 658.201228 192.187184 
L 666.847922 183.797606 
L 675.494616 130.716795 
L 684.141311 96.594853 
L 692.788005 102.927481 
L 701.434699 149.05921 
L 710.081393 137.269539 
L 718.728088 117.012844 
L 727.374782 178.204772 
L 736.021476 267.868846 
L 744.66817 323.857305 
L 753.314864 363.343517 
L 761.961559 401.61863 
L 770.608253 450.058404 
L 779.254947 493.973775 
L 787.901641 540.999538 
L 796.548335 545.794693 
L 805.19503 569.971644 
L 813.841724 661.594469 
L 822.488418 695.16 
L 831.135112 632.104177 
L 839.781807 512.68668 
L 848.428501 494.329835 
L 857.075195 540.305663 
L 865.721889 480.574134 
" style="fill:none;stroke:#fd8c3b;stroke-linecap:round;stroke-width:1.5;"/>
   </g>
   <g id="line2d_23"/>
   <g id="line2d_24"/>
   <g id="line2d_25">
    <path clip-path="url(#pc9d3210b12)" d="M 104.812798 350.377811 
L 113.459493 332.728483 
L 122.106187 302.186789 
L 130.752881 371.682575 
L 139.399575 397.661863 
L 148.046269 375.408886 
L 156.692964 357.613896 
L 165.339658 347.650304 
L 173.986352 330.027664 
L 182.633046 324.401456 
L 191.27974 353.417203 
L 199.926435 385.407288 
L 208.573129 344.590277 
L 217.219823 310.381903 
L 225.866517 333.109305 
L 234.513212 367.153216 
L 243.159906 338.71922 
L 251.8066 306.145846 
L 260.453294 387.799304 
L 269.099988 426.379514 
L 277.746683 365.482619 
L 286.393377 359.675601 
L 295.040071 425.387517 
L 303.686765 425.44467 
L 312.333459 390.052997 
L 320.980154 390.300476 
L 329.626848 412.715747 
L 338.273542 419.033715 
L 346.920236 374.667239 
L 355.566931 372.958222 
L 364.213625 388.222689 
L 372.860319 396.731268 
L 381.507013 394.17619 
L 390.153707 404.863306 
L 398.800402 388.496208 
L 407.447096 328.003569 
L 416.09379 277.033118 
L 424.740484 266.082096 
L 433.387178 261.717437 
L 442.033873 256.707271 
L 450.680567 259.117996 
L 459.327261 279.357026 
L 467.973955 306.877933 
L 476.62065 334.59316 
L 485.267344 337.764756 
L 493.914038 333.520263 
L 502.560732 332.331831 
L 511.207426 349.381555 
L 519.854121 337.962419 
L 528.500815 306.52068 
L 537.147509 312.323952 
L 545.794203 313.272589 
L 554.440897 283.247932 
L 563.087592 281.654007 
L 571.734286 274.05936 
L 580.38098 258.935265 
L 589.027674 262.974141 
L 597.674369 253.217292 
L 606.321063 252.037498 
L 614.967757 240.565623 
L 623.614451 235.465151 
L 632.261145 254.479418 
L 640.90784 297.586213 
L 649.554534 284.447655 
L 658.201228 264.929938 
L 666.847922 327.732349 
L 675.494616 411.913604 
L 684.141311 473.666409 
L 692.788005 464.850943 
L 701.434699 395.103745 
L 710.081393 422.387243 
L 718.728088 477.081418 
L 727.374782 465.034146 
L 736.021476 464.616838 
L 744.66817 461.295676 
L 753.314864 428.474041 
L 761.961559 397.961775 
L 770.608253 415.002204 
L 779.254947 433.160388 
L 787.901641 402.345458 
L 796.548335 375.859104 
L 805.19503 397.557853 
L 813.841724 389.223337 
L 822.488418 285.987873 
L 831.135112 196.708713 
L 839.781807 311.512142 
L 848.428501 351.855598 
L 857.075195 207.83129 
L 865.721889 186.086319 
" style="fill:none;stroke:#9e9ac8;stroke-linecap:round;stroke-width:1.5;"/>
   </g>
   <g id="line2d_26"/>
   <g id="line2d_27"/>
   <g id="line2d_28">
    <path clip-path="url(#pc9d3210b12)" d="M 104.812798 367.671018 
L 113.459493 347.201219 
L 122.106187 326.868166 
L 130.752881 323.339362 
L 139.399575 324.514977 
L 148.046269 352.771165 
L 156.692964 370.142314 
L 165.339658 374.157929 
L 173.986352 374.967045 
L 182.633046 354.580404 
L 191.27974 347.805878 
L 199.926435 367.391286 
L 208.573129 378.941897 
L 217.219823 357.503826 
L 225.866517 370.0418 
L 234.513212 389.042222 
L 243.159906 397.866369 
L 251.8066 406.229962 
L 260.453294 428.643229 
L 269.099988 436.544846 
L 277.746683 399.202833 
L 286.393377 371.57284 
L 295.040071 393.898051 
L 303.686765 399.65272 
L 312.333459 382.008124 
L 320.980154 359.310141 
L 329.626848 343.418176 
L 338.273542 331.081793 
L 346.920236 307.769748 
L 355.566931 289.359004 
L 364.213625 307.457763 
L 372.860319 331.72981 
L 381.507013 354.954253 
L 390.153707 374.428599 
L 398.800402 406.316138 
L 407.447096 440.452319 
L 416.09379 482.30049 
L 424.740484 515.593327 
L 433.387178 525.026829 
L 442.033873 525.551688 
L 450.680567 528.692587 
L 459.327261 527.144229 
L 467.973955 523.619367 
L 476.62065 518.73212 
L 485.267344 515.167769 
L 493.914038 514.32713 
L 502.560732 513.871437 
L 511.207426 515.781493 
L 519.854121 492.918545 
L 528.500815 465.129907 
L 537.147509 450.988903 
L 545.794203 429.066904 
L 554.440897 404.826933 
L 563.087592 406.096157 
L 571.734286 403.382627 
L 580.38098 389.047147 
L 589.027674 387.183041 
L 597.674369 375.11889 
L 606.321063 358.568826 
L 614.967757 356.717303 
L 623.614451 331.989366 
L 632.261145 309.346054 
L 640.90784 316.216287 
L 649.554534 311.808101 
L 658.201228 281.287599 
L 666.847922 259.639181 
L 675.494616 246.927724 
L 684.141311 260.129323 
L 692.788005 225.317729 
L 701.434699 159.955331 
L 710.081393 153.958489 
L 718.728088 197.502298 
L 727.374782 223.519375 
L 736.021476 229.624591 
L 744.66817 262.454679 
L 753.314864 279.32118 
L 761.961559 288.070798 
L 770.608253 323.959925 
L 779.254947 381.068635 
L 787.901641 397.169984 
L 796.548335 374.284304 
L 805.19503 387.018319 
L 813.841724 371.423236 
L 822.488418 330.010918 
L 831.135112 237.949073 
L 839.781807 271.315962 
L 848.428501 301.456851 
L 857.075195 318.685307 
L 865.721889 303.016105 
" style="fill:none;stroke:#73c476;stroke-linecap:round;stroke-width:1.5;"/>
   </g>
   <g id="line2d_29"/>
   <g id="line2d_30"/>
   <g id="patch_3">
    <path d="M 66.767344 727.92 
L 66.767344 7.2 
" style="fill:none;stroke:#ffffff;stroke-linecap:square;stroke-linejoin:miter;stroke-width:1.25;"/>
   </g>
   <g id="patch_4">
    <path d="M 903.767344 727.92 
L 903.767344 7.2 
" style="fill:none;stroke:#ffffff;stroke-linecap:square;stroke-linejoin:miter;stroke-width:1.25;"/>
   </g>
   <g id="patch_5">
    <path d="M 66.767344 727.92 
L 903.767344 727.92 
" style="fill:none;stroke:#ffffff;stroke-linecap:square;stroke-linejoin:miter;stroke-width:1.25;"/>
   </g>
   <g id="patch_6">
    <path d="M 66.767344 7.2 
L 903.767344 7.2 
" style="fill:none;stroke:#ffffff;stroke-linecap:square;stroke-linejoin:miter;stroke-width:1.25;"/>
   </g>
   <g id="legend_1">
    <g id="patch_7">
     <path d="M 74.467344 211.586875 
L 147.373281 211.586875 
Q 149.573281 211.586875 149.573281 209.386875 
L 149.573281 14.9 
Q 149.573281 12.7 147.373281 12.7 
L 74.467344 12.7 
Q 72.267344 12.7 72.267344 14.9 
L 72.267344 209.386875 
Q 72.267344 211.586875 74.467344 211.586875 
z
" style="fill:#eaeaf2;opacity:0.8;stroke:#cccccc;stroke-linejoin:miter;"/>
    </g>
    <g id="line2d_31">
     <path d="M 76.667344 21.608281 
L 98.667344 21.608281 
" style="fill:none;"/>
    </g>
    <g id="line2d_32"/>
    <g id="text_15">
     <!-- Sensor -->
     <g style="fill:#262626;" transform="translate(107.467344 25.458281)scale(0.11 -0.11)">
      <use xlink:href="#DejaVuSans-83"/>
      <use x="63.476562" xlink:href="#DejaVuSans-101"/>
      <use x="125" xlink:href="#DejaVuSans-110"/>
      <use x="188.378906" xlink:href="#DejaVuSans-115"/>
      <use x="240.478516" xlink:href="#DejaVuSans-111"/>
      <use x="301.660156" xlink:href="#DejaVuSans-114"/>
     </g>
    </g>
    <g id="line2d_33">
     <path d="M 76.667344 37.754219 
L 98.667344 37.754219 
" style="fill:none;stroke:#fb694a;stroke-linecap:round;stroke-width:1.5;"/>
    </g>
    <g id="line2d_34"/>
    <g id="text_16">
     <!-- acc_x -->
     <defs>
      <path d="M 48.78125 52.59375 
L 48.78125 44.1875 
Q 44.96875 46.296875 41.140625 47.34375 
Q 37.3125 48.390625 33.40625 48.390625 
Q 24.65625 48.390625 19.8125 42.84375 
Q 14.984375 37.3125 14.984375 27.296875 
Q 14.984375 17.28125 19.8125 11.734375 
Q 24.65625 6.203125 33.40625 6.203125 
Q 37.3125 6.203125 41.140625 7.25 
Q 44.96875 8.296875 48.78125 10.40625 
L 48.78125 2.09375 
Q 45.015625 0.34375 40.984375 -0.53125 
Q 36.96875 -1.421875 32.421875 -1.421875 
Q 20.0625 -1.421875 12.78125 6.34375 
Q 5.515625 14.109375 5.515625 27.296875 
Q 5.515625 40.671875 12.859375 48.328125 
Q 20.21875 56 33.015625 56 
Q 37.15625 56 41.109375 55.140625 
Q 45.0625 54.296875 48.78125 52.59375 
z
" id="DejaVuSans-99"/>
      <path d="M 50.984375 -16.609375 
L 50.984375 -23.578125 
L -0.984375 -23.578125 
L -0.984375 -16.609375 
z
" id="DejaVuSans-95"/>
     </defs>
     <g style="fill:#262626;" transform="translate(107.467344 41.604219)scale(0.11 -0.11)">
      <use xlink:href="#DejaVuSans-97"/>
      <use x="61.279297" xlink:href="#DejaVuSans-99"/>
      <use x="116.259766" xlink:href="#DejaVuSans-99"/>
      <use x="171.240234" xlink:href="#DejaVuSans-95"/>
      <use x="221.240234" xlink:href="#DejaVuSans-120"/>
     </g>
    </g>
    <g id="line2d_35">
     <path d="M 76.667344 54.206094 
L 98.667344 54.206094 
" style="fill:none;"/>
    </g>
    <g id="line2d_36"/>
    <g id="text_17">
     <!-- Sensor -->
     <g style="fill:#262626;" transform="translate(107.467344 58.056094)scale(0.11 -0.11)">
      <use xlink:href="#DejaVuSans-83"/>
      <use x="63.476562" xlink:href="#DejaVuSans-101"/>
      <use x="125" xlink:href="#DejaVuSans-110"/>
      <use x="188.378906" xlink:href="#DejaVuSans-115"/>
      <use x="240.478516" xlink:href="#DejaVuSans-111"/>
      <use x="301.660156" xlink:href="#DejaVuSans-114"/>
     </g>
    </g>
    <g id="line2d_37">
     <path d="M 76.667344 70.352031 
L 98.667344 70.352031 
" style="fill:none;stroke:#6aaed6;stroke-linecap:round;stroke-width:1.5;"/>
    </g>
    <g id="line2d_38"/>
    <g id="text_18">
     <!-- acc_y -->
     <defs>
      <path d="M 32.171875 -5.078125 
Q 28.375 -14.84375 24.75 -17.8125 
Q 21.140625 -20.796875 15.09375 -20.796875 
L 7.90625 -20.796875 
L 7.90625 -13.28125 
L 13.1875 -13.28125 
Q 16.890625 -13.28125 18.9375 -11.515625 
Q 21 -9.765625 23.484375 -3.21875 
L 25.09375 0.875 
L 2.984375 54.6875 
L 12.5 54.6875 
L 29.59375 11.921875 
L 46.6875 54.6875 
L 56.203125 54.6875 
z
" id="DejaVuSans-121"/>
     </defs>
     <g style="fill:#262626;" transform="translate(107.467344 74.202031)scale(0.11 -0.11)">
      <use xlink:href="#DejaVuSans-97"/>
      <use x="61.279297" xlink:href="#DejaVuSans-99"/>
      <use x="116.259766" xlink:href="#DejaVuSans-99"/>
      <use x="171.240234" xlink:href="#DejaVuSans-95"/>
      <use x="221.240234" xlink:href="#DejaVuSans-121"/>
     </g>
    </g>
    <g id="line2d_39">
     <path d="M 76.667344 86.803906 
L 98.667344 86.803906 
" style="fill:none;"/>
    </g>
    <g id="line2d_40"/>
    <g id="text_19">
     <!-- Sensor -->
     <g style="fill:#262626;" transform="translate(107.467344 90.653906)scale(0.11 -0.11)">
      <use xlink:href="#DejaVuSans-83"/>
      <use x="63.476562" xlink:href="#DejaVuSans-101"/>
      <use x="125" xlink:href="#DejaVuSans-110"/>
      <use x="188.378906" xlink:href="#DejaVuSans-115"/>
      <use x="240.478516" xlink:href="#DejaVuSans-111"/>
      <use x="301.660156" xlink:href="#DejaVuSans-114"/>
     </g>
    </g>
    <g id="line2d_41">
     <path d="M 76.667344 102.949844 
L 98.667344 102.949844 
" style="fill:none;stroke:#959595;stroke-linecap:round;stroke-width:1.5;"/>
    </g>
    <g id="line2d_42"/>
    <g id="text_20">
     <!-- acc_z -->
     <defs>
      <path d="M 5.515625 54.6875 
L 48.1875 54.6875 
L 48.1875 46.484375 
L 14.40625 7.171875 
L 48.1875 7.171875 
L 48.1875 0 
L 4.296875 0 
L 4.296875 8.203125 
L 38.09375 47.515625 
L 5.515625 47.515625 
z
" id="DejaVuSans-122"/>
     </defs>
     <g style="fill:#262626;" transform="translate(107.467344 106.799844)scale(0.11 -0.11)">
      <use xlink:href="#DejaVuSans-97"/>
      <use x="61.279297" xlink:href="#DejaVuSans-99"/>
      <use x="116.259766" xlink:href="#DejaVuSans-99"/>
      <use x="171.240234" xlink:href="#DejaVuSans-95"/>
      <use x="221.240234" xlink:href="#DejaVuSans-122"/>
     </g>
    </g>
    <g id="line2d_43">
     <path d="M 76.667344 119.401719 
L 98.667344 119.401719 
" style="fill:none;"/>
    </g>
    <g id="line2d_44"/>
    <g id="text_21">
     <!-- Sensor -->
     <g style="fill:#262626;" transform="translate(107.467344 123.251719)scale(0.11 -0.11)">
      <use xlink:href="#DejaVuSans-83"/>
      <use x="63.476562" xlink:href="#DejaVuSans-101"/>
      <use x="125" xlink:href="#DejaVuSans-110"/>
      <use x="188.378906" xlink:href="#DejaVuSans-115"/>
      <use x="240.478516" xlink:href="#DejaVuSans-111"/>
      <use x="301.660156" xlink:href="#DejaVuSans-114"/>
     </g>
    </g>
    <g id="line2d_45">
     <path d="M 76.667344 135.547656 
L 98.667344 135.547656 
" style="fill:none;stroke:#fd8c3b;stroke-linecap:round;stroke-width:1.5;"/>
    </g>
    <g id="line2d_46"/>
    <g id="text_22">
     <!-- gy_x -->
     <g style="fill:#262626;" transform="translate(107.467344 139.397656)scale(0.11 -0.11)">
      <use xlink:href="#DejaVuSans-103"/>
      <use x="63.476562" xlink:href="#DejaVuSans-121"/>
      <use x="122.65625" xlink:href="#DejaVuSans-95"/>
      <use x="172.65625" xlink:href="#DejaVuSans-120"/>
     </g>
    </g>
    <g id="line2d_47">
     <path d="M 76.667344 151.999531 
L 98.667344 151.999531 
" style="fill:none;"/>
    </g>
    <g id="line2d_48"/>
    <g id="text_23">
     <!-- Sensor -->
     <g style="fill:#262626;" transform="translate(107.467344 155.849531)scale(0.11 -0.11)">
      <use xlink:href="#DejaVuSans-83"/>
      <use x="63.476562" xlink:href="#DejaVuSans-101"/>
      <use x="125" xlink:href="#DejaVuSans-110"/>
      <use x="188.378906" xlink:href="#DejaVuSans-115"/>
      <use x="240.478516" xlink:href="#DejaVuSans-111"/>
      <use x="301.660156" xlink:href="#DejaVuSans-114"/>
     </g>
    </g>
    <g id="line2d_49">
     <path d="M 76.667344 168.145469 
L 98.667344 168.145469 
" style="fill:none;stroke:#9e9ac8;stroke-linecap:round;stroke-width:1.5;"/>
    </g>
    <g id="line2d_50"/>
    <g id="text_24">
     <!-- gy_y -->
     <g style="fill:#262626;" transform="translate(107.467344 171.995469)scale(0.11 -0.11)">
      <use xlink:href="#DejaVuSans-103"/>
      <use x="63.476562" xlink:href="#DejaVuSans-121"/>
      <use x="122.65625" xlink:href="#DejaVuSans-95"/>
      <use x="172.65625" xlink:href="#DejaVuSans-121"/>
     </g>
    </g>
    <g id="line2d_51">
     <path d="M 76.667344 184.597344 
L 98.667344 184.597344 
" style="fill:none;"/>
    </g>
    <g id="line2d_52"/>
    <g id="text_25">
     <!-- Sensor -->
     <g style="fill:#262626;" transform="translate(107.467344 188.447344)scale(0.11 -0.11)">
      <use xlink:href="#DejaVuSans-83"/>
      <use x="63.476562" xlink:href="#DejaVuSans-101"/>
      <use x="125" xlink:href="#DejaVuSans-110"/>
      <use x="188.378906" xlink:href="#DejaVuSans-115"/>
      <use x="240.478516" xlink:href="#DejaVuSans-111"/>
      <use x="301.660156" xlink:href="#DejaVuSans-114"/>
     </g>
    </g>
    <g id="line2d_53">
     <path d="M 76.667344 200.743281 
L 98.667344 200.743281 
" style="fill:none;stroke:#73c476;stroke-linecap:round;stroke-width:1.5;"/>
    </g>
    <g id="line2d_54"/>
    <g id="text_26">
     <!-- gy_z -->
     <g style="fill:#262626;" transform="translate(107.467344 204.593281)scale(0.11 -0.11)">
      <use xlink:href="#DejaVuSans-103"/>
      <use x="63.476562" xlink:href="#DejaVuSans-121"/>
      <use x="122.65625" xlink:href="#DejaVuSans-95"/>
      <use x="172.65625" xlink:href="#DejaVuSans-122"/>
     </g>
    </g>
   </g>
  </g>
 </g>
 <defs>
  <clipPath id="pc9d3210b12">
   <rect height="720.72" width="837" x="66.767344" y="7.2"/>
  </clipPath>
 </defs>
</svg>
