<?xml version="1.0" encoding="utf-8" standalone="no"?>
<!DOCTYPE svg PUBLIC "-//W3C//DTD SVG 1.1//EN"
  "http://www.w3.org/Graphics/SVG/1.1/DTD/svg11.dtd">
<!-- Created with matplotlib (https://matplotlib.org/) -->
<svg height="788.300312pt" version="1.1" viewBox="0 0 910.967344 788.300312" width="910.967344pt" xmlns="http://www.w3.org/2000/svg" xmlns:xlink="http://www.w3.org/1999/xlink">
 <defs>
  <style type="text/css">
*{stroke-linecap:butt;stroke-linejoin:round;}
  </style>
 </defs>
 <g id="figure_1">
  <g id="patch_1">
   <path d="M 0 788.300312 
L 910.967344 788.300312 
L 910.967344 0 
L 0 0 
z
" style="fill:#ffffff;"/>
  </g>
  <g id="axes_1">
   <g id="patch_2">
    <path d="M 66.767344 727.92 
L 903.767344 727.92 
L 903.767344 7.2 
L 66.767344 7.2 
z
" style="fill:#eaeaf2;"/>
   </g>
   <g id="matplotlib.axis_1">
    <g id="xtick_1">
     <g id="line2d_1">
      <path clip-path="url(#pfe3068abbc)" d="M 104.812798 727.92 
L 104.812798 7.2 
" style="fill:none;stroke:#ffffff;stroke-linecap:round;"/>
     </g>
     <g id="text_1">
      <!-- 0 -->
      <defs>
       <path d="M 31.78125 66.40625 
Q 24.171875 66.40625 20.328125 58.90625 
Q 16.5 51.421875 16.5 36.375 
Q 16.5 21.390625 20.328125 13.890625 
Q 24.171875 6.390625 31.78125 6.390625 
Q 39.453125 6.390625 43.28125 13.890625 
Q 47.125 21.390625 47.125 36.375 
Q 47.125 51.421875 43.28125 58.90625 
Q 39.453125 66.40625 31.78125 66.40625 
z
M 31.78125 74.21875 
Q 44.046875 74.21875 50.515625 64.515625 
Q 56.984375 54.828125 56.984375 36.375 
Q 56.984375 17.96875 50.515625 8.265625 
Q 44.046875 -1.421875 31.78125 -1.421875 
Q 19.53125 -1.421875 13.0625 8.265625 
Q 6.59375 17.96875 6.59375 36.375 
Q 6.59375 54.828125 13.0625 64.515625 
Q 19.53125 74.21875 31.78125 74.21875 
z
" id="DejaVuSans-48"/>
      </defs>
      <g style="fill:#262626;" transform="translate(101.313423 745.778281)scale(0.11 -0.11)">
       <use xlink:href="#DejaVuSans-48"/>
      </g>
     </g>
    </g>
    <g id="xtick_2">
     <g id="line2d_2">
      <path clip-path="url(#pfe3068abbc)" d="M 288.164386 727.92 
L 288.164386 7.2 
" style="fill:none;stroke:#ffffff;stroke-linecap:round;"/>
     </g>
     <g id="text_2">
      <!-- 20 -->
      <defs>
       <path d="M 19.1875 8.296875 
L 53.609375 8.296875 
L 53.609375 0 
L 7.328125 0 
L 7.328125 8.296875 
Q 12.9375 14.109375 22.625 23.890625 
Q 32.328125 33.6875 34.8125 36.53125 
Q 39.546875 41.84375 41.421875 45.53125 
Q 43.3125 49.21875 43.3125 52.78125 
Q 43.3125 58.59375 39.234375 62.25 
Q 35.15625 65.921875 28.609375 65.921875 
Q 23.96875 65.921875 18.8125 64.3125 
Q 13.671875 62.703125 7.8125 59.421875 
L 7.8125 69.390625 
Q 13.765625 71.78125 18.9375 73 
Q 24.125 74.21875 28.421875 74.21875 
Q 39.75 74.21875 46.484375 68.546875 
Q 53.21875 62.890625 53.21875 53.421875 
Q 53.21875 48.921875 51.53125 44.890625 
Q 49.859375 40.875 45.40625 35.40625 
Q 44.1875 33.984375 37.640625 27.21875 
Q 31.109375 20.453125 19.1875 8.296875 
z
" id="DejaVuSans-50"/>
      </defs>
      <g style="fill:#262626;" transform="translate(281.165636 745.778281)scale(0.11 -0.11)">
       <use xlink:href="#DejaVuSans-50"/>
       <use x="63.623047" xlink:href="#DejaVuSans-48"/>
      </g>
     </g>
    </g>
    <g id="xtick_3">
     <g id="line2d_3">
      <path clip-path="url(#pfe3068abbc)" d="M 471.515975 727.92 
L 471.515975 7.2 
" style="fill:none;stroke:#ffffff;stroke-linecap:round;"/>
     </g>
     <g id="text_3">
      <!-- 40 -->
      <defs>
       <path d="M 37.796875 64.3125 
L 12.890625 25.390625 
L 37.796875 25.390625 
z
M 35.203125 72.90625 
L 47.609375 72.90625 
L 47.609375 25.390625 
L 58.015625 25.390625 
L 58.015625 17.1875 
L 47.609375 17.1875 
L 47.609375 0 
L 37.796875 0 
L 37.796875 17.1875 
L 4.890625 17.1875 
L 4.890625 26.703125 
z
" id="DejaVuSans-52"/>
      </defs>
      <g style="fill:#262626;" transform="translate(464.517225 745.778281)scale(0.11 -0.11)">
       <use xlink:href="#DejaVuSans-52"/>
       <use x="63.623047" xlink:href="#DejaVuSans-48"/>
      </g>
     </g>
    </g>
    <g id="xtick_4">
     <g id="line2d_4">
      <path clip-path="url(#pfe3068abbc)" d="M 654.867563 727.92 
L 654.867563 7.2 
" style="fill:none;stroke:#ffffff;stroke-linecap:round;"/>
     </g>
     <g id="text_4">
      <!-- 60 -->
      <defs>
       <path d="M 33.015625 40.375 
Q 26.375 40.375 22.484375 35.828125 
Q 18.609375 31.296875 18.609375 23.390625 
Q 18.609375 15.53125 22.484375 10.953125 
Q 26.375 6.390625 33.015625 6.390625 
Q 39.65625 6.390625 43.53125 10.953125 
Q 47.40625 15.53125 47.40625 23.390625 
Q 47.40625 31.296875 43.53125 35.828125 
Q 39.65625 40.375 33.015625 40.375 
z
M 52.59375 71.296875 
L 52.59375 62.3125 
Q 48.875 64.0625 45.09375 64.984375 
Q 41.3125 65.921875 37.59375 65.921875 
Q 27.828125 65.921875 22.671875 59.328125 
Q 17.53125 52.734375 16.796875 39.40625 
Q 19.671875 43.65625 24.015625 45.921875 
Q 28.375 48.1875 33.59375 48.1875 
Q 44.578125 48.1875 50.953125 41.515625 
Q 57.328125 34.859375 57.328125 23.390625 
Q 57.328125 12.15625 50.6875 5.359375 
Q 44.046875 -1.421875 33.015625 -1.421875 
Q 20.359375 -1.421875 13.671875 8.265625 
Q 6.984375 17.96875 6.984375 36.375 
Q 6.984375 53.65625 15.1875 63.9375 
Q 23.390625 74.21875 37.203125 74.21875 
Q 40.921875 74.21875 44.703125 73.484375 
Q 48.484375 72.75 52.59375 71.296875 
z
" id="DejaVuSans-54"/>
      </defs>
      <g style="fill:#262626;" transform="translate(647.868813 745.778281)scale(0.11 -0.11)">
       <use xlink:href="#DejaVuSans-54"/>
       <use x="63.623047" xlink:href="#DejaVuSans-48"/>
      </g>
     </g>
    </g>
    <g id="xtick_5">
     <g id="line2d_5">
      <path clip-path="url(#pfe3068abbc)" d="M 838.219151 727.92 
L 838.219151 7.2 
" style="fill:none;stroke:#ffffff;stroke-linecap:round;"/>
     </g>
     <g id="text_5">
      <!-- 80 -->
      <defs>
       <path d="M 31.78125 34.625 
Q 24.75 34.625 20.71875 30.859375 
Q 16.703125 27.09375 16.703125 20.515625 
Q 16.703125 13.921875 20.71875 10.15625 
Q 24.75 6.390625 31.78125 6.390625 
Q 38.8125 6.390625 42.859375 10.171875 
Q 46.921875 13.96875 46.921875 20.515625 
Q 46.921875 27.09375 42.890625 30.859375 
Q 38.875 34.625 31.78125 34.625 
z
M 21.921875 38.8125 
Q 15.578125 40.375 12.03125 44.71875 
Q 8.5 49.078125 8.5 55.328125 
Q 8.5 64.0625 14.71875 69.140625 
Q 20.953125 74.21875 31.78125 74.21875 
Q 42.671875 74.21875 48.875 69.140625 
Q 55.078125 64.0625 55.078125 55.328125 
Q 55.078125 49.078125 51.53125 44.71875 
Q 48 40.375 41.703125 38.8125 
Q 48.828125 37.15625 52.796875 32.3125 
Q 56.78125 27.484375 56.78125 20.515625 
Q 56.78125 9.90625 50.3125 4.234375 
Q 43.84375 -1.421875 31.78125 -1.421875 
Q 19.734375 -1.421875 13.25 4.234375 
Q 6.78125 9.90625 6.78125 20.515625 
Q 6.78125 27.484375 10.78125 32.3125 
Q 14.796875 37.15625 21.921875 38.8125 
z
M 18.3125 54.390625 
Q 18.3125 48.734375 21.84375 45.5625 
Q 25.390625 42.390625 31.78125 42.390625 
Q 38.140625 42.390625 41.71875 45.5625 
Q 45.3125 48.734375 45.3125 54.390625 
Q 45.3125 60.0625 41.71875 63.234375 
Q 38.140625 66.40625 31.78125 66.40625 
Q 25.390625 66.40625 21.84375 63.234375 
Q 18.3125 60.0625 18.3125 54.390625 
z
" id="DejaVuSans-56"/>
      </defs>
      <g style="fill:#262626;" transform="translate(831.220401 745.778281)scale(0.11 -0.11)">
       <use xlink:href="#DejaVuSans-56"/>
       <use x="63.623047" xlink:href="#DejaVuSans-48"/>
      </g>
     </g>
    </g>
    <g id="text_6">
     <!-- Sample Index -->
     <defs>
      <path d="M 53.515625 70.515625 
L 53.515625 60.890625 
Q 47.90625 63.578125 42.921875 64.890625 
Q 37.9375 66.21875 33.296875 66.21875 
Q 25.25 66.21875 20.875 63.09375 
Q 16.5 59.96875 16.5 54.203125 
Q 16.5 49.359375 19.40625 46.890625 
Q 22.3125 44.4375 30.421875 42.921875 
L 36.375 41.703125 
Q 47.40625 39.59375 52.65625 34.296875 
Q 57.90625 29 57.90625 20.125 
Q 57.90625 9.515625 50.796875 4.046875 
Q 43.703125 -1.421875 29.984375 -1.421875 
Q 24.8125 -1.421875 18.96875 -0.25 
Q 13.140625 0.921875 6.890625 3.21875 
L 6.890625 13.375 
Q 12.890625 10.015625 18.65625 8.296875 
Q 24.421875 6.59375 29.984375 6.59375 
Q 38.421875 6.59375 43.015625 9.90625 
Q 47.609375 13.234375 47.609375 19.390625 
Q 47.609375 24.75 44.3125 27.78125 
Q 41.015625 30.8125 33.5 32.328125 
L 27.484375 33.5 
Q 16.453125 35.6875 11.515625 40.375 
Q 6.59375 45.0625 6.59375 53.421875 
Q 6.59375 63.09375 13.40625 68.65625 
Q 20.21875 74.21875 32.171875 74.21875 
Q 37.3125 74.21875 42.625 73.28125 
Q 47.953125 72.359375 53.515625 70.515625 
z
" id="DejaVuSans-83"/>
      <path d="M 34.28125 27.484375 
Q 23.390625 27.484375 19.1875 25 
Q 14.984375 22.515625 14.984375 16.5 
Q 14.984375 11.71875 18.140625 8.90625 
Q 21.296875 6.109375 26.703125 6.109375 
Q 34.1875 6.109375 38.703125 11.40625 
Q 43.21875 16.703125 43.21875 25.484375 
L 43.21875 27.484375 
z
M 52.203125 31.203125 
L 52.203125 0 
L 43.21875 0 
L 43.21875 8.296875 
Q 40.140625 3.328125 35.546875 0.953125 
Q 30.953125 -1.421875 24.3125 -1.421875 
Q 15.921875 -1.421875 10.953125 3.296875 
Q 6 8.015625 6 15.921875 
Q 6 25.140625 12.171875 29.828125 
Q 18.359375 34.515625 30.609375 34.515625 
L 43.21875 34.515625 
L 43.21875 35.40625 
Q 43.21875 41.609375 39.140625 45 
Q 35.0625 48.390625 27.6875 48.390625 
Q 23 48.390625 18.546875 47.265625 
Q 14.109375 46.140625 10.015625 43.890625 
L 10.015625 52.203125 
Q 14.9375 54.109375 19.578125 55.046875 
Q 24.21875 56 28.609375 56 
Q 40.484375 56 46.34375 49.84375 
Q 52.203125 43.703125 52.203125 31.203125 
z
" id="DejaVuSans-97"/>
      <path d="M 52 44.1875 
Q 55.375 50.25 60.0625 53.125 
Q 64.75 56 71.09375 56 
Q 79.640625 56 84.28125 50.015625 
Q 88.921875 44.046875 88.921875 33.015625 
L 88.921875 0 
L 79.890625 0 
L 79.890625 32.71875 
Q 79.890625 40.578125 77.09375 44.375 
Q 74.3125 48.1875 68.609375 48.1875 
Q 61.625 48.1875 57.5625 43.546875 
Q 53.515625 38.921875 53.515625 30.90625 
L 53.515625 0 
L 44.484375 0 
L 44.484375 32.71875 
Q 44.484375 40.625 41.703125 44.40625 
Q 38.921875 48.1875 33.109375 48.1875 
Q 26.21875 48.1875 22.15625 43.53125 
Q 18.109375 38.875 18.109375 30.90625 
L 18.109375 0 
L 9.078125 0 
L 9.078125 54.6875 
L 18.109375 54.6875 
L 18.109375 46.1875 
Q 21.1875 51.21875 25.484375 53.609375 
Q 29.78125 56 35.6875 56 
Q 41.65625 56 45.828125 52.96875 
Q 50 49.953125 52 44.1875 
z
" id="DejaVuSans-109"/>
      <path d="M 18.109375 8.203125 
L 18.109375 -20.796875 
L 9.078125 -20.796875 
L 9.078125 54.6875 
L 18.109375 54.6875 
L 18.109375 46.390625 
Q 20.953125 51.265625 25.265625 53.625 
Q 29.59375 56 35.59375 56 
Q 45.5625 56 51.78125 48.09375 
Q 58.015625 40.1875 58.015625 27.296875 
Q 58.015625 14.40625 51.78125 6.484375 
Q 45.5625 -1.421875 35.59375 -1.421875 
Q 29.59375 -1.421875 25.265625 0.953125 
Q 20.953125 3.328125 18.109375 8.203125 
z
M 48.6875 27.296875 
Q 48.6875 37.203125 44.609375 42.84375 
Q 40.53125 48.484375 33.40625 48.484375 
Q 26.265625 48.484375 22.1875 42.84375 
Q 18.109375 37.203125 18.109375 27.296875 
Q 18.109375 17.390625 22.1875 11.75 
Q 26.265625 6.109375 33.40625 6.109375 
Q 40.53125 6.109375 44.609375 11.75 
Q 48.6875 17.390625 48.6875 27.296875 
z
" id="DejaVuSans-112"/>
      <path d="M 9.421875 75.984375 
L 18.40625 75.984375 
L 18.40625 0 
L 9.421875 0 
z
" id="DejaVuSans-108"/>
      <path d="M 56.203125 29.59375 
L 56.203125 25.203125 
L 14.890625 25.203125 
Q 15.484375 15.921875 20.484375 11.0625 
Q 25.484375 6.203125 34.421875 6.203125 
Q 39.59375 6.203125 44.453125 7.46875 
Q 49.3125 8.734375 54.109375 11.28125 
L 54.109375 2.78125 
Q 49.265625 0.734375 44.1875 -0.34375 
Q 39.109375 -1.421875 33.890625 -1.421875 
Q 20.796875 -1.421875 13.15625 6.1875 
Q 5.515625 13.8125 5.515625 26.8125 
Q 5.515625 40.234375 12.765625 48.109375 
Q 20.015625 56 32.328125 56 
Q 43.359375 56 49.78125 48.890625 
Q 56.203125 41.796875 56.203125 29.59375 
z
M 47.21875 32.234375 
Q 47.125 39.59375 43.09375 43.984375 
Q 39.0625 48.390625 32.421875 48.390625 
Q 24.90625 48.390625 20.390625 44.140625 
Q 15.875 39.890625 15.1875 32.171875 
z
" id="DejaVuSans-101"/>
      <path id="DejaVuSans-32"/>
      <path d="M 9.8125 72.90625 
L 19.671875 72.90625 
L 19.671875 0 
L 9.8125 0 
z
" id="DejaVuSans-73"/>
      <path d="M 54.890625 33.015625 
L 54.890625 0 
L 45.90625 0 
L 45.90625 32.71875 
Q 45.90625 40.484375 42.875 44.328125 
Q 39.84375 48.1875 33.796875 48.1875 
Q 26.515625 48.1875 22.3125 43.546875 
Q 18.109375 38.921875 18.109375 30.90625 
L 18.109375 0 
L 9.078125 0 
L 9.078125 54.6875 
L 18.109375 54.6875 
L 18.109375 46.1875 
Q 21.34375 51.125 25.703125 53.5625 
Q 30.078125 56 35.796875 56 
Q 45.21875 56 50.046875 50.171875 
Q 54.890625 44.34375 54.890625 33.015625 
z
" id="DejaVuSans-110"/>
      <path d="M 45.40625 46.390625 
L 45.40625 75.984375 
L 54.390625 75.984375 
L 54.390625 0 
L 45.40625 0 
L 45.40625 8.203125 
Q 42.578125 3.328125 38.25 0.953125 
Q 33.9375 -1.421875 27.875 -1.421875 
Q 17.96875 -1.421875 11.734375 6.484375 
Q 5.515625 14.40625 5.515625 27.296875 
Q 5.515625 40.1875 11.734375 48.09375 
Q 17.96875 56 27.875 56 
Q 33.9375 56 38.25 53.625 
Q 42.578125 51.265625 45.40625 46.390625 
z
M 14.796875 27.296875 
Q 14.796875 17.390625 18.875 11.75 
Q 22.953125 6.109375 30.078125 6.109375 
Q 37.203125 6.109375 41.296875 11.75 
Q 45.40625 17.390625 45.40625 27.296875 
Q 45.40625 37.203125 41.296875 42.84375 
Q 37.203125 48.484375 30.078125 48.484375 
Q 22.953125 48.484375 18.875 42.84375 
Q 14.796875 37.203125 14.796875 27.296875 
z
" id="DejaVuSans-100"/>
      <path d="M 54.890625 54.6875 
L 35.109375 28.078125 
L 55.90625 0 
L 45.3125 0 
L 29.390625 21.484375 
L 13.484375 0 
L 2.875 0 
L 24.125 28.609375 
L 4.6875 54.6875 
L 15.28125 54.6875 
L 29.78125 35.203125 
L 44.28125 54.6875 
z
" id="DejaVuSans-120"/>
     </defs>
     <g style="fill:#262626;" transform="translate(382.955625 774.86125)scale(0.3 -0.3)">
      <use xlink:href="#DejaVuSans-83"/>
      <use x="63.476562" xlink:href="#DejaVuSans-97"/>
      <use x="124.755859" xlink:href="#DejaVuSans-109"/>
      <use x="222.167969" xlink:href="#DejaVuSans-112"/>
      <use x="285.644531" xlink:href="#DejaVuSans-108"/>
      <use x="313.427734" xlink:href="#DejaVuSans-101"/>
      <use x="374.951172" xlink:href="#DejaVuSans-32"/>
      <use x="406.738281" xlink:href="#DejaVuSans-73"/>
      <use x="436.230469" xlink:href="#DejaVuSans-110"/>
      <use x="499.609375" xlink:href="#DejaVuSans-100"/>
      <use x="563.085938" xlink:href="#DejaVuSans-101"/>
      <use x="622.859375" xlink:href="#DejaVuSans-120"/>
     </g>
    </g>
   </g>
   <g id="matplotlib.axis_2">
    <g id="ytick_1">
     <g id="line2d_6">
      <path clip-path="url(#pfe3068abbc)" d="M 66.767344 632.132941 
L 903.767344 632.132941 
" style="fill:none;stroke:#ffffff;stroke-linecap:round;"/>
     </g>
     <g id="text_7">
      <!-- −1.5 -->
      <defs>
       <path d="M 10.59375 35.5 
L 73.1875 35.5 
L 73.1875 27.203125 
L 10.59375 27.203125 
z
" id="DejaVuSans-8722"/>
       <path d="M 12.40625 8.296875 
L 28.515625 8.296875 
L 28.515625 63.921875 
L 10.984375 60.40625 
L 10.984375 69.390625 
L 28.421875 72.90625 
L 38.28125 72.90625 
L 38.28125 8.296875 
L 54.390625 8.296875 
L 54.390625 0 
L 12.40625 0 
z
" id="DejaVuSans-49"/>
       <path d="M 10.6875 12.40625 
L 21 12.40625 
L 21 0 
L 10.6875 0 
z
" id="DejaVuSans-46"/>
       <path d="M 10.796875 72.90625 
L 49.515625 72.90625 
L 49.515625 64.59375 
L 19.828125 64.59375 
L 19.828125 46.734375 
Q 21.96875 47.46875 24.109375 47.828125 
Q 26.265625 48.1875 28.421875 48.1875 
Q 40.625 48.1875 47.75 41.5 
Q 54.890625 34.8125 54.890625 23.390625 
Q 54.890625 11.625 47.5625 5.09375 
Q 40.234375 -1.421875 26.90625 -1.421875 
Q 22.3125 -1.421875 17.546875 -0.640625 
Q 12.796875 0.140625 7.71875 1.703125 
L 7.71875 11.625 
Q 12.109375 9.234375 16.796875 8.0625 
Q 21.484375 6.890625 26.703125 6.890625 
Q 35.15625 6.890625 40.078125 11.328125 
Q 45.015625 15.765625 45.015625 23.390625 
Q 45.015625 31 40.078125 35.4375 
Q 35.15625 39.890625 26.703125 39.890625 
Q 22.75 39.890625 18.8125 39.015625 
Q 14.890625 38.140625 10.796875 36.28125 
z
" id="DejaVuSans-53"/>
      </defs>
      <g style="fill:#262626;" transform="translate(30.55625 636.312082)scale(0.11 -0.11)">
       <use xlink:href="#DejaVuSans-8722"/>
       <use x="83.789062" xlink:href="#DejaVuSans-49"/>
       <use x="147.412109" xlink:href="#DejaVuSans-46"/>
       <use x="179.199219" xlink:href="#DejaVuSans-53"/>
      </g>
     </g>
    </g>
    <g id="ytick_2">
     <g id="line2d_7">
      <path clip-path="url(#pfe3068abbc)" d="M 66.767344 522.036413 
L 903.767344 522.036413 
" style="fill:none;stroke:#ffffff;stroke-linecap:round;"/>
     </g>
     <g id="text_8">
      <!-- −1.0 -->
      <g style="fill:#262626;" transform="translate(30.55625 526.215554)scale(0.11 -0.11)">
       <use xlink:href="#DejaVuSans-8722"/>
       <use x="83.789062" xlink:href="#DejaVuSans-49"/>
       <use x="147.412109" xlink:href="#DejaVuSans-46"/>
       <use x="179.199219" xlink:href="#DejaVuSans-48"/>
      </g>
     </g>
    </g>
    <g id="ytick_3">
     <g id="line2d_8">
      <path clip-path="url(#pfe3068abbc)" d="M 66.767344 411.939886 
L 903.767344 411.939886 
" style="fill:none;stroke:#ffffff;stroke-linecap:round;"/>
     </g>
     <g id="text_9">
      <!-- −0.5 -->
      <g style="fill:#262626;" transform="translate(30.55625 416.119026)scale(0.11 -0.11)">
       <use xlink:href="#DejaVuSans-8722"/>
       <use x="83.789062" xlink:href="#DejaVuSans-48"/>
       <use x="147.412109" xlink:href="#DejaVuSans-46"/>
       <use x="179.199219" xlink:href="#DejaVuSans-53"/>
      </g>
     </g>
    </g>
    <g id="ytick_4">
     <g id="line2d_9">
      <path clip-path="url(#pfe3068abbc)" d="M 66.767344 301.843358 
L 903.767344 301.843358 
" style="fill:none;stroke:#ffffff;stroke-linecap:round;"/>
     </g>
     <g id="text_10">
      <!-- 0.0 -->
      <g style="fill:#262626;" transform="translate(39.773906 306.022498)scale(0.11 -0.11)">
       <use xlink:href="#DejaVuSans-48"/>
       <use x="63.623047" xlink:href="#DejaVuSans-46"/>
       <use x="95.410156" xlink:href="#DejaVuSans-48"/>
      </g>
     </g>
    </g>
    <g id="ytick_5">
     <g id="line2d_10">
      <path clip-path="url(#pfe3068abbc)" d="M 66.767344 191.74683 
L 903.767344 191.74683 
" style="fill:none;stroke:#ffffff;stroke-linecap:round;"/>
     </g>
     <g id="text_11">
      <!-- 0.5 -->
      <g style="fill:#262626;" transform="translate(39.773906 195.925971)scale(0.11 -0.11)">
       <use xlink:href="#DejaVuSans-48"/>
       <use x="63.623047" xlink:href="#DejaVuSans-46"/>
       <use x="95.410156" xlink:href="#DejaVuSans-53"/>
      </g>
     </g>
    </g>
    <g id="ytick_6">
     <g id="line2d_11">
      <path clip-path="url(#pfe3068abbc)" d="M 66.767344 81.650302 
L 903.767344 81.650302 
" style="fill:none;stroke:#ffffff;stroke-linecap:round;"/>
     </g>
     <g id="text_12">
      <!-- 1.0 -->
      <g style="fill:#262626;" transform="translate(39.773906 85.829443)scale(0.11 -0.11)">
       <use xlink:href="#DejaVuSans-49"/>
       <use x="63.623047" xlink:href="#DejaVuSans-46"/>
       <use x="95.410156" xlink:href="#DejaVuSans-48"/>
      </g>
     </g>
    </g>
    <g id="text_13">
     <!-- Sensor Reading -->
     <defs>
      <path d="M 44.28125 53.078125 
L 44.28125 44.578125 
Q 40.484375 46.53125 36.375 47.5 
Q 32.28125 48.484375 27.875 48.484375 
Q 21.1875 48.484375 17.84375 46.4375 
Q 14.5 44.390625 14.5 40.28125 
Q 14.5 37.15625 16.890625 35.375 
Q 19.28125 33.59375 26.515625 31.984375 
L 29.59375 31.296875 
Q 39.15625 29.25 43.1875 25.515625 
Q 47.21875 21.78125 47.21875 15.09375 
Q 47.21875 7.46875 41.1875 3.015625 
Q 35.15625 -1.421875 24.609375 -1.421875 
Q 20.21875 -1.421875 15.453125 -0.5625 
Q 10.6875 0.296875 5.421875 2 
L 5.421875 11.28125 
Q 10.40625 8.6875 15.234375 7.390625 
Q 20.0625 6.109375 24.8125 6.109375 
Q 31.15625 6.109375 34.5625 8.28125 
Q 37.984375 10.453125 37.984375 14.40625 
Q 37.984375 18.0625 35.515625 20.015625 
Q 33.0625 21.96875 24.703125 23.78125 
L 21.578125 24.515625 
Q 13.234375 26.265625 9.515625 29.90625 
Q 5.8125 33.546875 5.8125 39.890625 
Q 5.8125 47.609375 11.28125 51.796875 
Q 16.75 56 26.8125 56 
Q 31.78125 56 36.171875 55.265625 
Q 40.578125 54.546875 44.28125 53.078125 
z
" id="DejaVuSans-115"/>
      <path d="M 30.609375 48.390625 
Q 23.390625 48.390625 19.1875 42.75 
Q 14.984375 37.109375 14.984375 27.296875 
Q 14.984375 17.484375 19.15625 11.84375 
Q 23.34375 6.203125 30.609375 6.203125 
Q 37.796875 6.203125 41.984375 11.859375 
Q 46.1875 17.53125 46.1875 27.296875 
Q 46.1875 37.015625 41.984375 42.703125 
Q 37.796875 48.390625 30.609375 48.390625 
z
M 30.609375 56 
Q 42.328125 56 49.015625 48.375 
Q 55.71875 40.765625 55.71875 27.296875 
Q 55.71875 13.875 49.015625 6.21875 
Q 42.328125 -1.421875 30.609375 -1.421875 
Q 18.84375 -1.421875 12.171875 6.21875 
Q 5.515625 13.875 5.515625 27.296875 
Q 5.515625 40.765625 12.171875 48.375 
Q 18.84375 56 30.609375 56 
z
" id="DejaVuSans-111"/>
      <path d="M 41.109375 46.296875 
Q 39.59375 47.171875 37.8125 47.578125 
Q 36.03125 48 33.890625 48 
Q 26.265625 48 22.1875 43.046875 
Q 18.109375 38.09375 18.109375 28.8125 
L 18.109375 0 
L 9.078125 0 
L 9.078125 54.6875 
L 18.109375 54.6875 
L 18.109375 46.1875 
Q 20.953125 51.171875 25.484375 53.578125 
Q 30.03125 56 36.53125 56 
Q 37.453125 56 38.578125 55.875 
Q 39.703125 55.765625 41.0625 55.515625 
z
" id="DejaVuSans-114"/>
      <path d="M 44.390625 34.1875 
Q 47.5625 33.109375 50.5625 29.59375 
Q 53.5625 26.078125 56.59375 19.921875 
L 66.609375 0 
L 56 0 
L 46.6875 18.703125 
Q 43.0625 26.03125 39.671875 28.421875 
Q 36.28125 30.8125 30.421875 30.8125 
L 19.671875 30.8125 
L 19.671875 0 
L 9.8125 0 
L 9.8125 72.90625 
L 32.078125 72.90625 
Q 44.578125 72.90625 50.734375 67.671875 
Q 56.890625 62.453125 56.890625 51.90625 
Q 56.890625 45.015625 53.6875 40.46875 
Q 50.484375 35.9375 44.390625 34.1875 
z
M 19.671875 64.796875 
L 19.671875 38.921875 
L 32.078125 38.921875 
Q 39.203125 38.921875 42.84375 42.21875 
Q 46.484375 45.515625 46.484375 51.90625 
Q 46.484375 58.296875 42.84375 61.546875 
Q 39.203125 64.796875 32.078125 64.796875 
z
" id="DejaVuSans-82"/>
      <path d="M 9.421875 54.6875 
L 18.40625 54.6875 
L 18.40625 0 
L 9.421875 0 
z
M 9.421875 75.984375 
L 18.40625 75.984375 
L 18.40625 64.59375 
L 9.421875 64.59375 
z
" id="DejaVuSans-105"/>
      <path d="M 45.40625 27.984375 
Q 45.40625 37.75 41.375 43.109375 
Q 37.359375 48.484375 30.078125 48.484375 
Q 22.859375 48.484375 18.828125 43.109375 
Q 14.796875 37.75 14.796875 27.984375 
Q 14.796875 18.265625 18.828125 12.890625 
Q 22.859375 7.515625 30.078125 7.515625 
Q 37.359375 7.515625 41.375 12.890625 
Q 45.40625 18.265625 45.40625 27.984375 
z
M 54.390625 6.78125 
Q 54.390625 -7.171875 48.1875 -13.984375 
Q 42 -20.796875 29.203125 -20.796875 
Q 24.46875 -20.796875 20.265625 -20.09375 
Q 16.0625 -19.390625 12.109375 -17.921875 
L 12.109375 -9.1875 
Q 16.0625 -11.328125 19.921875 -12.34375 
Q 23.78125 -13.375 27.78125 -13.375 
Q 36.625 -13.375 41.015625 -8.765625 
Q 45.40625 -4.15625 45.40625 5.171875 
L 45.40625 9.625 
Q 42.625 4.78125 38.28125 2.390625 
Q 33.9375 0 27.875 0 
Q 17.828125 0 11.671875 7.65625 
Q 5.515625 15.328125 5.515625 27.984375 
Q 5.515625 40.671875 11.671875 48.328125 
Q 17.828125 56 27.875 56 
Q 33.9375 56 38.28125 53.609375 
Q 42.625 51.21875 45.40625 46.390625 
L 45.40625 54.6875 
L 54.390625 54.6875 
z
" id="DejaVuSans-103"/>
     </defs>
     <g style="fill:#262626;" transform="translate(22.396875 445.608437)rotate(-90)scale(0.2 -0.2)">
      <use xlink:href="#DejaVuSans-83"/>
      <use x="63.476562" xlink:href="#DejaVuSans-101"/>
      <use x="125" xlink:href="#DejaVuSans-110"/>
      <use x="188.378906" xlink:href="#DejaVuSans-115"/>
      <use x="240.478516" xlink:href="#DejaVuSans-111"/>
      <use x="301.660156" xlink:href="#DejaVuSans-114"/>
      <use x="342.773438" xlink:href="#DejaVuSans-32"/>
      <use x="374.560547" xlink:href="#DejaVuSans-82"/>
      <use x="439.542969" xlink:href="#DejaVuSans-101"/>
      <use x="501.066406" xlink:href="#DejaVuSans-97"/>
      <use x="562.345703" xlink:href="#DejaVuSans-100"/>
      <use x="625.822266" xlink:href="#DejaVuSans-105"/>
      <use x="653.605469" xlink:href="#DejaVuSans-110"/>
      <use x="716.984375" xlink:href="#DejaVuSans-103"/>
     </g>
    </g>
   </g>
   <g id="line2d_12">
    <path clip-path="url(#pfe3068abbc)" d="M 104.812798 324.934765 
L 113.980378 329.926322 
L 123.147957 343.7482 
L 132.315537 345.15177 
L 141.483116 350.763297 
L 150.650695 356.702238 
L 159.818275 355.280064 
L 168.985854 353.246067 
L 178.153434 346.827982 
L 187.321013 341.485328 
L 196.488592 341.585396 
L 205.656172 340.694644 
L 214.823751 337.34723 
L 223.991331 333.984338 
L 233.15891 328.581035 
L 242.326489 317.190324 
L 251.494069 311.599035 
L 260.661648 308.080247 
L 269.829228 304.024622 
L 278.996807 308.56993 
L 288.164386 312.687455 
L 297.331966 309.586277 
L 306.499545 310.763132 
L 315.667125 306.853384 
L 324.834704 303.280018 
L 334.002284 306.541152 
L 343.169863 303.651062 
L 352.337442 301.111311 
L 361.505022 294.768489 
L 370.672601 281.056711 
L 379.840181 274.218515 
L 389.00776 279.050277 
L 398.175339 286.165265 
L 407.342919 289.085797 
L 416.510498 292.902712 
L 425.678078 294.352694 
L 434.845657 297.461179 
L 444.013236 299.165842 
L 453.180816 291.628065 
L 462.348395 288.577612 
L 471.515975 289.755224 
L 480.683554 294.062569 
L 489.851133 296.607885 
L 499.018713 291.91331 
L 508.186292 287.812324 
L 517.353872 290.932861 
L 526.521451 296.138342 
L 535.68903 298.272426 
L 544.85661 303.958628 
L 554.024189 305.929719 
L 563.191769 314.520891 
L 572.359348 322.694796 
L 581.526928 330.645031 
L 590.694507 330.409413 
L 599.862086 324.046891 
L 609.029666 320.633359 
L 618.197245 315.811558 
L 627.364825 312.083922 
L 636.532404 312.886507 
L 645.699983 311.020481 
L 654.867563 309.371023 
L 664.035142 306.78912 
L 673.202722 305.039089 
L 682.370301 307.248013 
L 691.53788 308.027111 
L 700.70546 309.881679 
L 709.873039 308.486876 
L 719.040619 301.053937 
L 728.208198 301.014439 
L 737.375777 297.951134 
L 746.543357 295.69785 
L 755.710936 294.264484 
L 764.878516 297.640237 
L 774.046095 296.591515 
L 783.213675 298.472247 
L 792.381254 304.233932 
L 801.548833 306.240029 
L 810.716413 307.94752 
L 819.883992 304.319884 
L 829.051572 301.760526 
L 838.219151 301.292541 
L 847.38673 293.334024 
L 856.55431 292.551506 
L 865.721889 299.780375 
" style="fill:none;stroke:#fb694a;stroke-linecap:round;stroke-width:1.5;"/>
   </g>
   <g id="line2d_13"/>
   <g id="line2d_14"/>
   <g id="line2d_15">
    <path clip-path="url(#pfe3068abbc)" d="M 104.812798 289.845189 
L 113.980378 287.518748 
L 123.147957 291.614943 
L 132.315537 300.612654 
L 141.483116 300.143459 
L 150.650695 296.686215 
L 159.818275 297.634709 
L 168.985854 298.511299 
L 178.153434 297.951692 
L 187.321013 298.77102 
L 196.488592 302.381851 
L 205.656172 305.622113 
L 214.823751 314.510457 
L 223.991331 322.134086 
L 233.15891 323.958248 
L 242.326489 321.850039 
L 251.494069 322.30436 
L 260.661648 322.979145 
L 269.829228 326.920146 
L 278.996807 333.906503 
L 288.164386 324.408754 
L 297.331966 298.095773 
L 306.499545 283.711677 
L 315.667125 271.783416 
L 324.834704 269.055109 
L 334.002284 265.204175 
L 343.169863 259.959298 
L 352.337442 256.172918 
L 361.505022 254.560727 
L 370.672601 259.693179 
L 379.840181 271.037884 
L 389.00776 284.18582 
L 398.175339 291.615412 
L 407.342919 295.32636 
L 416.510498 297.525132 
L 425.678078 299.727087 
L 434.845657 303.123104 
L 444.013236 306.948432 
L 453.180816 306.337958 
L 462.348395 310.569581 
L 471.515975 313.629329 
L 480.683554 311.827646 
L 489.851133 310.909487 
L 499.018713 310.138631 
L 508.186292 309.389503 
L 517.353872 304.594312 
L 526.521451 297.27778 
L 535.68903 292.207696 
L 544.85661 283.960715 
L 554.024189 276.758551 
L 563.191769 268.142941 
L 572.359348 265.03122 
L 581.526928 265.458476 
L 590.694507 265.171022 
L 599.862086 264.457678 
L 609.029666 267.004401 
L 618.197245 268.480464 
L 627.364825 273.261323 
L 636.532404 276.36765 
L 645.699983 278.477995 
L 654.867563 284.864004 
L 664.035142 287.373958 
L 673.202722 287.531597 
L 682.370301 286.349733 
L 691.53788 290.848231 
L 700.70546 293.331228 
L 709.873039 290.828518 
L 719.040619 296.321691 
L 728.208198 300.874492 
L 737.375777 299.490248 
L 746.543357 300.46645 
L 755.710936 303.453738 
L 764.878516 302.511514 
L 774.046095 304.502643 
L 783.213675 308.440258 
L 792.381254 306.046967 
L 801.548833 305.022539 
L 810.716413 309.192772 
L 819.883992 312.826974 
L 829.051572 314.26707 
L 838.219151 308.324559 
L 847.38673 299.861633 
L 856.55431 305.8886 
L 865.721889 302.471577 
" style="fill:none;stroke:#6aaed6;stroke-linecap:round;stroke-width:1.5;"/>
   </g>
   <g id="line2d_16"/>
   <g id="line2d_17"/>
   <g id="line2d_18">
    <path clip-path="url(#pfe3068abbc)" d="M 104.812798 295.307316 
L 113.980378 305.173746 
L 123.147957 305.823726 
L 132.315537 305.480283 
L 141.483116 312.900905 
L 150.650695 320.230613 
L 159.818275 309.869362 
L 168.985854 305.792712 
L 178.153434 313.954594 
L 187.321013 321.576402 
L 196.488592 323.329248 
L 205.656172 322.48836 
L 214.823751 320.846993 
L 223.991331 314.591725 
L 233.15891 322.567369 
L 242.326489 326.820806 
L 251.494069 325.49053 
L 260.661648 317.699705 
L 269.829228 313.142055 
L 278.996807 309.091825 
L 288.164386 322.964386 
L 297.331966 343.412468 
L 306.499545 360.316494 
L 315.667125 340.121414 
L 324.834704 285.137919 
L 334.002284 268.112387 
L 343.169863 275.136923 
L 352.337442 280.618619 
L 361.505022 297.158544 
L 370.672601 306.185503 
L 379.840181 310.810049 
L 389.00776 320.196568 
L 398.175339 320.583387 
L 407.342919 319.820878 
L 416.510498 321.030343 
L 425.678078 312.052233 
L 434.845657 301.257387 
L 444.013236 293.96137 
L 453.180816 294.652822 
L 462.348395 297.199873 
L 471.515975 300.856262 
L 480.683554 309.890518 
L 489.851133 298.27472 
L 499.018713 286.101601 
L 508.186292 284.635552 
L 517.353872 293.153607 
L 526.521451 305.795508 
L 535.68903 310.27067 
L 544.85661 319.084579 
L 554.024189 334.514641 
L 563.191769 340.246057 
L 572.359348 334.43575 
L 581.526928 314.527349 
L 590.694507 294.926928 
L 599.862086 289.360868 
L 609.029666 294.275492 
L 618.197245 297.073917 
L 627.364825 297.166248 
L 636.532404 301.899439 
L 645.699983 303.506419 
L 654.867563 296.461277 
L 664.035142 295.135542 
L 673.202722 310.654156 
L 682.370301 308.669268 
L 691.53788 289.971158 
L 700.70546 277.888323 
L 709.873039 294.977234 
L 719.040619 290.801705 
L 728.208198 291.448193 
L 737.375777 309.861447 
L 746.543357 316.620619 
L 755.710936 309.914484 
L 764.878516 312.132883 
L 774.046095 323.961378 
L 783.213675 327.159944 
L 792.381254 330.076083 
L 801.548833 331.311718 
L 810.716413 314.929419 
L 819.883992 309.173066 
L 829.051572 309.091261 
L 838.219151 320.635006 
L 847.38673 321.610368 
L 856.55431 306.167313 
L 865.721889 304.950866 
" style="fill:none;stroke:#959595;stroke-linecap:round;stroke-width:1.5;"/>
   </g>
   <g id="line2d_19"/>
   <g id="line2d_20"/>
   <g id="line2d_21">
    <path clip-path="url(#pfe3068abbc)" d="M 104.812798 368.927274 
L 113.980378 355.596369 
L 123.147957 341.039455 
L 132.315537 341.876609 
L 141.483116 334.357495 
L 150.650695 291.906718 
L 159.818275 280.039371 
L 168.985854 288.056529 
L 178.153434 285.403143 
L 187.321013 275.483495 
L 196.488592 268.553072 
L 205.656172 264.841807 
L 214.823751 254.561632 
L 223.991331 277.765921 
L 233.15891 280.630182 
L 242.326489 260.312611 
L 251.494069 235.703056 
L 260.661648 218.180786 
L 269.829228 205.431592 
L 278.996807 233.109308 
L 288.164386 254.064826 
L 297.331966 248.120163 
L 306.499545 167.657256 
L 315.667125 39.96 
L 324.834704 55.272624 
L 334.002284 129.946429 
L 343.169863 178.804089 
L 352.337442 242.974242 
L 361.505022 272.967744 
L 370.672601 281.701137 
L 379.840181 291.543146 
L 389.00776 269.527513 
L 398.175339 249.285122 
L 407.342919 237.355847 
L 416.510498 211.945605 
L 425.678078 200.297283 
L 434.845657 199.142115 
L 444.013236 209.453132 
L 453.180816 219.954494 
L 462.348395 222.913229 
L 471.515975 236.322363 
L 480.683554 200.084128 
L 489.851133 177.813515 
L 499.018713 178.096283 
L 508.186292 198.370694 
L 517.353872 224.735438 
L 526.521451 224.068102 
L 535.68903 240.896412 
L 544.85661 265.091911 
L 554.024189 248.383109 
L 563.191769 226.800301 
L 572.359348 198.957866 
L 581.526928 194.753955 
L 590.694507 225.732036 
L 599.862086 260.878498 
L 609.029666 281.88498 
L 618.197245 292.118589 
L 627.364825 306.12029 
L 636.532404 309.280216 
L 645.699983 296.12453 
L 654.867563 305.896693 
L 664.035142 331.173819 
L 673.202722 306.969353 
L 682.370301 273.150349 
L 691.53788 271.619586 
L 700.70546 323.165751 
L 709.873039 304.89229 
L 719.040619 306.446686 
L 728.208198 350.477363 
L 737.375777 338.424068 
L 746.543357 316.203251 
L 755.710936 328.448655 
L 764.878516 335.495185 
L 774.046095 318.988932 
L 783.213675 323.593476 
L 792.381254 324.311713 
L 801.548833 295.80769 
L 810.716413 299.250208 
L 819.883992 305.940259 
L 829.051572 313.231968 
L 838.219151 292.044642 
L 847.38673 259.413121 
L 856.55431 276.393605 
L 865.721889 269.981743 
" style="fill:none;stroke:#fd8c3b;stroke-linecap:round;stroke-width:1.5;"/>
   </g>
   <g id="line2d_22"/>
   <g id="line2d_23"/>
   <g id="line2d_24">
    <path clip-path="url(#pfe3068abbc)" d="M 104.812798 332.647877 
L 113.980378 325.068349 
L 123.147957 322.816066 
L 132.315537 327.038711 
L 141.483116 322.555372 
L 150.650695 316.750626 
L 159.818275 321.705784 
L 168.985854 338.22783 
L 178.153434 350.862551 
L 187.321013 362.015517 
L 196.488592 376.73358 
L 205.656172 379.4896 
L 214.823751 383.793034 
L 223.991331 378.920317 
L 233.15891 375.69852 
L 242.326489 384.536414 
L 251.494069 381.765222 
L 260.661648 376.460045 
L 269.829228 363.399984 
L 278.996807 360.848241 
L 288.164386 352.600377 
L 297.331966 356.27681 
L 306.499545 363.394806 
L 315.667125 363.736753 
L 324.834704 380.493843 
L 334.002284 366.637372 
L 343.169863 348.181738 
L 352.337442 349.133394 
L 361.505022 347.569709 
L 370.672601 352.377768 
L 379.840181 352.884756 
L 389.00776 359.255546 
L 398.175339 363.426784 
L 407.342919 351.076566 
L 416.510498 338.892781 
L 425.678078 329.259368 
L 434.845657 331.989016 
L 444.013236 350.604106 
L 453.180816 354.121578 
L 462.348395 369.18317 
L 471.515975 381.604361 
L 480.683554 368.726416 
L 489.851133 374.210848 
L 499.018713 392.596456 
L 508.186292 393.942554 
L 517.353872 369.732641 
L 526.521451 361.625173 
L 535.68903 352.766504 
L 544.85661 326.656607 
L 554.024189 325.756187 
L 563.191769 327.809802 
L 572.359348 341.240516 
L 581.526928 365.788458 
L 590.694507 391.189736 
L 599.862086 395.514059 
L 609.029666 394.599791 
L 618.197245 394.030035 
L 627.364825 386.182729 
L 636.532404 376.578238 
L 645.699983 373.121007 
L 654.867563 360.713235 
L 664.035142 357.768091 
L 673.202722 343.010716 
L 682.370301 338.448699 
L 691.53788 338.277342 
L 700.70546 325.667734 
L 709.873039 310.786986 
L 719.040619 333.40656 
L 728.208198 311.409664 
L 737.375777 325.535078 
L 746.543357 332.635507 
L 755.710936 318.29963 
L 764.878516 317.881243 
L 774.046095 325.952514 
L 783.213675 316.226194 
L 792.381254 316.366131 
L 801.548833 315.94719 
L 810.716413 312.703502 
L 819.883992 309.330237 
L 829.051572 325.529994 
L 838.219151 298.746615 
L 847.38673 303.94312 
L 856.55431 320.354853 
L 865.721889 304.051026 
" style="fill:none;stroke:#9e9ac8;stroke-linecap:round;stroke-width:1.5;"/>
   </g>
   <g id="line2d_25"/>
   <g id="line2d_26"/>
   <g id="line2d_27">
    <path clip-path="url(#pfe3068abbc)" d="M 104.812798 309.08944 
L 113.980378 287.248499 
L 123.147957 307.063514 
L 132.315537 338.014438 
L 141.483116 378.590891 
L 150.650695 428.927711 
L 159.818275 476.500559 
L 168.985854 522.36408 
L 178.153434 544.584407 
L 187.321013 549.955147 
L 196.488592 558.18407 
L 205.656172 566.775202 
L 214.823751 578.815855 
L 223.991331 593.486821 
L 233.15891 601.807799 
L 242.326489 577.15408 
L 251.494069 548.503286 
L 260.661648 530.921273 
L 269.829228 513.608327 
L 278.996807 524.204822 
L 288.164386 550.551605 
L 297.331966 534.798522 
L 306.499545 519.838488 
L 315.667125 524.983841 
L 324.834704 557.004857 
L 334.002284 611.926679 
L 343.169863 655.206808 
L 352.337442 686.518259 
L 361.505022 695.16 
L 370.672601 655.61065 
L 379.840181 594.463575 
L 389.00776 554.967458 
L 398.175339 544.05764 
L 407.342919 538.201397 
L 416.510498 539.942182 
L 425.678078 539.738069 
L 434.845657 544.122896 
L 444.013236 556.682151 
L 453.180816 540.403719 
L 462.348395 520.313032 
L 471.515975 501.087828 
L 480.683554 488.326284 
L 489.851133 494.443286 
L 499.018713 500.217094 
L 508.186292 503.082205 
L 517.353872 509.693844 
L 526.521451 523.950573 
L 535.68903 537.674683 
L 544.85661 539.439486 
L 554.024189 521.289168 
L 563.191769 494.491637 
L 572.359348 469.23226 
L 581.526928 464.235516 
L 590.694507 468.23641 
L 599.862086 462.371111 
L 609.029666 459.144354 
L 618.197245 444.783363 
L 627.364825 426.11166 
L 636.532404 413.723798 
L 645.699983 397.389534 
L 654.867563 391.585454 
L 664.035142 382.840896 
L 673.202722 368.134723 
L 682.370301 351.474479 
L 691.53788 345.997298 
L 700.70546 351.917202 
L 709.873039 344.981013 
L 719.040619 330.370358 
L 728.208198 330.477251 
L 737.375777 323.788441 
L 746.543357 315.723746 
L 755.710936 308.471054 
L 764.878516 309.756605 
L 774.046095 308.941492 
L 783.213675 307.210892 
L 792.381254 309.026226 
L 801.548833 306.251903 
L 810.716413 314.838971 
L 819.883992 321.766324 
L 829.051572 333.008113 
L 838.219151 335.630177 
L 847.38673 298.234582 
L 856.55431 275.138664 
L 865.721889 274.983155 
" style="fill:none;stroke:#73c476;stroke-linecap:round;stroke-width:1.5;"/>
   </g>
   <g id="line2d_28"/>
   <g id="line2d_29"/>
   <g id="patch_3">
    <path d="M 66.767344 727.92 
L 66.767344 7.2 
" style="fill:none;stroke:#ffffff;stroke-linecap:square;stroke-linejoin:miter;stroke-width:1.25;"/>
   </g>
   <g id="patch_4">
    <path d="M 903.767344 727.92 
L 903.767344 7.2 
" style="fill:none;stroke:#ffffff;stroke-linecap:square;stroke-linejoin:miter;stroke-width:1.25;"/>
   </g>
   <g id="patch_5">
    <path d="M 66.767344 727.92 
L 903.767344 727.92 
" style="fill:none;stroke:#ffffff;stroke-linecap:square;stroke-linejoin:miter;stroke-width:1.25;"/>
   </g>
   <g id="patch_6">
    <path d="M 66.767344 7.2 
L 903.767344 7.2 
" style="fill:none;stroke:#ffffff;stroke-linecap:square;stroke-linejoin:miter;stroke-width:1.25;"/>
   </g>
   <g id="legend_1">
    <g id="patch_7">
     <path d="M 823.161406 211.586875 
L 896.067344 211.586875 
Q 898.267344 211.586875 898.267344 209.386875 
L 898.267344 14.9 
Q 898.267344 12.7 896.067344 12.7 
L 823.161406 12.7 
Q 820.961406 12.7 820.961406 14.9 
L 820.961406 209.386875 
Q 820.961406 211.586875 823.161406 211.586875 
z
" style="fill:#eaeaf2;opacity:0.8;stroke:#cccccc;stroke-linejoin:miter;"/>
    </g>
    <g id="line2d_30">
     <path d="M 825.361406 21.608281 
L 847.361406 21.608281 
" style="fill:none;"/>
    </g>
    <g id="line2d_31"/>
    <g id="text_14">
     <!-- Sensor -->
     <g style="fill:#262626;" transform="translate(856.161406 25.458281)scale(0.11 -0.11)">
      <use xlink:href="#DejaVuSans-83"/>
      <use x="63.476562" xlink:href="#DejaVuSans-101"/>
      <use x="125" xlink:href="#DejaVuSans-110"/>
      <use x="188.378906" xlink:href="#DejaVuSans-115"/>
      <use x="240.478516" xlink:href="#DejaVuSans-111"/>
      <use x="301.660156" xlink:href="#DejaVuSans-114"/>
     </g>
    </g>
    <g id="line2d_32">
     <path d="M 825.361406 37.754219 
L 847.361406 37.754219 
" style="fill:none;stroke:#fb694a;stroke-linecap:round;stroke-width:1.5;"/>
    </g>
    <g id="line2d_33"/>
    <g id="text_15">
     <!-- acc_x -->
     <defs>
      <path d="M 48.78125 52.59375 
L 48.78125 44.1875 
Q 44.96875 46.296875 41.140625 47.34375 
Q 37.3125 48.390625 33.40625 48.390625 
Q 24.65625 48.390625 19.8125 42.84375 
Q 14.984375 37.3125 14.984375 27.296875 
Q 14.984375 17.28125 19.8125 11.734375 
Q 24.65625 6.203125 33.40625 6.203125 
Q 37.3125 6.203125 41.140625 7.25 
Q 44.96875 8.296875 48.78125 10.40625 
L 48.78125 2.09375 
Q 45.015625 0.34375 40.984375 -0.53125 
Q 36.96875 -1.421875 32.421875 -1.421875 
Q 20.0625 -1.421875 12.78125 6.34375 
Q 5.515625 14.109375 5.515625 27.296875 
Q 5.515625 40.671875 12.859375 48.328125 
Q 20.21875 56 33.015625 56 
Q 37.15625 56 41.109375 55.140625 
Q 45.0625 54.296875 48.78125 52.59375 
z
" id="DejaVuSans-99"/>
      <path d="M 50.984375 -16.609375 
L 50.984375 -23.578125 
L -0.984375 -23.578125 
L -0.984375 -16.609375 
z
" id="DejaVuSans-95"/>
     </defs>
     <g style="fill:#262626;" transform="translate(856.161406 41.604219)scale(0.11 -0.11)">
      <use xlink:href="#DejaVuSans-97"/>
      <use x="61.279297" xlink:href="#DejaVuSans-99"/>
      <use x="116.259766" xlink:href="#DejaVuSans-99"/>
      <use x="171.240234" xlink:href="#DejaVuSans-95"/>
      <use x="221.240234" xlink:href="#DejaVuSans-120"/>
     </g>
    </g>
    <g id="line2d_34">
     <path d="M 825.361406 54.206094 
L 847.361406 54.206094 
" style="fill:none;"/>
    </g>
    <g id="line2d_35"/>
    <g id="text_16">
     <!-- Sensor -->
     <g style="fill:#262626;" transform="translate(856.161406 58.056094)scale(0.11 -0.11)">
      <use xlink:href="#DejaVuSans-83"/>
      <use x="63.476562" xlink:href="#DejaVuSans-101"/>
      <use x="125" xlink:href="#DejaVuSans-110"/>
      <use x="188.378906" xlink:href="#DejaVuSans-115"/>
      <use x="240.478516" xlink:href="#DejaVuSans-111"/>
      <use x="301.660156" xlink:href="#DejaVuSans-114"/>
     </g>
    </g>
    <g id="line2d_36">
     <path d="M 825.361406 70.352031 
L 847.361406 70.352031 
" style="fill:none;stroke:#6aaed6;stroke-linecap:round;stroke-width:1.5;"/>
    </g>
    <g id="line2d_37"/>
    <g id="text_17">
     <!-- acc_y -->
     <defs>
      <path d="M 32.171875 -5.078125 
Q 28.375 -14.84375 24.75 -17.8125 
Q 21.140625 -20.796875 15.09375 -20.796875 
L 7.90625 -20.796875 
L 7.90625 -13.28125 
L 13.1875 -13.28125 
Q 16.890625 -13.28125 18.9375 -11.515625 
Q 21 -9.765625 23.484375 -3.21875 
L 25.09375 0.875 
L 2.984375 54.6875 
L 12.5 54.6875 
L 29.59375 11.921875 
L 46.6875 54.6875 
L 56.203125 54.6875 
z
" id="DejaVuSans-121"/>
     </defs>
     <g style="fill:#262626;" transform="translate(856.161406 74.202031)scale(0.11 -0.11)">
      <use xlink:href="#DejaVuSans-97"/>
      <use x="61.279297" xlink:href="#DejaVuSans-99"/>
      <use x="116.259766" xlink:href="#DejaVuSans-99"/>
      <use x="171.240234" xlink:href="#DejaVuSans-95"/>
      <use x="221.240234" xlink:href="#DejaVuSans-121"/>
     </g>
    </g>
    <g id="line2d_38">
     <path d="M 825.361406 86.803906 
L 847.361406 86.803906 
" style="fill:none;"/>
    </g>
    <g id="line2d_39"/>
    <g id="text_18">
     <!-- Sensor -->
     <g style="fill:#262626;" transform="translate(856.161406 90.653906)scale(0.11 -0.11)">
      <use xlink:href="#DejaVuSans-83"/>
      <use x="63.476562" xlink:href="#DejaVuSans-101"/>
      <use x="125" xlink:href="#DejaVuSans-110"/>
      <use x="188.378906" xlink:href="#DejaVuSans-115"/>
      <use x="240.478516" xlink:href="#DejaVuSans-111"/>
      <use x="301.660156" xlink:href="#DejaVuSans-114"/>
     </g>
    </g>
    <g id="line2d_40">
     <path d="M 825.361406 102.949844 
L 847.361406 102.949844 
" style="fill:none;stroke:#959595;stroke-linecap:round;stroke-width:1.5;"/>
    </g>
    <g id="line2d_41"/>
    <g id="text_19">
     <!-- acc_z -->
     <defs>
      <path d="M 5.515625 54.6875 
L 48.1875 54.6875 
L 48.1875 46.484375 
L 14.40625 7.171875 
L 48.1875 7.171875 
L 48.1875 0 
L 4.296875 0 
L 4.296875 8.203125 
L 38.09375 47.515625 
L 5.515625 47.515625 
z
" id="DejaVuSans-122"/>
     </defs>
     <g style="fill:#262626;" transform="translate(856.161406 106.799844)scale(0.11 -0.11)">
      <use xlink:href="#DejaVuSans-97"/>
      <use x="61.279297" xlink:href="#DejaVuSans-99"/>
      <use x="116.259766" xlink:href="#DejaVuSans-99"/>
      <use x="171.240234" xlink:href="#DejaVuSans-95"/>
      <use x="221.240234" xlink:href="#DejaVuSans-122"/>
     </g>
    </g>
    <g id="line2d_42">
     <path d="M 825.361406 119.401719 
L 847.361406 119.401719 
" style="fill:none;"/>
    </g>
    <g id="line2d_43"/>
    <g id="text_20">
     <!-- Sensor -->
     <g style="fill:#262626;" transform="translate(856.161406 123.251719)scale(0.11 -0.11)">
      <use xlink:href="#DejaVuSans-83"/>
      <use x="63.476562" xlink:href="#DejaVuSans-101"/>
      <use x="125" xlink:href="#DejaVuSans-110"/>
      <use x="188.378906" xlink:href="#DejaVuSans-115"/>
      <use x="240.478516" xlink:href="#DejaVuSans-111"/>
      <use x="301.660156" xlink:href="#DejaVuSans-114"/>
     </g>
    </g>
    <g id="line2d_44">
     <path d="M 825.361406 135.547656 
L 847.361406 135.547656 
" style="fill:none;stroke:#fd8c3b;stroke-linecap:round;stroke-width:1.5;"/>
    </g>
    <g id="line2d_45"/>
    <g id="text_21">
     <!-- gy_x -->
     <g style="fill:#262626;" transform="translate(856.161406 139.397656)scale(0.11 -0.11)">
      <use xlink:href="#DejaVuSans-103"/>
      <use x="63.476562" xlink:href="#DejaVuSans-121"/>
      <use x="122.65625" xlink:href="#DejaVuSans-95"/>
      <use x="172.65625" xlink:href="#DejaVuSans-120"/>
     </g>
    </g>
    <g id="line2d_46">
     <path d="M 825.361406 151.999531 
L 847.361406 151.999531 
" style="fill:none;"/>
    </g>
    <g id="line2d_47"/>
    <g id="text_22">
     <!-- Sensor -->
     <g style="fill:#262626;" transform="translate(856.161406 155.849531)scale(0.11 -0.11)">
      <use xlink:href="#DejaVuSans-83"/>
      <use x="63.476562" xlink:href="#DejaVuSans-101"/>
      <use x="125" xlink:href="#DejaVuSans-110"/>
      <use x="188.378906" xlink:href="#DejaVuSans-115"/>
      <use x="240.478516" xlink:href="#DejaVuSans-111"/>
      <use x="301.660156" xlink:href="#DejaVuSans-114"/>
     </g>
    </g>
    <g id="line2d_48">
     <path d="M 825.361406 168.145469 
L 847.361406 168.145469 
" style="fill:none;stroke:#9e9ac8;stroke-linecap:round;stroke-width:1.5;"/>
    </g>
    <g id="line2d_49"/>
    <g id="text_23">
     <!-- gy_y -->
     <g style="fill:#262626;" transform="translate(856.161406 171.995469)scale(0.11 -0.11)">
      <use xlink:href="#DejaVuSans-103"/>
      <use x="63.476562" xlink:href="#DejaVuSans-121"/>
      <use x="122.65625" xlink:href="#DejaVuSans-95"/>
      <use x="172.65625" xlink:href="#DejaVuSans-121"/>
     </g>
    </g>
    <g id="line2d_50">
     <path d="M 825.361406 184.597344 
L 847.361406 184.597344 
" style="fill:none;"/>
    </g>
    <g id="line2d_51"/>
    <g id="text_24">
     <!-- Sensor -->
     <g style="fill:#262626;" transform="translate(856.161406 188.447344)scale(0.11 -0.11)">
      <use xlink:href="#DejaVuSans-83"/>
      <use x="63.476562" xlink:href="#DejaVuSans-101"/>
      <use x="125" xlink:href="#DejaVuSans-110"/>
      <use x="188.378906" xlink:href="#DejaVuSans-115"/>
      <use x="240.478516" xlink:href="#DejaVuSans-111"/>
      <use x="301.660156" xlink:href="#DejaVuSans-114"/>
     </g>
    </g>
    <g id="line2d_52">
     <path d="M 825.361406 200.743281 
L 847.361406 200.743281 
" style="fill:none;stroke:#73c476;stroke-linecap:round;stroke-width:1.5;"/>
    </g>
    <g id="line2d_53"/>
    <g id="text_25">
     <!-- gy_z -->
     <g style="fill:#262626;" transform="translate(856.161406 204.593281)scale(0.11 -0.11)">
      <use xlink:href="#DejaVuSans-103"/>
      <use x="63.476562" xlink:href="#DejaVuSans-121"/>
      <use x="122.65625" xlink:href="#DejaVuSans-95"/>
      <use x="172.65625" xlink:href="#DejaVuSans-122"/>
     </g>
    </g>
   </g>
  </g>
 </g>
 <defs>
  <clipPath id="pfe3068abbc">
   <rect height="720.72" width="837" x="66.767344" y="7.2"/>
  </clipPath>
 </defs>
</svg>
